IBM Plex Mono-Regular.ufo
<glyph name="exclam" format="2">
  <advance width="600"/>
  <unicode hex="0021"/>
  <outline>
    <contour>
      <point x="316" y="233" type="line"/>
      <point x="344" y="495" type="line"/>
      <point x="344" y="698" type="line"/>
      <point x="256" y="698" type="line"/>
      <point x="256" y="495" type="line"/>
      <point x="284" y="233" type="line"/>
    </contour>
    <contour>
      <point x="300" y="-9" type="curve" smooth="yes"/>
      <point x="354" y="-9"/>
      <point x="374" y="17"/>
      <point x="374" y="51" type="curve" smooth="yes"/>
      <point x="374" y="69" type="line" smooth="yes"/>
      <point x="374" y="103"/>
      <point x="354" y="129"/>
      <point x="300" y="129" type="curve" smooth="yes"/>
      <point x="246" y="129"/>
      <point x="226" y="103"/>
      <point x="226" y="69" type="curve" smooth="yes"/>
      <point x="226" y="51" type="line" smooth="yes"/>
      <point x="226" y="17"/>
      <point x="246" y="-9"/>
    </contour>
  </outline>
</glyph>
<glyph name="numbersign" format="2">
  <advance width="600"/>
  <unicode hex="0023"/>
  <outline>
    <contour>
      <point x="110" y="0" type="line"/>
      <point x="183" y="0" type="line"/>
      <point x="306" y="698" type="line"/>
      <point x="233" y="698" type="line"/>
      <point x="195" y="482" type="line"/>
      <point x="52" y="482" type="line"/>
      <point x="52" y="416" type="line"/>
      <point x="183" y="416" type="line"/>
      <point x="160" y="282" type="line"/>
      <point x="16" y="282" type="line"/>
      <point x="16" y="216" type="line"/>
      <point x="148" y="216" type="line"/>
    </contour>
    <contour>
      <point x="294" y="0" type="line"/>
      <point x="367" y="0" type="line"/>
      <point x="405" y="216" type="line"/>
      <point x="548" y="216" type="line"/>
      <point x="548" y="282" type="line"/>
      <point x="417" y="282" type="line"/>
      <point x="440" y="416" type="line"/>
      <point x="584" y="416" type="line"/>
      <point x="584" y="482" type="line"/>
      <point x="452" y="482" type="line"/>
      <point x="490" y="698" type="line"/>
      <point x="417" y="698" type="line"/>
    </contour>
  </outline>
</glyph>
<glyph name="percent" format="2">
  <advance width="600"/>
  <unicode hex="0025"/>
  <outline>
    <contour>
      <point x="169" y="356" type="curve" smooth="yes"/>
      <point x="256" y="356"/>
      <point x="318" y="416"/>
      <point x="318" y="533" type="curve" smooth="yes"/>
      <point x="318" y="650"/>
      <point x="256" y="710"/>
      <point x="169" y="710" type="curve" smooth="yes"/>
      <point x="82" y="710"/>
      <point x="20" y="650"/>
      <point x="20" y="533" type="curve" smooth="yes"/>
      <point x="20" y="416"/>
      <point x="82" y="356"/>
    </contour>
    <contour>
      <point x="169" y="410" type="curve" smooth="yes"/>
      <point x="121" y="410"/>
      <point x="88" y="445"/>
      <point x="88" y="508" type="curve" smooth="yes"/>
      <point x="88" y="558" type="line" smooth="yes"/>
      <point x="88" y="621"/>
      <point x="121" y="656"/>
      <point x="169" y="656" type="curve" smooth="yes"/>
      <point x="217" y="656"/>
      <point x="250" y="621"/>
      <point x="250" y="558" type="curve" smooth="yes"/>
      <point x="250" y="508" type="line" smooth="yes"/>
      <point x="250" y="445"/>
      <point x="217" y="410"/>
    </contour>
    <contour>
      <point x="350" y="398" type="line"/>
      <point x="422" y="398" type="line"/>
      <point x="582" y="698" type="line"/>
      <point x="510" y="698" type="line"/>
    </contour>
    <contour>
      <point x="18" y="0" type="line"/>
      <point x="90" y="0" type="line"/>
      <point x="250" y="300" type="line"/>
      <point x="178" y="300" type="line"/>
    </contour>
    <contour>
      <point x="431" y="-12" type="curve" smooth="yes"/>
      <point x="518" y="-12"/>
      <point x="580" y="48"/>
      <point x="580" y="165" type="curve" smooth="yes"/>
      <point x="580" y="282"/>
      <point x="518" y="342"/>
      <point x="431" y="342" type="curve" smooth="yes"/>
      <point x="344" y="342"/>
      <point x="282" y="282"/>
      <point x="282" y="165" type="curve" smooth="yes"/>
      <point x="282" y="48"/>
      <point x="344" y="-12"/>
    </contour>
    <contour>
      <point x="431" y="42" type="curve" smooth="yes"/>
      <point x="383" y="42"/>
      <point x="350" y="77"/>
      <point x="350" y="140" type="curve" smooth="yes"/>
      <point x="350" y="190" type="line" smooth="yes"/>
      <point x="350" y="253"/>
      <point x="383" y="288"/>
      <point x="431" y="288" type="curve" smooth="yes"/>
      <point x="479" y="288"/>
      <point x="512" y="253"/>
      <point x="512" y="190" type="curve" smooth="yes"/>
      <point x="512" y="140" type="line" smooth="yes"/>
      <point x="512" y="77"/>
      <point x="479" y="42"/>
    </contour>
  </outline>
</glyph>
<glyph name="ampersand" format="2">
  <advance width="600"/>
  <unicode hex="0026"/>
  <outline>
    <contour>
      <point x="217" y="-12" type="curve" smooth="yes"/>
      <point x="307" y="-12"/>
      <point x="366" y="34"/>
      <point x="385" y="103" type="curve"/>
      <point x="390" y="103" type="line"/>
      <point x="477" y="0" type="line"/>
      <point x="572" y="0" type="line"/>
      <point x="450" y="144" type="line"/>
      <point x="473" y="206"/>
      <point x="477" y="250"/>
      <point x="486" y="314" type="curve"/>
      <point x="561" y="314" type="line"/>
      <point x="561" y="381" type="line"/>
      <point x="420" y="381" type="line"/>
      <point x="417" y="317"/>
      <point x="416" y="246"/>
      <point x="407" y="194" type="curve"/>
      <point x="402" y="194" type="line"/>
      <point x="329" y="284" type="line"/>
      <point x="239" y="395" type="line" smooth="yes"/>
      <point x="188" y="459"/>
      <point x="168" y="494"/>
      <point x="168" y="536" type="curve" smooth="yes"/>
      <point x="168" y="544" type="line" smooth="yes"/>
      <point x="168" y="601"/>
      <point x="206" y="642"/>
      <point x="266" y="642" type="curve" smooth="yes"/>
      <point x="318" y="642"/>
      <point x="353" y="611"/>
      <point x="370" y="570" type="curve"/>
      <point x="436" y="604" type="line"/>
      <point x="417" y="655"/>
      <point x="359" y="710"/>
      <point x="270" y="710" type="curve" smooth="yes"/>
      <point x="171" y="710"/>
      <point x="89" y="642"/>
      <point x="89" y="541" type="curve" smooth="yes"/>
      <point x="89" y="482"/>
      <point x="117" y="432"/>
      <point x="154" y="384" type="curve"/>
      <point x="54" y="333"/>
      <point x="25" y="251"/>
      <point x="25" y="181" type="curve" smooth="yes"/>
      <point x="25" y="74"/>
      <point x="95" y="-12"/>
    </contour>
    <contour>
      <point x="238" y="59" type="curve" smooth="yes"/>
      <point x="161" y="59"/>
      <point x="108" y="105"/>
      <point x="108" y="177" type="curve" smooth="yes"/>
      <point x="108" y="192" type="line" smooth="yes"/>
      <point x="108" y="249"/>
      <point x="131" y="299"/>
      <point x="192" y="337" type="curve"/>
      <point x="366" y="127" type="line"/>
      <point x="341" y="84"/>
      <point x="295" y="59"/>
    </contour>
  </outline>
</glyph>
<glyph name="quotesingle" format="2">
  <advance width="600"/>
  <unicode hex="0027"/>
  <outline>
    <contour>
      <point x="338" y="463" type="line"/>
      <point x="338" y="740" type="line"/>
      <point x="262" y="740" type="line"/>
      <point x="262" y="463" type="line"/>
    </contour>
  </outline>
</glyph>
<glyph name="parenleft" format="2">
  <advance width="600"/>
  <unicode hex="0028"/>
  <outline>
    <contour>
      <point x="205" y="311" type="curve" smooth="yes"/>
      <point x="205" y="116"/>
      <point x="300" y="-54"/>
      <point x="413" y="-138" type="curve"/>
      <point x="494" y="-138" type="line"/>
      <point x="378" y="-51"/>
      <point x="280" y="97"/>
      <point x="280" y="268" type="curve" smooth="yes"/>
      <point x="280" y="354" type="line" smooth="yes"/>
      <point x="280" y="525"/>
      <point x="378" y="673"/>
      <point x="494" y="760" type="curve"/>
      <point x="413" y="760" type="line"/>
      <point x="300" y="676"/>
      <point x="205" y="506"/>
    </contour>
  </outline>
</glyph>
<glyph name="parenright" format="2">
  <advance width="600"/>
  <unicode hex="0029"/>
  <outline>
    <contour>
      <point x="395" y="311" type="curve" smooth="yes"/>
      <point x="395" y="506"/>
      <point x="300" y="676"/>
      <point x="187" y="760" type="curve"/>
      <point x="106" y="760" type="line"/>
      <point x="222" y="673"/>
      <point x="320" y="525"/>
      <point x="320" y="354" type="curve" smooth="yes"/>
      <point x="320" y="268" type="line" smooth="yes"/>
      <point x="320" y="97"/>
      <point x="222" y="-51"/>
      <point x="106" y="-138" type="curve"/>
      <point x="187" y="-138" type="line"/>
      <point x="300" y="-54"/>
      <point x="395" y="116"/>
    </contour>
  </outline>
</glyph>
<glyph name="asterisk" format="2">
  <advance width="600"/>
  <unicode hex="002A"/>
  <outline>
    <contour>
      <point x="300" y="228" type="line"/>
      <point x="425" y="56" type="line"/>
      <point x="482" y="98" type="line"/>
      <point x="358" y="268" type="line"/>
      <point x="557" y="334" type="line"/>
      <point x="536" y="400" type="line"/>
      <point x="337" y="336" type="line"/>
      <point x="337" y="552" type="line"/>
      <point x="263" y="552" type="line"/>
      <point x="263" y="336" type="line"/>
      <point x="64" y="400" type="line"/>
      <point x="43" y="334" type="line"/>
      <point x="242" y="268" type="line"/>
      <point x="118" y="98" type="line"/>
      <point x="175" y="56" type="line"/>
    </contour>
  </outline>
</glyph>
<glyph name="plus" format="2">
  <advance width="600"/>
  <unicode hex="002B"/>
  <outline>
    <contour>
      <point x="338" y="62" type="line"/>
      <point x="338" y="271" type="line"/>
      <point x="538" y="271" type="line"/>
      <point x="538" y="339" type="line"/>
      <point x="338" y="339" type="line"/>
      <point x="338" y="548" type="line"/>
      <point x="262" y="548" type="line"/>
      <point x="262" y="339" type="line"/>
      <point x="62" y="339" type="line"/>
      <point x="62" y="271" type="line"/>
      <point x="262" y="271" type="line"/>
      <point x="262" y="62" type="line"/>
    </contour>
  </outline>
</glyph>
<glyph name="comma" format="2">
  <advance width="600"/>
  <unicode hex="002C"/>
  <outline>
    <contour>
      <point x="204" y="-141" type="line"/>
      <point x="271" y="-141" type="line"/>
      <point x="386" y="136" type="line"/>
      <point x="257" y="136" type="line"/>
    </contour>
  </outline>
</glyph>
<glyph name="hyphen" format="2">
  <advance width="600"/>
  <unicode hex="002D"/>
  <outline>
    <contour>
      <point x="445" y="262" type="line"/>
      <point x="445" y="346" type="line"/>
      <point x="155" y="346" type="line"/>
      <point x="155" y="262" type="line"/>
    </contour>
  </outline>
</glyph>
<glyph name="period" format="2">
  <advance width="600"/>
  <unicode hex="002E"/>
  <outline>
    <contour>
      <point x="300" y="-9" type="curve" smooth="yes"/>
      <point x="354" y="-9"/>
      <point x="374" y="17"/>
      <point x="374" y="51" type="curve" smooth="yes"/>
      <point x="374" y="69" type="line" smooth="yes"/>
      <point x="374" y="103"/>
      <point x="354" y="129"/>
      <point x="300" y="129" type="curve" smooth="yes"/>
      <point x="246" y="129"/>
      <point x="226" y="103"/>
      <point x="226" y="69" type="curve" smooth="yes"/>
      <point x="226" y="51" type="line" smooth="yes"/>
      <point x="226" y="17"/>
      <point x="246" y="-9"/>
    </contour>
  </outline>
</glyph>
<glyph name="slash" format="2">
  <advance width="600"/>
  <unicode hex="002F"/>
  <outline>
    <contour>
      <point x="162" y="-138" type="line"/>
      <point x="510" y="760" type="line"/>
      <point x="438" y="760" type="line"/>
      <point x="90" y="-138" type="line"/>
    </contour>
  </outline>
</glyph>
<glyph name="zero" format="2">
  <advance width="600"/>
  <unicode hex="0030"/>
  <outline>
    <contour>
      <point x="300" y="-12" type="curve" smooth="yes"/>
      <point x="470" y="-12"/>
      <point x="544" y="121"/>
      <point x="544" y="349" type="curve" smooth="yes"/>
      <point x="544" y="577"/>
      <point x="470" y="710"/>
      <point x="300" y="710" type="curve" smooth="yes"/>
      <point x="130" y="710"/>
      <point x="56" y="577"/>
      <point x="56" y="349" type="curve" smooth="yes"/>
      <point x="56" y="121"/>
      <point x="130" y="-12"/>
    </contour>
    <contour>
      <point x="300" y="61" type="curve" smooth="yes"/>
      <point x="188" y="61"/>
      <point x="143" y="152"/>
      <point x="143" y="292" type="curve" smooth="yes"/>
      <point x="143" y="406" type="line" smooth="yes"/>
      <point x="143" y="546"/>
      <point x="188" y="637"/>
      <point x="300" y="637" type="curve" smooth="yes"/>
      <point x="412" y="637"/>
      <point x="457" y="546"/>
      <point x="457" y="406" type="curve" smooth="yes"/>
      <point x="457" y="292" type="line"/>
      <point x="457" y="152"/>
      <point x="412" y="61"/>
    </contour>
    <contour>
      <point x="300" y="290" type="curve" smooth="yes"/>
      <point x="346" y="290"/>
      <point x="362" y="311"/>
      <point x="362" y="338" type="curve" smooth="yes"/>
      <point x="362" y="360" type="line" smooth="yes"/>
      <point x="362" y="387"/>
      <point x="346" y="408"/>
      <point x="300" y="408" type="curve" smooth="yes"/>
      <point x="254" y="408"/>
      <point x="238" y="387"/>
      <point x="238" y="360" type="curve" smooth="yes"/>
      <point x="238" y="338" type="line" smooth="yes"/>
      <point x="238" y="311"/>
      <point x="254" y="290"/>
    </contour>
  </outline>
</glyph>
<glyph name="one" format="2">
  <advance width="600"/>
  <unicode hex="0031"/>
  <outline>
    <contour>
      <point x="553" y="0" type="line"/>
      <point x="553" y="73" type="line"/>
      <point x="369" y="73" type="line"/>
      <point x="369" y="698" type="line"/>
      <point x="238" y="698" type="line"/>
      <point x="53" y="525" type="line"/>
      <point x="102" y="472" type="line"/>
      <point x="278" y="636" type="line"/>
      <point x="285" y="636" type="line"/>
      <point x="285" y="73" type="line"/>
      <point x="85" y="73" type="line"/>
      <point x="85" y="0" type="line"/>
    </contour>
  </outline>
</glyph>
<glyph name="four" format="2">
  <advance width="600"/>
  <unicode hex="0034"/>
  <outline>
    <contour>
      <point x="458" y="0" type="line"/>
      <point x="458" y="137" type="line"/>
      <point x="562" y="137" type="line"/>
      <point x="562" y="206" type="line"/>
      <point x="458" y="206" type="line"/>
      <point x="458" y="698" type="line"/>
      <point x="336" y="698" type="line"/>
      <point x="34" y="211" type="line"/>
      <point x="34" y="137" type="line"/>
      <point x="378" y="137" type="line"/>
      <point x="378" y="0" type="line"/>
    </contour>
    <contour>
      <point x="374" y="633" type="line"/>
      <point x="378" y="633" type="line"/>
      <point x="378" y="206" type="line"/>
      <point x="109" y="206" type="line"/>
    </contour>
  </outline>
</glyph>
<glyph name="five" format="2">
  <advance width="600"/>
  <unicode hex="0035"/>
  <outline>
    <contour>
      <point x="501" y="698" type="line"/>
      <point x="121" y="698" type="line"/>
      <point x="96" y="314" type="line"/>
      <point x="167" y="304" type="line"/>
      <point x="197" y="337"/>
      <point x="229" y="363"/>
      <point x="295" y="363" type="curve" smooth="yes"/>
      <point x="392" y="363"/>
      <point x="446" y="308"/>
      <point x="446" y="216" type="curve" smooth="yes"/>
      <point x="446" y="208" type="line" smooth="yes"/>
      <point x="446" y="117"/>
      <point x="393" y="61"/>
      <point x="297" y="61" type="curve"/>
      <point x="211" y="61"/>
      <point x="173" y="100"/>
      <point x="136" y="155" type="curve"/>
      <point x="73" y="107" type="line"/>
      <point x="116" y="47"/>
      <point x="177" y="-12"/>
      <point x="295" y="-12" type="curve" smooth="yes"/>
      <point x="444" y="-12"/>
      <point x="533" y="83"/>
      <point x="533" y="219" type="curve" smooth="yes"/>
      <point x="533" y="354"/>
      <point x="444" y="434"/>
      <point x="322" y="434" type="curve" smooth="yes"/>
      <point x="248" y="434"/>
      <point x="210" y="405"/>
      <point x="176" y="358" type="curve"/>
      <point x="169" y="358" type="line"/>
      <point x="189" y="625" type="line"/>
      <point x="501" y="625" type="line"/>
    </contour>
  </outline>
</glyph>
<glyph name="seven" format="2">
  <advance width="600"/>
  <unicode hex="0037"/>
  <outline>
    <contour>
      <point x="263" y="0" type="line"/>
      <point x="531" y="624" type="line"/>
      <point x="531" y="698" type="line"/>
      <point x="65" y="698" type="line"/>
      <point x="65" y="496" type="line"/>
      <point x="140" y="496" type="line"/>
      <point x="140" y="626" type="line"/>
      <point x="446" y="626" type="line"/>
      <point x="173" y="0" type="line"/>
    </contour>
  </outline>
</glyph>
<glyph name="eight" format="2">
  <advance width="600"/>
  <unicode hex="0038"/>
  <outline>
    <contour>
      <point x="300" y="-12" type="curve" smooth="yes"/>
      <point x="462" y="-12"/>
      <point x="545" y="75"/>
      <point x="545" y="190" type="curve" smooth="yes"/>
      <point x="545" y="285"/>
      <point x="488" y="340"/>
      <point x="403" y="363" type="curve"/>
      <point x="403" y="371" type="line"/>
      <point x="477" y="396"/>
      <point x="524" y="455"/>
      <point x="524" y="535" type="curve" smooth="yes"/>
      <point x="524" y="641"/>
      <point x="441" y="710"/>
      <point x="300" y="710" type="curve" smooth="yes"/>
      <point x="159" y="710"/>
      <point x="76" y="641"/>
      <point x="76" y="535" type="curve" smooth="yes"/>
      <point x="76" y="455"/>
      <point x="123" y="396"/>
      <point x="197" y="371" type="curve"/>
      <point x="197" y="363" type="line"/>
      <point x="112" y="340"/>
      <point x="55" y="285"/>
      <point x="55" y="190" type="curve" smooth="yes"/>
      <point x="55" y="75"/>
      <point x="138" y="-12"/>
    </contour>
    <contour>
      <point x="300" y="59" type="curve" smooth="yes"/>
      <point x="202" y="59"/>
      <point x="142" y="106"/>
      <point x="142" y="185" type="curve" smooth="yes"/>
      <point x="142" y="207" type="line" smooth="yes"/>
      <point x="142" y="287"/>
      <point x="200" y="333"/>
      <point x="300" y="333" type="curve" smooth="yes"/>
      <point x="400" y="333"/>
      <point x="458" y="287"/>
      <point x="458" y="207" type="curve" smooth="yes"/>
      <point x="458" y="185" type="line" smooth="yes"/>
      <point x="458" y="106"/>
      <point x="398" y="59"/>
    </contour>
    <contour>
      <point x="300" y="401" type="curve" smooth="yes"/>
      <point x="210" y="401"/>
      <point x="161" y="442"/>
      <point x="161" y="513" type="curve" smooth="yes"/>
      <point x="161" y="527" type="line" smooth="yes"/>
      <point x="161" y="598"/>
      <point x="212" y="639"/>
      <point x="300" y="639" type="curve" smooth="yes"/>
      <point x="388" y="639"/>
      <point x="439" y="598"/>
      <point x="439" y="527" type="curve" smooth="yes"/>
      <point x="439" y="513" type="line" smooth="yes"/>
      <point x="439" y="442"/>
      <point x="390" y="401"/>
    </contour>
  </outline>
</glyph>
<glyph name="less" format="2">
  <advance width="600"/>
  <unicode hex="003C"/>
  <outline>
    <contour>
      <point x="515" y="16" type="line"/>
      <point x="515" y="101" type="line"/>
      <point x="160" y="302" type="line"/>
      <point x="160" y="310" type="line"/>
      <point x="515" y="511" type="line"/>
      <point x="515" y="594" type="line"/>
      <point x="85" y="345" type="line"/>
      <point x="85" y="265" type="line"/>
    </contour>
  </outline>
</glyph>
<glyph name="equal" format="2">
  <advance width="600"/>
  <unicode hex="003D"/>
  <outline>
    <contour>
      <point x="538" y="372" type="line"/>
      <point x="538" y="440" type="line"/>
      <point x="62" y="440" type="line"/>
      <point x="62" y="372" type="line"/>
    </contour>
    <contour>
      <point x="538" y="172" type="line"/>
      <point x="538" y="240" type="line"/>
      <point x="62" y="240" type="line"/>
      <point x="62" y="172" type="line"/>
    </contour>
  </outline>
</glyph>
<glyph name="greater" format="2">
  <advance width="600"/>
  <unicode hex="003E"/>
  <outline>
    <contour>
      <point x="85" y="16" type="line"/>
      <point x="515" y="265" type="line"/>
      <point x="515" y="345" type="line"/>
      <point x="85" y="594" type="line"/>
      <point x="85" y="509" type="line"/>
      <point x="440" y="308" type="line"/>
      <point x="440" y="300" type="line"/>
      <point x="85" y="99" type="line"/>
    </contour>
  </outline>
</glyph>
<glyph name="question" format="2">
  <advance width="600"/>
  <unicode hex="003F"/>
  <outline>
    <contour>
      <point x="318" y="215" type="line"/>
      <point x="318" y="316" type="line"/>
      <point x="412" y="333"/>
      <point x="510" y="395"/>
      <point x="510" y="521" type="curve" smooth="yes"/>
      <point x="510" y="636"/>
      <point x="428" y="710"/>
      <point x="301" y="710" type="curve" smooth="yes"/>
      <point x="173" y="710"/>
      <point x="103" y="636"/>
      <point x="77" y="548" type="curve"/>
      <point x="152" y="520" type="line"/>
      <point x="170" y="587"/>
      <point x="218" y="637"/>
      <point x="298" y="637" type="curve" smooth="yes"/>
      <point x="375" y="637"/>
      <point x="423" y="599"/>
      <point x="423" y="525" type="curve" smooth="yes"/>
      <point x="423" y="511" type="line" smooth="yes"/>
      <point x="423" y="421"/>
      <point x="353" y="377"/>
      <point x="239" y="372" type="curve"/>
      <point x="239" y="215" type="line"/>
    </contour>
    <contour>
      <point x="282" y="-9" type="curve" smooth="yes"/>
      <point x="336" y="-9"/>
      <point x="356" y="17"/>
      <point x="356" y="51" type="curve" smooth="yes"/>
      <point x="356" y="69" type="line" smooth="yes"/>
      <point x="356" y="103"/>
      <point x="336" y="129"/>
      <point x="282" y="129" type="curve" smooth="yes"/>
      <point x="228" y="129"/>
      <point x="208" y="103"/>
      <point x="208" y="69" type="curve" smooth="yes"/>
      <point x="208" y="51" type="line" smooth="yes"/>
      <point x="208" y="17"/>
      <point x="228" y="-9"/>
    </contour>
  </outline>
</glyph>
<glyph name="at" format="2">
  <advance width="600"/>
  <unicode hex="0040"/>
  <outline>
    <contour>
      <point x="454" y="-48" type="line"/>
      <point x="331" y="-48" type="line" smooth="yes"/>
      <point x="172" y="-48"/>
      <point x="137" y="74"/>
      <point x="137" y="229" type="curve" smooth="yes"/>
      <point x="137" y="358" type="line" smooth="yes"/>
      <point x="137" y="559"/>
      <point x="184" y="646"/>
      <point x="303" y="646" type="curve" smooth="yes"/>
      <point x="410" y="646"/>
      <point x="454" y="576"/>
      <point x="454" y="463" type="curve" smooth="yes"/>
      <point x="454" y="439" type="line"/>
      <point x="449" y="439" type="line"/>
      <point x="436" y="473"/>
      <point x="408" y="508"/>
      <point x="349" y="508" type="curve" smooth="yes"/>
      <point x="268" y="508"/>
      <point x="216" y="441"/>
      <point x="216" y="293" type="curve" smooth="yes"/>
      <point x="216" y="146"/>
      <point x="268" y="79"/>
      <point x="349" y="79" type="curve" smooth="yes"/>
      <point x="408" y="79"/>
      <point x="436" y="114"/>
      <point x="449" y="148" type="curve"/>
      <point x="454" y="148" type="line"/>
      <point x="454" y="91" type="line"/>
      <point x="525" y="91" type="line"/>
      <point x="525" y="463" type="line" smooth="yes"/>
      <point x="525" y="603"/>
      <point x="461" y="710"/>
      <point x="301" y="710" type="curve" smooth="yes"/>
      <point x="145" y="710"/>
      <point x="62" y="609"/>
      <point x="62" y="300" type="curve" smooth="yes"/>
      <point x="62" y="24"/>
      <point x="128" y="-112"/>
      <point x="331" y="-112" type="curve" smooth="yes"/>
      <point x="454" y="-112" type="line"/>
    </contour>
    <contour>
      <point x="375" y="139" type="curve" smooth="yes"/>
      <point x="320" y="139"/>
      <point x="290" y="174"/>
      <point x="290" y="263" type="curve"/>
      <point x="290" y="324" type="line" smooth="yes"/>
      <point x="290" y="413"/>
      <point x="320" y="448"/>
      <point x="375" y="448" type="curve" smooth="yes"/>
      <point x="423" y="448"/>
      <point x="454" y="421"/>
      <point x="454" y="370" type="curve" smooth="yes"/>
      <point x="454" y="217" type="line" smooth="yes"/>
      <point x="454" y="166"/>
      <point x="423" y="139"/>
    </contour>
  </outline>
</glyph>
<glyph name="A" format="2">
  <advance width="600"/>
  <unicode hex="0041"/>
  <anchor x="300.0" y="0.0" name="bottom"/>
  <anchor x="570.0" y="0.0" name="bottomright"/>
  <anchor x="300.0" y="698.0" name="top"/>
  <outline>
    <contour>
      <point x="570" y="0" type="line"/>
      <point x="356" y="698" type="line"/>
      <point x="245" y="698" type="line"/>
      <point x="31" y="0" type="line"/>
      <point x="118" y="0" type="line"/>
      <point x="177" y="199" type="line"/>
      <point x="422" y="199" type="line"/>
      <point x="481" y="0" type="line"/>
    </contour>
    <contour>
      <point x="402" y="272" type="line"/>
      <point x="197" y="272" type="line"/>
      <point x="295" y="609" type="line"/>
      <point x="304" y="609" type="line"/>
    </contour>
  </outline>
</glyph>
<glyph name="B" format="2">
  <advance width="600"/>
  <unicode hex="0042"/>
  <anchor x="315.0" y="0.0" name="bottom"/>
  <anchor x="295.0" y="698.0" name="top"/>
  <outline>
    <contour>
      <point x="88" y="0" type="line"/>
      <point x="355" y="0" type="line" smooth="yes"/>
      <point x="463" y="0"/>
      <point x="543" y="88"/>
      <point x="543" y="201" type="curve" smooth="yes"/>
      <point x="543" y="298"/>
      <point x="486" y="347"/>
      <point x="408" y="365" type="curve"/>
      <point x="408" y="368" type="line"/>
      <point x="472" y="388"/>
      <point x="517" y="435"/>
      <point x="517" y="518" type="curve" smooth="yes"/>
      <point x="517" y="627"/>
      <point x="444" y="698"/>
      <point x="325" y="698" type="curve" smooth="yes"/>
      <point x="88" y="698" type="line"/>
    </contour>
    <contour>
      <point x="172" y="73" type="line"/>
      <point x="172" y="326" type="line"/>
      <point x="330" y="326" type="line" smooth="yes"/>
      <point x="407" y="326"/>
      <point x="454" y="290"/>
      <point x="454" y="220" type="curve" smooth="yes"/>
      <point x="454" y="179" type="line" smooth="yes"/>
      <point x="454" y="108"/>
      <point x="407" y="73"/>
      <point x="330" y="73" type="curve" smooth="yes"/>
    </contour>
    <contour>
      <point x="172" y="395" type="line"/>
      <point x="172" y="625" type="line"/>
      <point x="316" y="625" type="line" smooth="yes"/>
      <point x="386" y="625"/>
      <point x="429" y="593"/>
      <point x="429" y="529" type="curve" smooth="yes"/>
      <point x="429" y="490" type="line" smooth="yes"/>
      <point x="429" y="426"/>
      <point x="386" y="395"/>
      <point x="316" y="395" type="curve" smooth="yes"/>
    </contour>
  </outline>
</glyph>
<glyph name="C" format="2">
  <advance width="600"/>
  <unicode hex="0043"/>
  <anchor x="308.0" y="0.0" name="bottom"/>
  <anchor x="328.0" y="698.0" name="top"/>
  <outline>
    <contour>
      <point x="323" y="-12" type="curve" smooth="yes"/>
      <point x="451" y="-12"/>
      <point x="504" y="65"/>
      <point x="538" y="141" type="curve"/>
      <point x="466" y="174" type="line"/>
      <point x="441" y="112"/>
      <point x="408" y="61"/>
      <point x="323" y="61" type="curve" smooth="yes"/>
      <point x="212" y="61"/>
      <point x="159" y="152"/>
      <point x="159" y="292" type="curve" smooth="yes"/>
      <point x="159" y="406" type="line" smooth="yes"/>
      <point x="159" y="546"/>
      <point x="212" y="637"/>
      <point x="323" y="637" type="curve" smooth="yes"/>
      <point x="408" y="637"/>
      <point x="441" y="586"/>
      <point x="466" y="524" type="curve"/>
      <point x="538" y="557" type="line"/>
      <point x="504" y="633"/>
      <point x="451" y="710"/>
      <point x="323" y="710" type="curve" smooth="yes"/>
      <point x="153" y="710"/>
      <point x="70" y="581"/>
      <point x="70" y="349" type="curve" smooth="yes"/>
      <point x="70" y="117"/>
      <point x="153" y="-12"/>
    </contour>
  </outline>
</glyph>
<glyph name="D" format="2">
  <advance width="600"/>
  <unicode hex="0044"/>
  <anchor x="277.0" y="0.0" name="bottom"/>
  <anchor x="277.0" y="698.0" name="top"/>
  <outline>
    <contour>
      <point x="95" y="0" type="line"/>
      <point x="290" y="0" type="line"/>
      <point x="460" y="0"/>
      <point x="544" y="120"/>
      <point x="544" y="349" type="curve" smooth="yes"/>
      <point x="544" y="578"/>
      <point x="460" y="698"/>
      <point x="290" y="698" type="curve" smooth="yes"/>
      <point x="95" y="698" type="line"/>
    </contour>
    <contour>
      <point x="179" y="73" type="line"/>
      <point x="179" y="625" type="line"/>
      <point x="286" y="625" type="line" smooth="yes"/>
      <point x="397" y="625"/>
      <point x="455" y="543"/>
      <point x="455" y="403" type="curve" smooth="yes"/>
      <point x="455" y="295" type="line"/>
      <point x="455" y="155"/>
      <point x="397" y="73"/>
      <point x="286" y="73" type="curve" smooth="yes"/>
    </contour>
  </outline>
</glyph>
<glyph name="E" format="2">
  <advance width="600"/>
  <unicode hex="0045"/>
  <anchor x="305.0" y="0.0" name="bottom"/>
  <anchor x="520.0" y="0.0" name="bottomright"/>
  <anchor x="305.0" y="698.0" name="top"/>
  <outline>
    <contour>
      <point x="520" y="0" type="line"/>
      <point x="520" y="73" type="line"/>
      <point x="174" y="73" type="line"/>
      <point x="174" y="317" type="line"/>
      <point x="508" y="317" type="line"/>
      <point x="508" y="390" type="line"/>
      <point x="174" y="390" type="line"/>
      <point x="174" y="625" type="line"/>
      <point x="520" y="625" type="line"/>
      <point x="520" y="698" type="line"/>
      <point x="90" y="698" type="line"/>
      <point x="90" y="0" type="line"/>
    </contour>
  </outline>
</glyph>
<glyph name="F" format="2">
  <advance width="600"/>
  <unicode hex="0046"/>
  <anchor x="132.0" y="0.0" name="bottom"/>
  <anchor x="310.0" y="698.0" name="top"/>
  <outline>
    <contour>
      <point x="174" y="0" type="line"/>
      <point x="174" y="317" type="line"/>
      <point x="500" y="317" type="line"/>
      <point x="500" y="390" type="line"/>
      <point x="174" y="390" type="line"/>
      <point x="174" y="625" type="line"/>
      <point x="530" y="625" type="line"/>
      <point x="530" y="698" type="line"/>
      <point x="90" y="698" type="line"/>
      <point x="90" y="0" type="line"/>
    </contour>
  </outline>
</glyph>
<glyph name="G" format="2">
  <advance width="600"/>
  <unicode hex="0047"/>
  <anchor x="300.0" y="0.0" name="bottom"/>
  <anchor x="306.0" y="698.0" name="top"/>
  <outline>
    <contour>
      <point x="444" y="0" type="line"/>
      <point x="522" y="0" type="line"/>
      <point x="522" y="345" type="line"/>
      <point x="297" y="345" type="line"/>
      <point x="297" y="278" type="line"/>
      <point x="444" y="278" type="line"/>
      <point x="444" y="206" type="line" smooth="yes"/>
      <point x="444" y="120"/>
      <point x="390" y="59"/>
      <point x="300" y="59" type="curve" smooth="yes"/>
      <point x="186" y="59"/>
      <point x="145" y="158"/>
      <point x="145" y="298" type="curve" smooth="yes"/>
      <point x="145" y="406" type="line" smooth="yes"/>
      <point x="145" y="546"/>
      <point x="196" y="637"/>
      <point x="308" y="637" type="curve" smooth="yes"/>
      <point x="392" y="637"/>
      <point x="425" y="586"/>
      <point x="450" y="524" type="curve"/>
      <point x="522" y="557" type="line"/>
      <point x="492" y="633"/>
      <point x="436" y="710"/>
      <point x="305" y="710" type="curve" smooth="yes"/>
      <point x="137" y="710"/>
      <point x="56" y="582"/>
      <point x="56" y="344" type="curve" smooth="yes"/>
      <point x="56" y="116"/>
      <point x="130" y="-12"/>
      <point x="281" y="-12" type="curve" smooth="yes"/>
      <point x="377" y="-12"/>
      <point x="416" y="39"/>
      <point x="439" y="93" type="curve"/>
      <point x="444" y="93" type="line"/>
    </contour>
  </outline>
</glyph>
<glyph name="H" format="2">
  <advance width="600"/>
  <unicode hex="0048"/>
  <anchor x="300.0" y="0.0" name="bottom"/>
  <anchor x="300.0" y="698.0" name="top"/>
  <outline>
    <contour>
      <point x="436" y="0" type="line"/>
      <point x="520" y="0" type="line"/>
      <point x="520" y="698" type="line"/>
      <point x="436" y="698" type="line"/>
      <point x="436" y="390" type="line"/>
      <point x="164" y="390" type="line"/>
      <point x="164" y="698" type="line"/>
      <point x="80" y="698" type="line"/>
      <point x="80" y="0" type="line"/>
      <point x="164" y="0" type="line"/>
      <point x="164" y="317" type="line"/>
      <point x="436" y="317" type="line"/>
    </contour>
  </outline>
</glyph>
<glyph name="I" format="2">
  <advance width="600"/>
  <unicode hex="0049"/>
  <anchor x="300.0" y="0.0" name="bottom"/>
  <anchor x="516.0" y="0.0" name="bottomright"/>
  <anchor x="300.0" y="698.0" name="top"/>
  <outline>
    <contour>
      <point x="516" y="0" type="line"/>
      <point x="516" y="67" type="line"/>
      <point x="342" y="67" type="line"/>
      <point x="342" y="631" type="line"/>
      <point x="516" y="631" type="line"/>
      <point x="516" y="698" type="line"/>
      <point x="84" y="698" type="line"/>
      <point x="84" y="631" type="line"/>
      <point x="258" y="631" type="line"/>
      <point x="258" y="67" type="line"/>
      <point x="84" y="67" type="line"/>
      <point x="84" y="0" type="line"/>
    </contour>
  </outline>
</glyph>
<glyph name="J" format="2">
  <advance width="600"/>
  <unicode hex="004A"/>
  <anchor x="277.0" y="0.0" name="bottom"/>
  <anchor x="313.0" y="698.0" name="top"/>
  <outline>
    <contour>
      <point x="144" y="698" type="line"/>
      <point x="144" y="625" type="line"/>
      <point x="396" y="625" type="line"/>
      <point x="396" y="196" type="line" smooth="yes"/>
      <point x="396" y="105"/>
      <point x="352" y="62"/>
      <point x="276" y="62" type="curve" smooth="yes"/>
      <point x="198" y="62"/>
      <point x="167" y="107"/>
      <point x="154" y="163" type="curve"/>
      <point x="74" y="146" type="line"/>
      <point x="95" y="46"/>
      <point x="168" y="-12"/>
      <point x="274" y="-12" type="curve" smooth="yes"/>
      <point x="395" y="-12"/>
      <point x="480" y="63"/>
      <point x="480" y="181" type="curve"/>
      <point x="480" y="698" type="line"/>
    </contour>
  </outline>
</glyph>
<glyph name="K" format="2">
  <advance width="600"/>
  <unicode hex="004B"/>
  <anchor x="322.0" y="0.0" name="bottom"/>
  <anchor x="313.0" y="698.0" name="top"/>
  <outline>
    <contour>
      <point x="480" y="0" type="line"/>
      <point x="578" y="0" type="line"/>
      <point x="326" y="404" type="line"/>
      <point x="571" y="698" type="line"/>
      <point x="470" y="698" type="line"/>
      <point x="264" y="450" type="line"/>
      <point x="172" y="334" type="line"/>
      <point x="169" y="334" type="line"/>
      <point x="169" y="698" type="line"/>
      <point x="85" y="698" type="line"/>
      <point x="85" y="0" type="line"/>
      <point x="169" y="0" type="line"/>
      <point x="169" y="224" type="line"/>
      <point x="269" y="342" type="line"/>
    </contour>
  </outline>
</glyph>
<glyph name="L" format="2">
  <advance width="600"/>
  <unicode hex="004C"/>
  <anchor x="327.0" y="0.0" name="bottom"/>
  <anchor x="162.0" y="698.0" name="top"/>
  <anchor x="290.0" y="740.0" name="topright"/>
  <outline>
    <contour>
      <point x="535" y="0" type="line"/>
      <point x="535" y="73" type="line"/>
      <point x="204" y="73" type="line"/>
      <point x="204" y="698" type="line"/>
      <point x="120" y="698" type="line"/>
      <point x="120" y="0" type="line"/>
    </contour>
  </outline>
</glyph>
<glyph name="M" format="2">
  <advance width="600"/>
  <unicode hex="004D"/>
  <anchor x="300.0" y="0.0" name="bottom"/>
  <anchor x="300.0" y="698.0" name="top"/>
  <outline>
    <contour>
      <point x="455" y="0" type="line"/>
      <point x="532" y="0" type="line"/>
      <point x="532" y="698" type="line"/>
      <point x="428" y="698" type="line"/>
      <point x="305" y="390" type="line"/>
      <point x="299" y="390" type="line"/>
      <point x="176" y="698" type="line"/>
      <point x="68" y="698" type="line"/>
      <point x="68" y="0" type="line"/>
      <point x="145" y="0" type="line"/>
      <point x="145" y="350" type="line"/>
      <point x="145" y="571" type="line"/>
      <point x="153" y="571" type="line"/>
      <point x="300" y="212" type="line"/>
      <point x="447" y="571" type="line"/>
      <point x="455" y="571" type="line"/>
      <point x="455" y="350" type="line"/>
    </contour>
  </outline>
</glyph>
<glyph name="N" format="2">
  <advance width="600"/>
  <unicode hex="004E"/>
  <anchor x="300.0" y="0.0" name="bottom"/>
  <anchor x="300.0" y="698.0" name="top"/>
  <outline>
    <contour>
      <point x="401" y="0" type="line"/>
      <point x="520" y="0" type="line"/>
      <point x="520" y="698" type="line"/>
      <point x="444" y="698" type="line"/>
      <point x="444" y="110" type="line"/>
      <point x="437" y="110" type="line"/>
      <point x="199" y="698" type="line"/>
      <point x="80" y="698" type="line"/>
      <point x="80" y="0" type="line"/>
      <point x="156" y="0" type="line"/>
      <point x="156" y="588" type="line"/>
      <point x="163" y="588" type="line"/>
    </contour>
  </outline>
</glyph>
<glyph name="O" format="2">
  <advance width="600"/>
  <unicode hex="004F"/>
  <anchor x="300.0" y="0.0" name="bottom"/>
  <anchor x="300.0" y="698.0" name="top"/>
  <outline>
    <contour>
      <point x="300" y="-12" type="curve" smooth="yes"/>
      <point x="470" y="-12"/>
      <point x="544" y="121"/>
      <point x="544" y="349" type="curve" smooth="yes"/>
      <point x="544" y="577"/>
      <point x="470" y="710"/>
      <point x="300" y="710" type="curve" smooth="yes"/>
      <point x="130" y="710"/>
      <point x="56" y="577"/>
      <point x="56" y="349" type="curve" smooth="yes"/>
      <point x="56" y="121"/>
      <point x="130" y="-12"/>
    </contour>
    <contour>
      <point x="300" y="61" type="curve" smooth="yes"/>
      <point x="189" y="61"/>
      <point x="145" y="152"/>
      <point x="145" y="292" type="curve" smooth="yes"/>
      <point x="145" y="406" type="line" smooth="yes"/>
      <point x="145" y="546"/>
      <point x="189" y="637"/>
      <point x="300" y="637" type="curve" smooth="yes"/>
      <point x="411" y="637"/>
      <point x="455" y="546"/>
      <point x="455" y="406" type="curve" smooth="yes"/>
      <point x="455" y="292" type="line"/>
      <point x="455" y="152"/>
      <point x="411" y="61"/>
    </contour>
  </outline>
</glyph>
<glyph name="P" format="2">
  <advance width="600"/>
  <unicode hex="0050"/>
  <anchor x="132.0" y="0.0" name="bottom"/>
  <anchor x="300.0" y="698.0" name="top"/>
  <outline>
    <contour>
      <point x="174" y="0" type="line"/>
      <point x="174" y="296" type="line"/>
      <point x="344" y="296" type="line" smooth="yes"/>
      <point x="473" y="296"/>
      <point x="543" y="371"/>
      <point x="543" y="497" type="curve" smooth="yes"/>
      <point x="543" y="623"/>
      <point x="473" y="698"/>
      <point x="344" y="698" type="curve" smooth="yes"/>
      <point x="90" y="698" type="line"/>
      <point x="90" y="0" type="line"/>
    </contour>
    <contour>
      <point x="174" y="625" type="line"/>
      <point x="342" y="625" type="line" smooth="yes"/>
      <point x="412" y="625"/>
      <point x="454" y="588"/>
      <point x="454" y="523" type="curve" smooth="yes"/>
      <point x="454" y="471" type="line" smooth="yes"/>
      <point x="454" y="406"/>
      <point x="412" y="369"/>
      <point x="342" y="369" type="curve" smooth="yes"/>
      <point x="174" y="369" type="line"/>
    </contour>
  </outline>
</glyph>
<glyph name="Q" format="2">
  <advance width="600"/>
  <unicode hex="0051"/>
  <anchor x="300.0" y="698.0" name="top"/>
  <outline>
    <contour>
      <point x="491" y="-96" type="line"/>
      <point x="340" y="-96" type="line"/>
      <point x="340" y="-9" type="line"/>
      <point x="481" y="10"/>
      <point x="544" y="140"/>
      <point x="544" y="349" type="curve" smooth="yes"/>
      <point x="544" y="577"/>
      <point x="470" y="710"/>
      <point x="300" y="710" type="curve" smooth="yes"/>
      <point x="130" y="710"/>
      <point x="56" y="577"/>
      <point x="56" y="349" type="curve" smooth="yes"/>
      <point x="56" y="140"/>
      <point x="118" y="10"/>
      <point x="260" y="-9" type="curve"/>
      <point x="260" y="-46" type="line" smooth="yes"/>
      <point x="260" y="-115"/>
      <point x="296" y="-164"/>
      <point x="374" y="-164" type="curve" smooth="yes"/>
      <point x="491" y="-164" type="line"/>
    </contour>
    <contour>
      <point x="300" y="61" type="curve" smooth="yes"/>
      <point x="189" y="61"/>
      <point x="145" y="152"/>
      <point x="145" y="292" type="curve" smooth="yes"/>
      <point x="145" y="406" type="line" smooth="yes"/>
      <point x="145" y="546"/>
      <point x="189" y="637"/>
      <point x="300" y="637" type="curve" smooth="yes"/>
      <point x="411" y="637"/>
      <point x="455" y="546"/>
      <point x="455" y="406" type="curve" smooth="yes"/>
      <point x="455" y="292" type="line" smooth="yes"/>
      <point x="455" y="152"/>
      <point x="411" y="61"/>
    </contour>
  </outline>
</glyph>
<glyph name="R" format="2">
  <advance width="600"/>
  <unicode hex="0052"/>
  <anchor x="308.0" y="0.0" name="bottom"/>
  <anchor x="308.0" y="698.0" name="top"/>
  <outline>
    <contour>
      <point x="174" y="298" type="line"/>
      <point x="285" y="298" type="line"/>
      <point x="455" y="0" type="line"/>
      <point x="549" y="0" type="line"/>
      <point x="371" y="302" type="line"/>
      <point x="482" y="313"/>
      <point x="543" y="385"/>
      <point x="543" y="497" type="curve" smooth="yes"/>
      <point x="543" y="623"/>
      <point x="473" y="698"/>
      <point x="344" y="698" type="curve" smooth="yes"/>
      <point x="90" y="698" type="line"/>
      <point x="90" y="0" type="line"/>
      <point x="174" y="0" type="line"/>
    </contour>
    <contour>
      <point x="174" y="369" type="line"/>
      <point x="174" y="625" type="line"/>
      <point x="342" y="625" type="line" smooth="yes"/>
      <point x="412" y="625"/>
      <point x="454" y="588"/>
      <point x="454" y="523" type="curve" smooth="yes"/>
      <point x="454" y="471" type="line" smooth="yes"/>
      <point x="454" y="406"/>
      <point x="412" y="369"/>
      <point x="342" y="369" type="curve" smooth="yes"/>
    </contour>
  </outline>
</glyph>
<glyph name="T" format="2">
  <advance width="600"/>
  <unicode hex="0054"/>
  <anchor x="300.0" y="0.0" name="bottom"/>
  <anchor x="300.0" y="698.0" name="top"/>
  <outline>
    <contour>
      <point x="575" y="625" type="line"/>
      <point x="575" y="698" type="line"/>
      <point x="25" y="698" type="line"/>
      <point x="25" y="625" type="line"/>
      <point x="258" y="625" type="line"/>
      <point x="258" y="0" type="line"/>
      <point x="342" y="0" type="line"/>
      <point x="342" y="625" type="line"/>
    </contour>
  </outline>
</glyph>
<glyph name="U" format="2">
  <advance width="600"/>
  <unicode hex="0055"/>
  <anchor x="300.0" y="0.0" name="bottom"/>
  <anchor x="394.0" y="0.0" name="bottomright"/>
  <anchor x="300.0" y="698.0" name="top"/>
  <outline>
    <contour>
      <point x="80" y="698" type="line"/>
      <point x="80" y="299" type="line" smooth="yes"/>
      <point x="80" y="92"/>
      <point x="110" y="-12"/>
      <point x="300" y="-12" type="curve" smooth="yes"/>
      <point x="490" y="-12"/>
      <point x="520" y="92"/>
      <point x="520" y="299" type="curve" smooth="yes"/>
      <point x="520" y="698" type="line"/>
      <point x="436" y="698" type="line"/>
      <point x="436" y="279" type="line" smooth="yes"/>
      <point x="436" y="144"/>
      <point x="431" y="61"/>
      <point x="300" y="61" type="curve" smooth="yes"/>
      <point x="169" y="61"/>
      <point x="164" y="144"/>
      <point x="164" y="279" type="curve" smooth="yes"/>
      <point x="164" y="698" type="line"/>
    </contour>
  </outline>
</glyph>
<glyph name="V" format="2">
  <advance width="600"/>
  <unicode hex="0056"/>
  <anchor x="300.0" y="0.0" name="bottom"/>
  <anchor x="300.0" y="698.0" name="top"/>
  <outline>
    <contour>
      <point x="357" y="0" type="line"/>
      <point x="564" y="698" type="line"/>
      <point x="478" y="698" type="line"/>
      <point x="379" y="349" type="line"/>
      <point x="304" y="85" type="line"/>
      <point x="299" y="85" type="line"/>
      <point x="224" y="349" type="line"/>
      <point x="125" y="698" type="line"/>
      <point x="36" y="698" type="line"/>
      <point x="243" y="0" type="line"/>
    </contour>
  </outline>
</glyph>
<glyph name="W" format="2">
  <advance width="600"/>
  <unicode hex="0057"/>
  <anchor x="300.0" y="0.0" name="bottom"/>
  <anchor x="300.0" y="698.0" name="top"/>
  <outline>
    <contour>
      <point x="211" y="0" type="line"/>
      <point x="296" y="417" type="line"/>
      <point x="304" y="417" type="line"/>
      <point x="389" y="0" type="line"/>
      <point x="510" y="0" type="line"/>
      <point x="565" y="698" type="line"/>
      <point x="492" y="698" type="line"/>
      <point x="463" y="298" type="line"/>
      <point x="448" y="87" type="line"/>
      <point x="440" y="87" type="line"/>
      <point x="348" y="516" type="line"/>
      <point x="254" y="516" type="line"/>
      <point x="162" y="87" type="line"/>
      <point x="154" y="87" type="line"/>
      <point x="139" y="298" type="line"/>
      <point x="110" y="698" type="line"/>
      <point x="35" y="698" type="line"/>
      <point x="90" y="0" type="line"/>
    </contour>
  </outline>
</glyph>
<glyph name="X" format="2">
  <advance width="600"/>
  <unicode hex="0058"/>
  <anchor x="300.0" y="0.0" name="bottom"/>
  <anchor x="300.0" y="698.0" name="top"/>
  <outline>
    <contour>
      <point x="352" y="357" type="line"/>
      <point x="568" y="698" type="line"/>
      <point x="476" y="698" type="line"/>
      <point x="392" y="563" type="line"/>
      <point x="306" y="422" type="line"/>
      <point x="302" y="422" type="line"/>
      <point x="215" y="563" type="line"/>
      <point x="134" y="698" type="line"/>
      <point x="39" y="698" type="line"/>
      <point x="254" y="356" type="line"/>
      <point x="26" y="0" type="line"/>
      <point x="118" y="0" type="line"/>
      <point x="206" y="139" type="line"/>
      <point x="301" y="291" type="line"/>
      <point x="305" y="291" type="line"/>
      <point x="397" y="139" type="line"/>
      <point x="480" y="0" type="line"/>
      <point x="575" y="0" type="line"/>
    </contour>
  </outline>
</glyph>
<glyph name="Y" format="2">
  <advance width="600"/>
  <unicode hex="0059"/>
  <anchor x="300.0" y="0.0" name="bottom"/>
  <anchor x="300.0" y="698.0" name="top"/>
  <outline>
    <contour>
      <point x="342" y="0" type="line"/>
      <point x="342" y="274" type="line"/>
      <point x="583" y="698" type="line"/>
      <point x="489" y="698" type="line"/>
      <point x="389" y="516" type="line"/>
      <point x="302" y="357" type="line"/>
      <point x="298" y="357" type="line"/>
      <point x="213" y="516" type="line"/>
      <point x="113" y="698" type="line"/>
      <point x="17" y="698" type="line"/>
      <point x="258" y="274" type="line"/>
      <point x="258" y="0" type="line"/>
    </contour>
  </outline>
</glyph>
<glyph name="bracketleft" format="2">
  <advance width="600"/>
  <unicode hex="005B"/>
  <outline>
    <contour>
      <point x="505" y="-138" type="line"/>
      <point x="505" y="-76" type="line"/>
      <point x="294" y="-76" type="line"/>
      <point x="294" y="698" type="line"/>
      <point x="505" y="698" type="line"/>
      <point x="505" y="760" type="line"/>
      <point x="225" y="760" type="line"/>
      <point x="225" y="-138" type="line"/>
    </contour>
  </outline>
</glyph>
<glyph name="bracketright" format="2">
  <advance width="600"/>
  <unicode hex="005D"/>
  <outline>
    <contour>
      <point x="95" y="760" type="line"/>
      <point x="95" y="698" type="line"/>
      <point x="306" y="698" type="line"/>
      <point x="306" y="-76" type="line"/>
      <point x="95" y="-76" type="line"/>
      <point x="95" y="-138" type="line"/>
      <point x="375" y="-138" type="line"/>
      <point x="375" y="760" type="line"/>
    </contour>
  </outline>
</glyph>
<glyph name="asciicircum" format="2">
  <advance width="600"/>
  <unicode hex="005E"/>
  <outline>
    <contour>
      <point x="555" y="318" type="line"/>
      <point x="345" y="698" type="line"/>
      <point x="255" y="698" type="line"/>
      <point x="45" y="318" type="line"/>
      <point x="107" y="287" type="line"/>
      <point x="296" y="629" type="line"/>
      <point x="300" y="629" type="line"/>
      <point x="489" y="287" type="line"/>
    </contour>
  </outline>
</glyph>
<glyph name="underscore" format="2">
  <advance width="600"/>
  <unicode hex="005F"/>
  <outline>
    <contour>
      <point x="540" y="-169" type="line"/>
      <point x="540" y="-95" type="line"/>
      <point x="60" y="-95" type="line"/>
      <point x="60" y="-169" type="line"/>
    </contour>
  </outline>
</glyph>
<glyph name="grave" format="2">
  <advance width="600"/>
  <unicode hex="0060"/>
  <anchor x="300.0" y="516.0" name="_top"/>
  <outline>
    <contour>
      <point x="293" y="585" type="line"/>
      <point x="345" y="609" type="line"/>
      <point x="260" y="779" type="line"/>
      <point x="187" y="744" type="line"/>
    </contour>
  </outline>
</glyph>
<glyph name="a" format="2">
  <advance width="600"/>
  <unicode hex="0061"/>
  <anchor x="283.0" y="0.0" name="bottom"/>
  <anchor x="550.0" y="0.0" name="bottomright"/>
  <anchor x="283.0" y="516.0" name="top"/>
  <outline>
    <contour>
      <point x="550" y="0" type="line"/>
      <point x="550" y="70" type="line"/>
      <point x="478" y="70" type="line"/>
      <point x="478" y="354" type="line" smooth="yes"/>
      <point x="478" y="463"/>
      <point x="401" y="528"/>
      <point x="280" y="528" type="curve" smooth="yes"/>
      <point x="175" y="528"/>
      <point x="109" y="478"/>
      <point x="83" y="424" type="curve"/>
      <point x="137" y="384" type="line"/>
      <point x="164" y="431"/>
      <point x="206" y="460"/>
      <point x="275" y="460" type="curve" smooth="yes"/>
      <point x="353" y="460"/>
      <point x="398" y="421"/>
      <point x="398" y="346" type="curve" smooth="yes"/>
      <point x="398" y="295" type="line"/>
      <point x="288" y="295" type="line" smooth="yes"/>
      <point x="133" y="295"/>
      <point x="66" y="240"/>
      <point x="66" y="145" type="curve" smooth="yes"/>
      <point x="66" y="48"/>
      <point x="135" y="-12"/>
      <point x="243" y="-12" type="curve" smooth="yes"/>
      <point x="327" y="-12"/>
      <point x="376" y="25"/>
      <point x="398" y="84" type="curve"/>
      <point x="403" y="84" type="line"/>
      <point x="409" y="36"/>
      <point x="433" y="0"/>
      <point x="495" y="0" type="curve" smooth="yes"/>
    </contour>
    <contour>
      <point x="257" y="55" type="curve" smooth="yes"/>
      <point x="191" y="55"/>
      <point x="150" y="83"/>
      <point x="150" y="136" type="curve" smooth="yes"/>
      <point x="150" y="157" type="line" smooth="yes"/>
      <point x="150" y="207"/>
      <point x="193" y="235"/>
      <point x="288" y="235" type="curve" smooth="yes"/>
      <point x="398" y="235" type="line"/>
      <point x="398" y="150" type="line" smooth="yes"/>
      <point x="398" y="97"/>
      <point x="339" y="55"/>
    </contour>
  </outline>
</glyph>
<glyph name="b" format="2">
  <advance width="600"/>
  <unicode hex="0062"/>
  <anchor x="317.0" y="0.0" name="bottom"/>
  <outline>
    <contour>
      <point x="95" y="0" type="line"/>
      <point x="175" y="0" type="line"/>
      <point x="175" y="84" type="line"/>
      <point x="179" y="84" type="line"/>
      <point x="212" y="21"/>
      <point x="266" y="-12"/>
      <point x="338" y="-12" type="curve" smooth="yes"/>
      <point x="464" y="-12"/>
      <point x="540" y="89"/>
      <point x="540" y="258" type="curve" smooth="yes"/>
      <point x="540" y="427"/>
      <point x="464" y="528"/>
      <point x="338" y="528" type="curve" smooth="yes"/>
      <point x="266" y="528"/>
      <point x="212" y="495"/>
      <point x="179" y="432" type="curve"/>
      <point x="175" y="432" type="line"/>
      <point x="175" y="740" type="line"/>
      <point x="95" y="740" type="line"/>
    </contour>
    <contour>
      <point x="307" y="59" type="curve" smooth="yes"/>
      <point x="236" y="59"/>
      <point x="175" y="96"/>
      <point x="175" y="165" type="curve"/>
      <point x="175" y="351" type="line"/>
      <point x="175" y="420"/>
      <point x="236" y="457"/>
      <point x="307" y="457" type="curve" smooth="yes"/>
      <point x="400" y="457"/>
      <point x="454" y="395"/>
      <point x="454" y="302" type="curve" smooth="yes"/>
      <point x="454" y="214" type="line" smooth="yes"/>
      <point x="454" y="121"/>
      <point x="400" y="59"/>
    </contour>
  </outline>
</glyph>
<glyph name="c" format="2">
  <advance width="600"/>
  <unicode hex="0063"/>
  <anchor x="303.0" y="0.0" name="bottom"/>
  <anchor x="313.0" y="516.0" name="top"/>
  <outline>
    <contour>
      <point x="318" y="-12" type="curve" smooth="yes"/>
      <point x="421" y="-12"/>
      <point x="486" y="39"/>
      <point x="516" y="108" type="curve"/>
      <point x="459" y="147" type="line"/>
      <point x="433" y="91"/>
      <point x="388" y="57"/>
      <point x="319" y="57" type="curve" smooth="yes"/>
      <point x="222" y="57"/>
      <point x="170" y="123"/>
      <point x="170" y="214" type="curve" smooth="yes"/>
      <point x="170" y="302" type="line" smooth="yes"/>
      <point x="170" y="393"/>
      <point x="223" y="459"/>
      <point x="317" y="459" type="curve" smooth="yes"/>
      <point x="381" y="459"/>
      <point x="425" y="428"/>
      <point x="444" y="375" type="curve"/>
      <point x="508" y="409" type="line"/>
      <point x="479" y="479"/>
      <point x="417" y="528"/>
      <point x="317" y="528" type="curve" smooth="yes"/>
      <point x="171" y="528"/>
      <point x="84" y="422"/>
      <point x="84" y="258" type="curve" smooth="yes"/>
      <point x="84" y="95"/>
      <point x="170" y="-12"/>
    </contour>
  </outline>
</glyph>
<glyph name="d" format="2">
  <advance width="600"/>
  <unicode hex="0064"/>
  <anchor x="282.0" y="0.0" name="bottom"/>
  <anchor x="567.0" y="740.0" name="topright"/>
  <outline>
    <contour>
      <point x="425" y="0" type="line"/>
      <point x="505" y="0" type="line"/>
      <point x="505" y="740" type="line"/>
      <point x="425" y="740" type="line"/>
      <point x="425" y="432" type="line"/>
      <point x="421" y="432" type="line"/>
      <point x="388" y="495"/>
      <point x="334" y="528"/>
      <point x="262" y="528" type="curve" smooth="yes"/>
      <point x="136" y="528"/>
      <point x="60" y="427"/>
      <point x="60" y="258" type="curve" smooth="yes"/>
      <point x="60" y="89"/>
      <point x="136" y="-12"/>
      <point x="262" y="-12" type="curve" smooth="yes"/>
      <point x="334" y="-12"/>
      <point x="388" y="21"/>
      <point x="421" y="84" type="curve"/>
      <point x="425" y="84" type="line"/>
    </contour>
    <contour>
      <point x="293" y="59" type="curve" smooth="yes"/>
      <point x="200" y="59"/>
      <point x="146" y="121"/>
      <point x="146" y="214" type="curve" smooth="yes"/>
      <point x="146" y="302" type="line" smooth="yes"/>
      <point x="146" y="395"/>
      <point x="200" y="457"/>
      <point x="293" y="457" type="curve" smooth="yes"/>
      <point x="364" y="457"/>
      <point x="425" y="420"/>
      <point x="425" y="351" type="curve"/>
      <point x="425" y="165" type="line"/>
      <point x="425" y="96"/>
      <point x="364" y="59"/>
    </contour>
  </outline>
</glyph>
<glyph name="f" format="2">
  <advance width="600"/>
  <unicode hex="0066"/>
  <anchor x="308.0" y="0.0" name="bottom"/>
  <outline>
    <contour>
      <point x="83" y="0" type="line"/>
      <point x="521" y="0" type="line"/>
      <point x="521" y="68" type="line"/>
      <point x="337" y="68" type="line"/>
      <point x="337" y="448" type="line"/>
      <point x="544" y="448" type="line"/>
      <point x="544" y="516" type="line"/>
      <point x="337" y="516" type="line"/>
      <point x="337" y="672" type="line"/>
      <point x="544" y="672" type="line"/>
      <point x="544" y="740" type="line"/>
      <point x="371" y="740" type="line" smooth="yes"/>
      <point x="293" y="740"/>
      <point x="257" y="691"/>
      <point x="257" y="622" type="curve" smooth="yes"/>
      <point x="257" y="516" type="line"/>
      <point x="73" y="516" type="line"/>
      <point x="73" y="448" type="line"/>
      <point x="257" y="448" type="line"/>
      <point x="257" y="68" type="line"/>
      <point x="83" y="68" type="line"/>
    </contour>
  </outline>
</glyph>
<glyph name="h" format="2">
  <advance width="600"/>
  <unicode hex="0068"/>
  <anchor x="303.0" y="0.0" name="bottom"/>
  <anchor x="138.0" y="698.0" name="top"/>
  <outline>
    <contour>
      <point x="98" y="0" type="line"/>
      <point x="178" y="0" type="line"/>
      <point x="178" y="358" type="line"/>
      <point x="178" y="426"/>
      <point x="242" y="457"/>
      <point x="306" y="457" type="curve" smooth="yes"/>
      <point x="385" y="457"/>
      <point x="428" y="411"/>
      <point x="428" y="317" type="curve" smooth="yes"/>
      <point x="428" y="0" type="line"/>
      <point x="508" y="0" type="line"/>
      <point x="508" y="331" type="line" smooth="yes"/>
      <point x="508" y="456"/>
      <point x="437" y="528"/>
      <point x="329" y="528" type="curve" smooth="yes"/>
      <point x="244" y="528"/>
      <point x="204" y="483"/>
      <point x="182" y="432" type="curve"/>
      <point x="178" y="432" type="line"/>
      <point x="178" y="740" type="line"/>
      <point x="98" y="740" type="line"/>
    </contour>
  </outline>
</glyph>
<glyph name="i" format="2">
  <advance width="600"/>
  <unicode hex="0069"/>
  <anchor x="332.0" y="0.0" name="bottom"/>
  <anchor x="546.0" y="0.0" name="bottomright"/>
  <outline>
    <contour>
      <point x="332" y="630" type="curve" smooth="yes"/>
      <point x="378" y="630"/>
      <point x="395" y="652"/>
      <point x="395" y="681" type="curve" smooth="yes"/>
      <point x="395" y="697" type="line" smooth="yes"/>
      <point x="395" y="726"/>
      <point x="378" y="748"/>
      <point x="332" y="748" type="curve" smooth="yes"/>
      <point x="286" y="748"/>
      <point x="269" y="726"/>
      <point x="269" y="697" type="curve" smooth="yes"/>
      <point x="269" y="681" type="line" smooth="yes"/>
      <point x="269" y="652"/>
      <point x="286" y="630"/>
    </contour>
    <contour>
      <point x="106" y="0" type="line"/>
      <point x="546" y="0" type="line"/>
      <point x="546" y="68" type="line"/>
      <point x="372" y="68" type="line"/>
      <point x="372" y="516" type="line"/>
      <point x="106" y="516" type="line"/>
      <point x="106" y="448" type="line"/>
      <point x="292" y="448" type="line"/>
      <point x="292" y="68" type="line"/>
      <point x="106" y="68" type="line"/>
    </contour>
  </outline>
</glyph>
<glyph name="j" format="2">
  <advance width="600"/>
  <unicode hex="006A"/>
  <outline>
    <contour>
      <point x="102" y="-200" type="line"/>
      <point x="318" y="-200" type="line" smooth="yes"/>
      <point x="396" y="-200"/>
      <point x="432" y="-151"/>
      <point x="432" y="-82" type="curve" smooth="yes"/>
      <point x="432" y="516" type="line"/>
      <point x="93" y="516" type="line"/>
      <point x="93" y="448" type="line"/>
      <point x="352" y="448" type="line"/>
      <point x="352" y="-132" type="line"/>
      <point x="102" y="-132" type="line"/>
    </contour>
    <contour>
      <point x="392" y="630" type="curve" smooth="yes"/>
      <point x="438" y="630"/>
      <point x="455" y="652"/>
      <point x="455" y="681" type="curve" smooth="yes"/>
      <point x="455" y="697" type="line" smooth="yes"/>
      <point x="455" y="726"/>
      <point x="438" y="748"/>
      <point x="392" y="748" type="curve" smooth="yes"/>
      <point x="346" y="748"/>
      <point x="329" y="726"/>
      <point x="329" y="697" type="curve" smooth="yes"/>
      <point x="329" y="681" type="line" smooth="yes"/>
      <point x="329" y="652"/>
      <point x="346" y="630"/>
    </contour>
  </outline>
</glyph>
<glyph name="k" format="2">
  <advance width="600"/>
  <unicode hex="006B"/>
  <anchor x="323.0" y="0.0" name="bottom"/>
  <outline>
    <contour>
      <point x="105" y="0" type="line"/>
      <point x="185" y="0" type="line"/>
      <point x="185" y="187" type="line"/>
      <point x="274" y="268" type="line"/>
      <point x="475" y="0" type="line"/>
      <point x="574" y="0" type="line"/>
      <point x="335" y="314" type="line"/>
      <point x="549" y="516" type="line"/>
      <point x="451" y="516" type="line"/>
      <point x="279" y="358" type="line"/>
      <point x="189" y="273" type="line"/>
      <point x="185" y="273" type="line"/>
      <point x="185" y="740" type="line"/>
      <point x="105" y="740" type="line"/>
    </contour>
  </outline>
</glyph>
<glyph name="m" format="2">
  <advance width="600"/>
  <unicode hex="006D"/>
  <anchor x="300.0" y="0.0" name="bottom"/>
  <anchor x="300.0" y="516.0" name="top"/>
  <outline>
    <contour>
      <point x="128" y="0" type="line"/>
      <point x="128" y="379" type="line"/>
      <point x="128" y="434"/>
      <point x="158" y="462"/>
      <point x="201" y="462" type="curve" smooth="yes"/>
      <point x="248" y="462"/>
      <point x="263" y="433"/>
      <point x="263" y="345" type="curve" smooth="yes"/>
      <point x="263" y="0" type="line"/>
      <point x="337" y="0" type="line"/>
      <point x="337" y="379" type="line"/>
      <point x="337" y="434"/>
      <point x="367" y="462"/>
      <point x="409" y="462" type="curve" smooth="yes"/>
      <point x="457" y="462"/>
      <point x="472" y="433"/>
      <point x="472" y="345" type="curve" smooth="yes"/>
      <point x="472" y="0" type="line"/>
      <point x="546" y="0" type="line"/>
      <point x="546" y="358" type="line" smooth="yes"/>
      <point x="546" y="467"/>
      <point x="524" y="528"/>
      <point x="440" y="528" type="curve" smooth="yes"/>
      <point x="379" y="528"/>
      <point x="347" y="494"/>
      <point x="328" y="447" type="curve"/>
      <point x="325" y="447" type="line"/>
      <point x="319" y="495"/>
      <point x="290" y="528"/>
      <point x="231" y="528" type="curve" smooth="yes"/>
      <point x="174" y="528"/>
      <point x="148" y="496"/>
      <point x="132" y="456" type="curve"/>
      <point x="128" y="456" type="line"/>
      <point x="128" y="516" type="line"/>
      <point x="54" y="516" type="line"/>
      <point x="54" y="0" type="line"/>
    </contour>
  </outline>
</glyph>
<glyph name="o" format="2">
  <advance width="600"/>
  <unicode hex="006F"/>
  <anchor x="300.0" y="0.0" name="bottom"/>
  <anchor x="300.0" y="516.0" name="top"/>
  <outline>
    <contour>
      <point x="300" y="-12" type="curve" smooth="yes"/>
      <point x="445" y="-12"/>
      <point x="534" y="94"/>
      <point x="534" y="258" type="curve" smooth="yes"/>
      <point x="534" y="422"/>
      <point x="445" y="528"/>
      <point x="300" y="528" type="curve" smooth="yes"/>
      <point x="155" y="528"/>
      <point x="66" y="422"/>
      <point x="66" y="258" type="curve" smooth="yes"/>
      <point x="66" y="94"/>
      <point x="155" y="-12"/>
    </contour>
    <contour>
      <point x="300" y="57" type="curve" smooth="yes"/>
      <point x="211" y="57"/>
      <point x="151" y="110"/>
      <point x="151" y="221" type="curve" smooth="yes"/>
      <point x="151" y="295" type="line" smooth="yes"/>
      <point x="151" y="406"/>
      <point x="211" y="459"/>
      <point x="300" y="459" type="curve" smooth="yes"/>
      <point x="389" y="459"/>
      <point x="449" y="406"/>
      <point x="449" y="295" type="curve" smooth="yes"/>
      <point x="449" y="221" type="line" smooth="yes"/>
      <point x="449" y="110"/>
      <point x="389" y="57"/>
    </contour>
  </outline>
</glyph>
<glyph name="p" format="2">
  <advance width="600"/>
  <unicode hex="0070"/>
  <anchor x="317.0" y="516.0" name="top"/>
  <outline>
    <contour>
      <point x="95" y="-200" type="line"/>
      <point x="175" y="-200" type="line"/>
      <point x="175" y="84" type="line"/>
      <point x="179" y="84" type="line"/>
      <point x="212" y="21"/>
      <point x="266" y="-12"/>
      <point x="338" y="-12" type="curve" smooth="yes"/>
      <point x="464" y="-12"/>
      <point x="540" y="89"/>
      <point x="540" y="258" type="curve" smooth="yes"/>
      <point x="540" y="427"/>
      <point x="464" y="528"/>
      <point x="338" y="528" type="curve" smooth="yes"/>
      <point x="266" y="528"/>
      <point x="212" y="495"/>
      <point x="179" y="432" type="curve"/>
      <point x="175" y="432" type="line"/>
      <point x="175" y="516" type="line"/>
      <point x="95" y="516" type="line"/>
    </contour>
    <contour>
      <point x="307" y="59" type="curve" smooth="yes"/>
      <point x="236" y="59"/>
      <point x="175" y="96"/>
      <point x="175" y="165" type="curve"/>
      <point x="175" y="351" type="line"/>
      <point x="175" y="420"/>
      <point x="236" y="457"/>
      <point x="307" y="457" type="curve" smooth="yes"/>
      <point x="400" y="457"/>
      <point x="454" y="395"/>
      <point x="454" y="302" type="curve" smooth="yes"/>
      <point x="454" y="214" type="line" smooth="yes"/>
      <point x="454" y="121"/>
      <point x="400" y="59"/>
    </contour>
  </outline>
</glyph>
<glyph name="r" format="2">
  <advance width="600"/>
  <unicode hex="0072"/>
  <anchor x="268.0" y="0.0" name="bottom"/>
  <anchor x="353.0" y="516.0" name="top"/>
  <outline>
    <contour>
      <point x="77" y="0" type="line"/>
      <point x="469" y="0" type="line"/>
      <point x="469" y="68" type="line"/>
      <point x="308" y="68" type="line"/>
      <point x="308" y="291" type="line" smooth="yes"/>
      <point x="308" y="371"/>
      <point x="361" y="436"/>
      <point x="462" y="436" type="curve" smooth="yes"/>
      <point x="559" y="436" type="line"/>
      <point x="559" y="516" type="line"/>
      <point x="487" y="516" type="line" smooth="yes"/>
      <point x="379" y="516"/>
      <point x="333" y="454"/>
      <point x="313" y="386" type="curve"/>
      <point x="308" y="386" type="line"/>
      <point x="308" y="516" type="line"/>
      <point x="77" y="516" type="line"/>
      <point x="77" y="448" type="line"/>
      <point x="228" y="448" type="line"/>
      <point x="228" y="68" type="line"/>
      <point x="77" y="68" type="line"/>
    </contour>
  </outline>
</glyph>
<glyph name="t" format="2">
  <advance width="600"/>
  <unicode hex="0074"/>
  <anchor x="375.0" y="0.0" name="bottom"/>
  <anchor x="387.0" y="760.0" name="topright"/>
  <outline>
    <contour>
      <point x="526" y="0" type="line"/>
      <point x="526" y="68" type="line"/>
      <point x="291" y="68" type="line"/>
      <point x="291" y="448" type="line"/>
      <point x="526" y="448" type="line"/>
      <point x="526" y="516" type="line"/>
      <point x="291" y="516" type="line"/>
      <point x="291" y="698" type="line"/>
      <point x="214" y="698" type="line"/>
      <point x="214" y="563" type="line" smooth="yes"/>
      <point x="214" y="528"/>
      <point x="201" y="516"/>
      <point x="167" y="516" type="curve" smooth="yes"/>
      <point x="39" y="516" type="line"/>
      <point x="39" y="448" type="line"/>
      <point x="211" y="448" type="line"/>
      <point x="211" y="118" type="line" smooth="yes"/>
      <point x="211" y="49"/>
      <point x="247" y="0"/>
      <point x="325" y="0" type="curve" smooth="yes"/>
    </contour>
  </outline>
</glyph>
<glyph name="u" format="2">
  <advance width="600"/>
  <unicode hex="0075"/>
  <anchor x="297.0" y="0.0" name="bottom"/>
  <anchor x="502.0" y="0.0" name="bottomright"/>
  <anchor x="297.0" y="516.0" name="top"/>
  <outline>
    <contour>
      <point x="422" y="0" type="line"/>
      <point x="502" y="0" type="line"/>
      <point x="502" y="516" type="line"/>
      <point x="422" y="516" type="line"/>
      <point x="422" y="158" type="line"/>
      <point x="422" y="90"/>
      <point x="358" y="59"/>
      <point x="294" y="59" type="curve" smooth="yes"/>
      <point x="215" y="59"/>
      <point x="172" y="105"/>
      <point x="172" y="199" type="curve" smooth="yes"/>
      <point x="172" y="516" type="line"/>
      <point x="92" y="516" type="line"/>
      <point x="92" y="185" type="line" smooth="yes"/>
      <point x="92" y="60"/>
      <point x="163" y="-12"/>
      <point x="271" y="-12" type="curve" smooth="yes"/>
      <point x="356" y="-12"/>
      <point x="396" y="33"/>
      <point x="418" y="84" type="curve"/>
      <point x="422" y="84" type="line"/>
    </contour>
  </outline>
</glyph>
<glyph name="v" format="2">
  <advance width="600"/>
  <unicode hex="0076"/>
  <anchor x="300.0" y="0.0" name="bottom"/>
  <anchor x="300.0" y="516.0" name="top"/>
  <outline>
    <contour>
      <point x="351" y="0" type="line"/>
      <point x="536" y="516" type="line"/>
      <point x="457" y="516" type="line"/>
      <point x="383" y="300" type="line"/>
      <point x="303" y="67" type="line"/>
      <point x="299" y="67" type="line"/>
      <point x="219" y="300" type="line"/>
      <point x="145" y="516" type="line"/>
      <point x="64" y="516" type="line"/>
      <point x="249" y="0" type="line"/>
    </contour>
  </outline>
</glyph>
<glyph name="w" format="2">
  <advance width="600"/>
  <unicode hex="0077"/>
  <anchor x="300.0" y="0.0" name="bottom"/>
  <anchor x="300.0" y="516.0" name="top"/>
  <outline>
    <contour>
      <point x="109" y="0" type="line"/>
      <point x="213" y="0" type="line"/>
      <point x="297" y="432" type="line"/>
      <point x="305" y="432" type="line"/>
      <point x="387" y="0" type="line"/>
      <point x="491" y="0" type="line"/>
      <point x="570" y="516" type="line"/>
      <point x="501" y="516" type="line"/>
      <point x="442" y="70" type="line"/>
      <point x="433" y="70" type="line"/>
      <point x="345" y="516" type="line"/>
      <point x="257" y="516" type="line"/>
      <point x="169" y="70" type="line"/>
      <point x="160" y="70" type="line"/>
      <point x="101" y="516" type="line"/>
      <point x="30" y="516" type="line"/>
    </contour>
  </outline>
</glyph>
<glyph name="y" format="2">
  <advance width="600"/>
  <unicode hex="0079"/>
  <anchor x="460.0" y="0.0" name="bottom"/>
  <anchor x="300.0" y="516.0" name="top"/>
  <outline>
    <contour>
      <point x="380" y="300" type="line"/>
      <point x="303" y="104" type="line"/>
      <point x="299" y="104" type="line"/>
      <point x="222" y="300" type="line"/>
      <point x="135" y="516" type="line"/>
      <point x="53" y="516" type="line"/>
      <point x="261" y="10" type="line"/>
      <point x="203" y="-132" type="line"/>
      <point x="83" y="-132" type="line"/>
      <point x="83" y="-200" type="line"/>
      <point x="159" y="-200" type="line" smooth="yes"/>
      <point x="237" y="-200"/>
      <point x="267" y="-172"/>
      <point x="291" y="-113" type="curve" smooth="yes"/>
      <point x="547" y="516" type="line"/>
      <point x="467" y="516" type="line"/>
    </contour>
  </outline>
</glyph>
<glyph name="z" format="2">
  <advance width="600"/>
  <unicode hex="007A"/>
  <anchor x="300.0" y="0.0" name="bottom"/>
  <anchor x="300.0" y="516.0" name="top"/>
  <outline>
    <contour>
      <point x="515" y="0" type="line"/>
      <point x="515" y="68" type="line"/>
      <point x="172" y="68" type="line"/>
      <point x="505" y="439" type="line"/>
      <point x="505" y="516" type="line"/>
      <point x="96" y="516" type="line"/>
      <point x="96" y="448" type="line"/>
      <point x="418" y="448" type="line"/>
      <point x="85" y="77" type="line"/>
      <point x="85" y="0" type="line"/>
    </contour>
  </outline>
</glyph>
<glyph name="sterling" format="2">
  <advance width="600"/>
  <unicode hex="00A3"/>
  <outline>
    <contour>
      <point x="538" y="0" type="line"/>
      <point x="538" y="80" type="line"/>
      <point x="154" y="80" type="line"/>
      <point x="154" y="85" type="line"/>
      <point x="192" y="110"/>
      <point x="236" y="165"/>
      <point x="236" y="247" type="curve" smooth="yes"/>
      <point x="236" y="261"/>
      <point x="235" y="273"/>
      <point x="233" y="286" type="curve"/>
      <point x="415" y="286" type="line"/>
      <point x="415" y="355" type="line"/>
      <point x="214" y="355" type="line"/>
      <point x="200" y="397"/>
      <point x="184" y="440"/>
      <point x="184" y="494" type="curve" smooth="yes"/>
      <point x="184" y="596"/>
      <point x="240" y="637"/>
      <point x="327" y="637" type="curve" smooth="yes"/>
      <point x="403" y="637"/>
      <point x="450" y="605"/>
      <point x="487" y="551" type="curve"/>
      <point x="550" y="596" type="line"/>
      <point x="506" y="664"/>
      <point x="438" y="710"/>
      <point x="332" y="710" type="curve" smooth="yes"/>
      <point x="187" y="710"/>
      <point x="98" y="623"/>
      <point x="98" y="499" type="curve" smooth="yes"/>
      <point x="98" y="444"/>
      <point x="115" y="400"/>
      <point x="130" y="355" type="curve"/>
      <point x="52" y="355" type="line"/>
      <point x="52" y="286" type="line"/>
      <point x="149" y="286" type="line"/>
      <point x="152" y="270"/>
      <point x="154" y="254"/>
      <point x="154" y="237" type="curve" smooth="yes"/>
      <point x="154" y="175"/>
      <point x="131" y="128"/>
      <point x="75" y="105" type="curve"/>
      <point x="75" y="0" type="line"/>
    </contour>
  </outline>
</glyph>
<glyph name="currency" format="2">
  <advance width="600"/>
  <unicode hex="00A4"/>
  <guideline x="0.0" y="119.0" angle="0.0" identifier="6GPH0ucnhm"/>
  <guideline x="96.0" y="0.0" angle="90.0" identifier="pLUy36N6TU"/>
  <outline>
    <contour>
      <point x="300" y="119" type="curve" smooth="yes"/>
      <point x="335" y="119"/>
      <point x="367" y="126"/>
      <point x="394" y="139" type="curve"/>
      <point x="463" y="21" type="line"/>
      <point x="524" y="56" type="line"/>
      <point x="450" y="182" type="line"/>
      <point x="485" y="222"/>
      <point x="504" y="279"/>
      <point x="504" y="349" type="curve" smooth="yes"/>
      <point x="504" y="418"/>
      <point x="485" y="476"/>
      <point x="450" y="516" type="curve"/>
      <point x="524" y="642" type="line"/>
      <point x="463" y="677" type="line"/>
      <point x="394" y="559" type="line"/>
      <point x="367" y="572"/>
      <point x="335" y="579"/>
      <point x="300" y="579" type="curve" smooth="yes"/>
      <point x="265" y="579"/>
      <point x="233" y="572"/>
      <point x="206" y="559" type="curve"/>
      <point x="137" y="677" type="line"/>
      <point x="76" y="642" type="line"/>
      <point x="150" y="516" type="line"/>
      <point x="115" y="476"/>
      <point x="96" y="418"/>
      <point x="96" y="349" type="curve" smooth="yes"/>
      <point x="96" y="279"/>
      <point x="115" y="222"/>
      <point x="150" y="182" type="curve"/>
      <point x="76" y="56" type="line"/>
      <point x="137" y="21" type="line"/>
      <point x="206" y="139" type="line"/>
      <point x="233" y="126"/>
      <point x="265" y="119"/>
    </contour>
    <contour>
      <point x="300" y="186" type="curve" smooth="yes"/>
      <point x="229" y="186"/>
      <point x="181" y="229"/>
      <point x="181" y="317" type="curve" smooth="yes"/>
      <point x="181" y="381" type="line" smooth="yes"/>
      <point x="181" y="469"/>
      <point x="229" y="512"/>
      <point x="300" y="512" type="curve" smooth="yes"/>
      <point x="371" y="512"/>
      <point x="419" y="469"/>
      <point x="419" y="381" type="curve" smooth="yes"/>
      <point x="419" y="317" type="line" smooth="yes"/>
      <point x="419" y="229"/>
      <point x="371" y="186"/>
    </contour>
  </outline>
</glyph>
<glyph name="yen" format="2">
  <advance width="600"/>
  <unicode hex="00A5"/>
  <outline>
    <contour>
      <point x="75" y="0" type="line"/>
      <point x="525" y="0" type="line"/>
      <point x="525" y="69" type="line"/>
      <point x="340" y="69" type="line"/>
      <point x="340" y="255" type="line"/>
      <point x="525" y="255" type="line"/>
      <point x="525" y="324" type="line"/>
      <point x="384" y="324" type="line"/>
      <point x="578" y="698" type="line"/>
      <point x="487" y="698" type="line"/>
      <point x="303" y="324" type="line"/>
      <point x="299" y="324" type="line"/>
      <point x="115" y="698" type="line"/>
      <point x="22" y="698" type="line"/>
      <point x="216" y="324" type="line"/>
      <point x="75" y="324" type="line"/>
      <point x="75" y="255" type="line"/>
      <point x="260" y="255" type="line"/>
      <point x="260" y="69" type="line"/>
      <point x="75" y="69" type="line"/>
    </contour>
  </outline>
</glyph>
<glyph name="dieresis" format="2">
  <advance width="600"/>
  <unicode hex="00A8"/>
  <anchor x="300.0" y="516.0" name="_top"/>
  <outline>
    <contour>
      <point x="207" y="618" type="curve" smooth="yes"/>
      <point x="248" y="618"/>
      <point x="264" y="638"/>
      <point x="264" y="664" type="curve" smooth="yes"/>
      <point x="264" y="678" type="line" smooth="yes"/>
      <point x="264" y="704"/>
      <point x="248" y="724"/>
      <point x="207" y="724" type="curve" smooth="yes"/>
      <point x="166" y="724"/>
      <point x="150" y="704"/>
      <point x="150" y="678" type="curve" smooth="yes"/>
      <point x="150" y="664" type="line" smooth="yes"/>
      <point x="150" y="638"/>
      <point x="166" y="618"/>
    </contour>
    <contour>
      <point x="393" y="618" type="curve" smooth="yes"/>
      <point x="434" y="618"/>
      <point x="450" y="638"/>
      <point x="450" y="664" type="curve" smooth="yes"/>
      <point x="450" y="678" type="line" smooth="yes"/>
      <point x="450" y="704"/>
      <point x="434" y="724"/>
      <point x="393" y="724" type="curve" smooth="yes"/>
      <point x="352" y="724"/>
      <point x="336" y="704"/>
      <point x="336" y="678" type="curve" smooth="yes"/>
      <point x="336" y="664" type="line" smooth="yes"/>
      <point x="336" y="638"/>
      <point x="352" y="618"/>
    </contour>
  </outline>
</glyph>
<glyph name="ordfeminine" format="2">
  <advance width="600"/>
  <unicode hex="00AA"/>
  <outline>
    <contour>
      <point x="463" y="357" type="line"/>
      <point x="463" y="413" type="line"/>
      <point x="425" y="413" type="line"/>
      <point x="425" y="583" type="line" smooth="yes"/>
      <point x="425" y="664"/>
      <point x="373" y="710"/>
      <point x="288" y="710" type="curve" smooth="yes"/>
      <point x="214" y="710"/>
      <point x="170" y="674"/>
      <point x="150" y="640" type="curve"/>
      <point x="192" y="606" type="line"/>
      <point x="207" y="636"/>
      <point x="239" y="658"/>
      <point x="285" y="658" type="curve" smooth="yes"/>
      <point x="335" y="658"/>
      <point x="362" y="633"/>
      <point x="362" y="580" type="curve" smooth="yes"/>
      <point x="362" y="552" type="line"/>
      <point x="289" y="552" type="line" smooth="yes"/>
      <point x="193" y="552"/>
      <point x="138" y="519"/>
      <point x="138" y="448" type="curve" smooth="yes"/>
      <point x="138" y="389"/>
      <point x="177" y="349"/>
      <point x="249" y="349" type="curve" smooth="yes"/>
      <point x="311" y="349"/>
      <point x="347" y="379"/>
      <point x="362" y="410" type="curve"/>
      <point x="366" y="410" type="line"/>
      <point x="368" y="377"/>
      <point x="385" y="357"/>
      <point x="429" y="357" type="curve" smooth="yes"/>
    </contour>
    <contour>
      <point x="362" y="506" type="line"/>
      <point x="362" y="465" type="line" smooth="yes"/>
      <point x="362" y="425"/>
      <point x="315" y="400"/>
      <point x="262" y="400" type="curve" smooth="yes"/>
      <point x="222" y="400"/>
      <point x="201" y="415"/>
      <point x="201" y="449" type="curve" smooth="yes"/>
      <point x="201" y="459" type="line" smooth="yes"/>
      <point x="201" y="490"/>
      <point x="232" y="506"/>
      <point x="287" y="506" type="curve" smooth="yes"/>
    </contour>
  </outline>
</glyph>
<glyph name="logicalnot" format="2">
  <advance width="600"/>
  <unicode hex="00AC"/>
  <outline>
    <contour>
      <point x="522" y="78" type="line"/>
      <point x="522" y="339" type="line"/>
      <point x="62" y="339" type="line"/>
      <point x="62" y="271" type="line"/>
      <point x="453" y="271" type="line"/>
      <point x="453" y="78" type="line"/>
    </contour>
  </outline>
</glyph>
<glyph name="macron" format="2">
  <advance width="600"/>
  <unicode hex="00AF"/>
  <anchor x="300.0" y="516.0" name="_top"/>
  <outline>
    <contour>
      <point x="160" y="637" type="line"/>
      <point x="440" y="637" type="line"/>
      <point x="440" y="705" type="line"/>
      <point x="160" y="705" type="line"/>
    </contour>
  </outline>
</glyph>
<glyph name="degree" format="2">
  <advance width="600"/>
  <unicode hex="00B0"/>
  <outline>
    <contour>
      <point x="300" y="368" type="curve" smooth="yes"/>
      <point x="396" y="368"/>
      <point x="471" y="442"/>
      <point x="471" y="539" type="curve" smooth="yes"/>
      <point x="471" y="636"/>
      <point x="396" y="710"/>
      <point x="300" y="710" type="curve" smooth="yes"/>
      <point x="204" y="710"/>
      <point x="129" y="636"/>
      <point x="129" y="539" type="curve" smooth="yes"/>
      <point x="129" y="442"/>
      <point x="204" y="368"/>
    </contour>
    <contour>
      <point x="300" y="432" type="curve" smooth="yes"/>
      <point x="239" y="432"/>
      <point x="199" y="479"/>
      <point x="199" y="539" type="curve" smooth="yes"/>
      <point x="199" y="599"/>
      <point x="239" y="646"/>
      <point x="300" y="646" type="curve" smooth="yes"/>
      <point x="361" y="646"/>
      <point x="401" y="599"/>
      <point x="401" y="539" type="curve" smooth="yes"/>
      <point x="401" y="479"/>
      <point x="361" y="432"/>
    </contour>
  </outline>
</glyph>
<glyph name="plusminus" format="2">
  <advance width="600"/>
  <unicode hex="00B1"/>
  <outline>
    <contour>
      <point x="338" y="152" type="line"/>
      <point x="338" y="351" type="line"/>
      <point x="538" y="351" type="line"/>
      <point x="538" y="419" type="line"/>
      <point x="338" y="419" type="line"/>
      <point x="338" y="618" type="line"/>
      <point x="262" y="618" type="line"/>
      <point x="262" y="419" type="line"/>
      <point x="62" y="419" type="line"/>
      <point x="62" y="351" type="line"/>
      <point x="262" y="351" type="line"/>
      <point x="262" y="152" type="line"/>
    </contour>
    <contour>
      <point x="538" y="0" type="line"/>
      <point x="538" y="68" type="line"/>
      <point x="62" y="68" type="line"/>
      <point x="62" y="0" type="line"/>
    </contour>
  </outline>
</glyph>
<glyph name="twosuperior" format="2">
  <advance width="600"/>
  <unicode hex="00B2"/>
  <outline>
    <contour>
      <point x="438" y="379" type="line"/>
      <point x="233" y="379" type="line"/>
      <point x="330" y="454" type="line" smooth="yes"/>
      <point x="386" y="497"/>
      <point x="425" y="537"/>
      <point x="425" y="595" type="curve" smooth="yes"/>
      <point x="425" y="659"/>
      <point x="379" y="704"/>
      <point x="297" y="704" type="curve" smooth="yes"/>
      <point x="217" y="704"/>
      <point x="177" y="661"/>
      <point x="161" y="614" type="curve"/>
      <point x="215" y="594" type="line"/>
      <point x="226" y="626"/>
      <point x="247" y="652"/>
      <point x="293" y="652" type="curve" smooth="yes"/>
      <point x="335" y="652"/>
      <point x="358" y="629"/>
      <point x="358" y="595" type="curve" smooth="yes"/>
      <point x="358" y="589" type="line" smooth="yes"/>
      <point x="358" y="553"/>
      <point x="335" y="523"/>
      <point x="296" y="491" type="curve" smooth="yes"/>
      <point x="166" y="386" type="line"/>
      <point x="166" y="329" type="line"/>
      <point x="438" y="329" type="line"/>
    </contour>
  </outline>
</glyph>
<glyph name="mu" format="2">
  <advance width="600"/>
  <unicode hex="00B5"/>
  <outline>
    <contour>
      <point x="178" y="-200" type="line"/>
      <point x="178" y="-44" type="line"/>
      <point x="171" y="40" type="line"/>
      <point x="175" y="40" type="line"/>
      <point x="194" y="5"/>
      <point x="227" y="-12"/>
      <point x="278" y="-12" type="curve" smooth="yes"/>
      <point x="358" y="-12"/>
      <point x="395" y="31"/>
      <point x="418" y="84" type="curve"/>
      <point x="422" y="84" type="line"/>
      <point x="422" y="0" type="line"/>
      <point x="502" y="0" type="line"/>
      <point x="502" y="516" type="line"/>
      <point x="422" y="516" type="line"/>
      <point x="422" y="158" type="line" smooth="yes"/>
      <point x="422" y="90"/>
      <point x="361" y="59"/>
      <point x="297" y="59" type="curve" smooth="yes"/>
      <point x="219" y="59"/>
      <point x="178" y="105"/>
      <point x="178" y="199" type="curve" smooth="yes"/>
      <point x="178" y="516" type="line"/>
      <point x="98" y="516" type="line"/>
      <point x="98" y="-200" type="line"/>
    </contour>
  </outline>
</glyph>
<glyph name="paragraph" format="2">
  <advance width="600"/>
  <unicode hex="00B6"/>
  <outline>
    <contour>
      <point x="270" y="-149" type="line"/>
      <point x="342" y="-149" type="line"/>
      <point x="342" y="634" type="line"/>
      <point x="432" y="634" type="line"/>
      <point x="432" y="-149" type="line"/>
      <point x="504" y="-149" type="line"/>
      <point x="504" y="698" type="line"/>
      <point x="270" y="698" type="line" smooth="yes"/>
      <point x="146" y="698"/>
      <point x="45" y="603"/>
      <point x="45" y="472" type="curve" smooth="yes"/>
      <point x="45" y="341"/>
      <point x="146" y="246"/>
      <point x="270" y="246" type="curve"/>
    </contour>
  </outline>
</glyph>
<glyph name="periodcentered" format="2">
  <advance width="600"/>
  <unicode hex="00B7"/>
  <outline>
    <contour>
      <point x="300" y="235" type="curve" smooth="yes"/>
      <point x="354" y="235"/>
      <point x="374" y="261"/>
      <point x="374" y="295" type="curve" smooth="yes"/>
      <point x="374" y="313" type="line" smooth="yes"/>
      <point x="374" y="347"/>
      <point x="354" y="373"/>
      <point x="300" y="373" type="curve" smooth="yes"/>
      <point x="246" y="373"/>
      <point x="226" y="347"/>
      <point x="226" y="313" type="curve" smooth="yes"/>
      <point x="226" y="295" type="line" smooth="yes"/>
      <point x="226" y="261"/>
      <point x="246" y="235"/>
    </contour>
  </outline>
</glyph>
<glyph name="onesuperior" format="2">
  <advance width="600"/>
  <unicode hex="00B9"/>
  <guideline x="176.0" y="0.0" angle="90.0" identifier="HUKMJlPUyP"/>
  <outline>
    <contour>
      <point x="446" y="329" type="line"/>
      <point x="446" y="379" type="line"/>
      <point x="348" y="379" type="line"/>
      <point x="348" y="698" type="line"/>
      <point x="255" y="698" type="line"/>
      <point x="153" y="595" type="line"/>
      <point x="189" y="558" type="line"/>
      <point x="279" y="647" type="line"/>
      <point x="285" y="647" type="line"/>
      <point x="285" y="379" type="line"/>
      <point x="176" y="379" type="line"/>
      <point x="176" y="329" type="line"/>
    </contour>
  </outline>
</glyph>
<glyph name="ordmasculine" format="2">
  <advance width="600"/>
  <unicode hex="00BA"/>
  <outline>
    <contour>
      <point x="300" y="349" type="curve" smooth="yes"/>
      <point x="400" y="349"/>
      <point x="460" y="418"/>
      <point x="460" y="530" type="curve" smooth="yes"/>
      <point x="460" y="641"/>
      <point x="400" y="710"/>
      <point x="300" y="710" type="curve" smooth="yes"/>
      <point x="200" y="710"/>
      <point x="140" y="641"/>
      <point x="140" y="530" type="curve"/>
      <point x="140" y="418"/>
      <point x="199" y="349"/>
    </contour>
    <contour>
      <point x="300" y="402" type="curve" smooth="yes"/>
      <point x="240" y="402"/>
      <point x="209" y="443"/>
      <point x="209" y="500" type="curve" smooth="yes"/>
      <point x="209" y="559" type="line" smooth="yes"/>
      <point x="209" y="616"/>
      <point x="240" y="657"/>
      <point x="300" y="657" type="curve" smooth="yes"/>
      <point x="360" y="657"/>
      <point x="391" y="616"/>
      <point x="391" y="559" type="curve" smooth="yes"/>
      <point x="391" y="500" type="line" smooth="yes"/>
      <point x="391" y="443"/>
      <point x="360" y="402"/>
    </contour>
  </outline>
</glyph>
<glyph name="questiondown" format="2">
  <advance width="600"/>
  <unicode hex="00BF"/>
  <outline>
    <contour>
      <point x="299" y="-194" type="curve" smooth="yes"/>
      <point x="427" y="-194"/>
      <point x="497" y="-120"/>
      <point x="523" y="-32" type="curve"/>
      <point x="448" y="-4" type="line"/>
      <point x="430" y="-71"/>
      <point x="382" y="-121"/>
      <point x="302" y="-121" type="curve" smooth="yes"/>
      <point x="225" y="-121"/>
      <point x="177" y="-83"/>
      <point x="177" y="-9" type="curve" smooth="yes"/>
      <point x="177" y="5" type="line" smooth="yes"/>
      <point x="177" y="95"/>
      <point x="247" y="139"/>
      <point x="361" y="144" type="curve"/>
      <point x="361" y="301" type="line"/>
      <point x="282" y="301" type="line"/>
      <point x="282" y="200" type="line"/>
      <point x="188" y="183"/>
      <point x="90" y="121"/>
      <point x="90" y="-5" type="curve" smooth="yes"/>
      <point x="90" y="-120"/>
      <point x="172" y="-194"/>
    </contour>
    <contour>
      <point x="318" y="387" type="curve" smooth="yes"/>
      <point x="372" y="387"/>
      <point x="392" y="413"/>
      <point x="392" y="447" type="curve" smooth="yes"/>
      <point x="392" y="465" type="line" smooth="yes"/>
      <point x="392" y="499"/>
      <point x="372" y="525"/>
      <point x="318" y="525" type="curve" smooth="yes"/>
      <point x="264" y="525"/>
      <point x="244" y="499"/>
      <point x="244" y="465" type="curve" smooth="yes"/>
      <point x="244" y="447" type="line" smooth="yes"/>
      <point x="244" y="413"/>
      <point x="264" y="387"/>
    </contour>
  </outline>
</glyph>
<glyph name="AE" format="2">
  <advance width="600"/>
  <unicode hex="00C6"/>
  <anchor x="393.0" y="698.0" name="top"/>
  <outline>
    <contour>
      <point x="312" y="0" type="line"/>
      <point x="560" y="0" type="line"/>
      <point x="560" y="69" type="line"/>
      <point x="392" y="69" type="line"/>
      <point x="392" y="319" type="line"/>
      <point x="548" y="319" type="line"/>
      <point x="548" y="388" type="line"/>
      <point x="392" y="388" type="line"/>
      <point x="392" y="629" type="line"/>
      <point x="560" y="629" type="line"/>
      <point x="560" y="698" type="line"/>
      <point x="226" y="698" type="line"/>
      <point x="20" y="0" type="line"/>
      <point x="104" y="0" type="line"/>
      <point x="160" y="201" type="line"/>
      <point x="312" y="201" type="line"/>
    </contour>
    <contour>
      <point x="312" y="638" type="line"/>
      <point x="312" y="270" type="line"/>
      <point x="178" y="270" type="line"/>
      <point x="281" y="638" type="line"/>
    </contour>
  </outline>
</glyph>
<glyph name="multiply" format="2">
  <advance width="600"/>
  <unicode hex="00D7"/>
  <outline>
    <contour>
      <point x="463" y="93" type="line"/>
      <point x="512" y="142" type="line"/>
      <point x="349" y="305" type="line"/>
      <point x="512" y="468" type="line"/>
      <point x="463" y="517" type="line"/>
      <point x="300" y="354" type="line"/>
      <point x="137" y="517" type="line"/>
      <point x="88" y="468" type="line"/>
      <point x="251" y="305" type="line"/>
      <point x="88" y="142" type="line"/>
      <point x="137" y="93" type="line"/>
      <point x="300" y="256" type="line"/>
    </contour>
  </outline>
</glyph>
<glyph name="Thorn" format="2">
  <advance width="600"/>
  <unicode hex="00DE"/>
  <outline>
    <contour>
      <point x="174" y="0" type="line"/>
      <point x="174" y="155" type="line"/>
      <point x="344" y="155" type="line" smooth="yes"/>
      <point x="473" y="155"/>
      <point x="543" y="232"/>
      <point x="543" y="354" type="curve" smooth="yes"/>
      <point x="543" y="476"/>
      <point x="473" y="553"/>
      <point x="344" y="553" type="curve" smooth="yes"/>
      <point x="174" y="553" type="line"/>
      <point x="174" y="698" type="line"/>
      <point x="90" y="698" type="line"/>
      <point x="90" y="0" type="line"/>
    </contour>
    <contour>
      <point x="174" y="480" type="line"/>
      <point x="344" y="480" type="line" smooth="yes"/>
      <point x="414" y="480"/>
      <point x="456" y="444"/>
      <point x="456" y="380" type="curve" smooth="yes"/>
      <point x="456" y="328" type="line" smooth="yes"/>
      <point x="456" y="264"/>
      <point x="414" y="228"/>
      <point x="344" y="228" type="curve" smooth="yes"/>
      <point x="174" y="228" type="line"/>
    </contour>
  </outline>
</glyph>
<glyph name="Aogonek" format="2">
  <advance width="600"/>
  <unicode hex="0104"/>
  <anchor x="300.0" y="0.0" name="bottom"/>
  <anchor x="300.0" y="698.0" name="top"/>
  <outline>
    <contour>
      <point x="31" y="0" type="line"/>
      <point x="118" y="0" type="line"/>
      <point x="177" y="199" type="line"/>
      <point x="422" y="199" type="line"/>
      <point x="481" y="0" type="line"/>
      <point x="503" y="0" type="line"/>
      <point x="504" y="-3" type="line"/>
      <point x="429" y="-39"/>
      <point x="389" y="-79"/>
      <point x="389" y="-127" type="curve" smooth="yes"/>
      <point x="389" y="-180"/>
      <point x="437" y="-207"/>
      <point x="498" y="-207" type="curve" smooth="yes"/>
      <point x="548" y="-207"/>
      <point x="578" y="-188"/>
      <point x="591" y="-166" type="curve"/>
      <point x="551" y="-125" type="line"/>
      <point x="538" y="-141"/>
      <point x="521" y="-151"/>
      <point x="499" y="-151" type="curve" smooth="yes"/>
      <point x="478" y="-151"/>
      <point x="457" y="-142"/>
      <point x="457" y="-114" type="curve" smooth="yes"/>
      <point x="457" y="-94"/>
      <point x="467" y="-65"/>
      <point x="570" y="0" type="curve"/>
      <point x="356" y="698" type="line"/>
      <point x="245" y="698" type="line"/>
    </contour>
    <contour>
      <point x="402" y="272" type="line"/>
      <point x="197" y="272" type="line"/>
      <point x="295" y="609" type="line"/>
      <point x="304" y="609" type="line"/>
    </contour>
  </outline>
</glyph>
<glyph name="aogonek" format="2">
  <advance width="600"/>
  <unicode hex="0105"/>
  <anchor x="283.0" y="0.0" name="bottom"/>
  <anchor x="283.0" y="516.0" name="top"/>
  <outline>
    <contour>
      <point x="550" y="70" type="line"/>
      <point x="478" y="70" type="line"/>
      <point x="478" y="354" type="line" smooth="yes"/>
      <point x="478" y="463"/>
      <point x="401" y="528"/>
      <point x="280" y="528" type="curve" smooth="yes"/>
      <point x="175" y="528"/>
      <point x="109" y="478"/>
      <point x="83" y="424" type="curve"/>
      <point x="137" y="384" type="line"/>
      <point x="164" y="431"/>
      <point x="206" y="460"/>
      <point x="274" y="460" type="curve" smooth="yes"/>
      <point x="353" y="460"/>
      <point x="398" y="421"/>
      <point x="398" y="346" type="curve" smooth="yes"/>
      <point x="398" y="295" type="line"/>
      <point x="288" y="295" type="line" smooth="yes"/>
      <point x="133" y="295"/>
      <point x="66" y="240"/>
      <point x="66" y="145" type="curve" smooth="yes"/>
      <point x="66" y="48"/>
      <point x="135" y="-12"/>
      <point x="243" y="-12" type="curve"/>
      <point x="327" y="-12"/>
      <point x="376" y="25"/>
      <point x="398" y="84" type="curve"/>
      <point x="403" y="84" type="line"/>
      <point x="407" y="37"/>
      <point x="434" y="4"/>
      <point x="483" y="0" type="curve"/>
      <point x="484" y="-3" type="line"/>
      <point x="409" y="-39"/>
      <point x="369" y="-79"/>
      <point x="369" y="-127" type="curve" smooth="yes"/>
      <point x="369" y="-180"/>
      <point x="417" y="-207"/>
      <point x="478" y="-207" type="curve" smooth="yes"/>
      <point x="528" y="-207"/>
      <point x="558" y="-188"/>
      <point x="571" y="-166" type="curve"/>
      <point x="531" y="-125" type="line"/>
      <point x="518" y="-141"/>
      <point x="501" y="-151"/>
      <point x="479" y="-151" type="curve" smooth="yes"/>
      <point x="458" y="-151"/>
      <point x="437" y="-142"/>
      <point x="437" y="-114" type="curve" smooth="yes"/>
      <point x="437" y="-94"/>
      <point x="447" y="-65"/>
      <point x="550" y="0" type="curve"/>
    </contour>
    <contour>
      <point x="398" y="235" type="line"/>
      <point x="398" y="150" type="line" smooth="yes"/>
      <point x="398" y="97"/>
      <point x="339" y="55"/>
      <point x="257" y="55" type="curve" smooth="yes"/>
      <point x="191" y="55"/>
      <point x="150" y="83"/>
      <point x="150" y="136" type="curve" smooth="yes"/>
      <point x="150" y="157" type="line" smooth="yes"/>
      <point x="150" y="207"/>
      <point x="193" y="235"/>
      <point x="288" y="235" type="curve" smooth="yes"/>
    </contour>
  </outline>
</glyph>
<glyph name="Dcroat" format="2">
  <advance width="600"/>
  <unicode hex="0110"/>
  <outline>
    <contour>
      <point x="102" y="0" type="line"/>
      <point x="290" y="0" type="line" smooth="yes"/>
      <point x="460" y="0"/>
      <point x="544" y="120"/>
      <point x="544" y="349" type="curve" smooth="yes"/>
      <point x="544" y="578"/>
      <point x="460" y="698"/>
      <point x="290" y="698" type="curve" smooth="yes"/>
      <point x="102" y="698" type="line"/>
      <point x="102" y="400" type="line"/>
      <point x="22" y="400" type="line"/>
      <point x="22" y="336" type="line"/>
      <point x="102" y="336" type="line"/>
    </contour>
    <contour>
      <point x="186" y="73" type="line"/>
      <point x="186" y="336" type="line"/>
      <point x="327" y="336" type="line"/>
      <point x="327" y="400" type="line"/>
      <point x="186" y="400" type="line"/>
      <point x="186" y="625" type="line"/>
      <point x="286" y="625" type="line" smooth="yes"/>
      <point x="397" y="625"/>
      <point x="455" y="543"/>
      <point x="455" y="403" type="curve" smooth="yes"/>
      <point x="455" y="295" type="line" smooth="yes"/>
      <point x="455" y="155"/>
      <point x="397" y="73"/>
      <point x="286" y="73" type="curve" smooth="yes"/>
    </contour>
  </outline>
</glyph>
<glyph name="dcroat" format="2">
  <advance width="600"/>
  <unicode hex="0111"/>
  <outline>
    <contour>
      <point x="425" y="0" type="line"/>
      <point x="505" y="0" type="line"/>
      <point x="505" y="608" type="line"/>
      <point x="570" y="608" type="line"/>
      <point x="570" y="670" type="line"/>
      <point x="505" y="670" type="line"/>
      <point x="505" y="740" type="line"/>
      <point x="425" y="740" type="line"/>
      <point x="425" y="670" type="line"/>
      <point x="272" y="670" type="line"/>
      <point x="272" y="608" type="line"/>
      <point x="425" y="608" type="line"/>
      <point x="425" y="432" type="line"/>
      <point x="421" y="432" type="line"/>
      <point x="388" y="495"/>
      <point x="334" y="528"/>
      <point x="262" y="528" type="curve" smooth="yes"/>
      <point x="136" y="528"/>
      <point x="60" y="427"/>
      <point x="60" y="258" type="curve" smooth="yes"/>
      <point x="60" y="89"/>
      <point x="136" y="-12"/>
      <point x="262" y="-12" type="curve" smooth="yes"/>
      <point x="334" y="-12"/>
      <point x="388" y="21"/>
      <point x="421" y="84" type="curve"/>
      <point x="425" y="84" type="line"/>
    </contour>
    <contour>
      <point x="293" y="59" type="curve" smooth="yes"/>
      <point x="200" y="59"/>
      <point x="146" y="121"/>
      <point x="146" y="214" type="curve" smooth="yes"/>
      <point x="146" y="302" type="line" smooth="yes"/>
      <point x="146" y="395"/>
      <point x="200" y="457"/>
      <point x="293" y="457" type="curve" smooth="yes"/>
      <point x="364" y="457"/>
      <point x="425" y="420"/>
      <point x="425" y="351" type="curve" smooth="yes"/>
      <point x="425" y="165" type="line" smooth="yes"/>
      <point x="425" y="96"/>
      <point x="364" y="59"/>
    </contour>
  </outline>
</glyph>
<glyph name="Eogonek" format="2">
  <advance width="600"/>
  <unicode hex="0118"/>
  <anchor x="305.0" y="0.0" name="bottom"/>
  <anchor x="305.0" y="698.0" name="top"/>
  <outline>
    <contour>
      <point x="90" y="0" type="line"/>
      <point x="453" y="0" type="line"/>
      <point x="454" y="-3" type="line"/>
      <point x="379" y="-39"/>
      <point x="339" y="-79"/>
      <point x="339" y="-127" type="curve" smooth="yes"/>
      <point x="339" y="-180"/>
      <point x="387" y="-207"/>
      <point x="448" y="-207" type="curve" smooth="yes"/>
      <point x="498" y="-207"/>
      <point x="528" y="-188"/>
      <point x="541" y="-166" type="curve"/>
      <point x="501" y="-125" type="line"/>
      <point x="488" y="-141"/>
      <point x="471" y="-151"/>
      <point x="449" y="-151" type="curve" smooth="yes"/>
      <point x="428" y="-151"/>
      <point x="407" y="-142"/>
      <point x="407" y="-114" type="curve" smooth="yes"/>
      <point x="407" y="-94"/>
      <point x="417" y="-65"/>
      <point x="520" y="0" type="curve"/>
      <point x="520" y="73" type="line"/>
      <point x="174" y="73" type="line"/>
      <point x="174" y="317" type="line"/>
      <point x="508" y="317" type="line"/>
      <point x="508" y="390" type="line"/>
      <point x="174" y="390" type="line"/>
      <point x="174" y="625" type="line"/>
      <point x="520" y="625" type="line"/>
      <point x="520" y="698" type="line"/>
      <point x="90" y="698" type="line"/>
    </contour>
  </outline>
</glyph>
<glyph name="eogonek" format="2">
  <advance width="600"/>
  <unicode hex="0119"/>
  <anchor x="309.0" y="0.0" name="bottom"/>
  <anchor x="302.0" y="516.0" name="top"/>
  <outline>
    <contour>
      <point x="361" y="-207" type="curve" smooth="yes"/>
      <point x="411" y="-207"/>
      <point x="441" y="-188"/>
      <point x="454" y="-166" type="curve"/>
      <point x="414" y="-125" type="line"/>
      <point x="401" y="-141"/>
      <point x="384" y="-151"/>
      <point x="362" y="-151" type="curve" smooth="yes"/>
      <point x="341" y="-151"/>
      <point x="320" y="-142"/>
      <point x="320" y="-114" type="curve" smooth="yes"/>
      <point x="320" y="-85"/>
      <point x="343" y="-63"/>
      <point x="405" y="-12" type="curve" smooth="yes"/>
      <point x="447" y="22"/>
      <point x="497" y="65"/>
      <point x="516" y="107" type="curve"/>
      <point x="457" y="147" type="line"/>
      <point x="430" y="91"/>
      <point x="378" y="57"/>
      <point x="309" y="57" type="curve" smooth="yes"/>
      <point x="212" y="57"/>
      <point x="151" y="123"/>
      <point x="151" y="214" type="curve" smooth="yes"/>
      <point x="151" y="238" type="line"/>
      <point x="533" y="238" type="line"/>
      <point x="533" y="276" type="line" smooth="yes"/>
      <point x="533" y="422"/>
      <point x="443" y="528"/>
      <point x="304" y="528" type="curve" smooth="yes"/>
      <point x="164" y="528"/>
      <point x="67" y="421"/>
      <point x="67" y="258" type="curve" smooth="yes"/>
      <point x="67" y="94"/>
      <point x="164" y="-12"/>
      <point x="302" y="-12" type="curve" smooth="yes"/>
      <point x="329" y="-12"/>
      <point x="350" y="-8"/>
      <point x="363" y="-3" type="curve"/>
      <point x="365" y="-6" type="line"/>
      <point x="291" y="-41"/>
      <point x="252" y="-80"/>
      <point x="252" y="-127" type="curve" smooth="yes"/>
      <point x="252" y="-180"/>
      <point x="300" y="-207"/>
    </contour>
    <contour>
      <point x="151" y="298" type="line"/>
      <point x="151" y="305" type="line" smooth="yes"/>
      <point x="151" y="395"/>
      <point x="216" y="462"/>
      <point x="304" y="462" type="curve" smooth="yes"/>
      <point x="389" y="462"/>
      <point x="447" y="400"/>
      <point x="447" y="309" type="curve" smooth="yes"/>
      <point x="447" y="298" type="line"/>
    </contour>
  </outline>
</glyph>
<glyph name="Hbar" format="2">
  <advance width="600"/>
  <unicode hex="0126"/>
  <outline>
    <contour>
      <point x="436" y="0" type="line"/>
      <point x="520" y="0" type="line"/>
      <point x="520" y="518" type="line"/>
      <point x="590" y="518" type="line"/>
      <point x="590" y="582" type="line"/>
      <point x="520" y="582" type="line"/>
      <point x="520" y="698" type="line"/>
      <point x="436" y="698" type="line"/>
      <point x="436" y="582" type="line"/>
      <point x="164" y="582" type="line"/>
      <point x="164" y="698" type="line"/>
      <point x="80" y="698" type="line"/>
      <point x="80" y="582" type="line"/>
      <point x="10" y="582" type="line"/>
      <point x="10" y="518" type="line"/>
      <point x="80" y="518" type="line"/>
      <point x="80" y="0" type="line"/>
      <point x="164" y="0" type="line"/>
      <point x="164" y="317" type="line"/>
      <point x="436" y="317" type="line"/>
    </contour>
    <contour>
      <point x="164" y="390" type="line"/>
      <point x="164" y="518" type="line"/>
      <point x="436" y="518" type="line"/>
      <point x="436" y="390" type="line"/>
    </contour>
  </outline>
</glyph>
<glyph name="Iogonek" format="2">
  <advance width="600"/>
  <unicode hex="012E"/>
  <anchor x="300.0" y="0.0" name="bottom"/>
  <anchor x="300.0" y="698.0" name="top"/>
  <outline>
    <contour>
      <point x="84" y="0" type="line"/>
      <point x="449" y="0" type="line"/>
      <point x="450" y="-3" type="line"/>
      <point x="375" y="-39"/>
      <point x="335" y="-79"/>
      <point x="335" y="-127" type="curve" smooth="yes"/>
      <point x="335" y="-180"/>
      <point x="383" y="-207"/>
      <point x="444" y="-207" type="curve" smooth="yes"/>
      <point x="494" y="-207"/>
      <point x="524" y="-188"/>
      <point x="537" y="-166" type="curve"/>
      <point x="497" y="-125" type="line"/>
      <point x="484" y="-141"/>
      <point x="467" y="-151"/>
      <point x="445" y="-151" type="curve" smooth="yes"/>
      <point x="424" y="-151"/>
      <point x="403" y="-142"/>
      <point x="403" y="-114" type="curve" smooth="yes"/>
      <point x="403" y="-94"/>
      <point x="413" y="-65"/>
      <point x="516" y="0" type="curve"/>
      <point x="516" y="67" type="line"/>
      <point x="342" y="67" type="line"/>
      <point x="342" y="631" type="line"/>
      <point x="516" y="631" type="line"/>
      <point x="516" y="698" type="line"/>
      <point x="84" y="698" type="line"/>
      <point x="84" y="631" type="line"/>
      <point x="258" y="631" type="line"/>
      <point x="258" y="67" type="line"/>
      <point x="84" y="67" type="line"/>
    </contour>
  </outline>
</glyph>
<glyph name="iogonek" format="2">
  <advance width="600"/>
  <unicode hex="012F"/>
  <anchor x="332.0" y="0.0" name="bottom"/>
  <outline>
    <contour>
      <point x="474" y="-207" type="curve" smooth="yes"/>
      <point x="524" y="-207"/>
      <point x="554" y="-188"/>
      <point x="567" y="-166" type="curve"/>
      <point x="527" y="-125" type="line"/>
      <point x="514" y="-141"/>
      <point x="497" y="-151"/>
      <point x="475" y="-151" type="curve" smooth="yes"/>
      <point x="454" y="-151"/>
      <point x="433" y="-142"/>
      <point x="433" y="-114" type="curve" smooth="yes"/>
      <point x="433" y="-94"/>
      <point x="443" y="-65"/>
      <point x="546" y="0" type="curve"/>
      <point x="546" y="68" type="line"/>
      <point x="372" y="68" type="line"/>
      <point x="372" y="516" type="line"/>
      <point x="106" y="516" type="line"/>
      <point x="106" y="448" type="line"/>
      <point x="292" y="448" type="line"/>
      <point x="292" y="68" type="line"/>
      <point x="106" y="68" type="line"/>
      <point x="106" y="0" type="line"/>
      <point x="479" y="0" type="line"/>
      <point x="480" y="-3" type="line"/>
      <point x="405" y="-39"/>
      <point x="365" y="-79"/>
      <point x="365" y="-127" type="curve" smooth="yes"/>
      <point x="365" y="-180"/>
      <point x="413" y="-207"/>
    </contour>
    <contour>
      <point x="332" y="630" type="curve" smooth="yes"/>
      <point x="378" y="630"/>
      <point x="395" y="652"/>
      <point x="395" y="681" type="curve" smooth="yes"/>
      <point x="395" y="697" type="line" smooth="yes"/>
      <point x="395" y="726"/>
      <point x="378" y="748"/>
      <point x="332" y="748" type="curve" smooth="yes"/>
      <point x="286" y="748"/>
      <point x="269" y="726"/>
      <point x="269" y="697" type="curve" smooth="yes"/>
      <point x="269" y="681" type="line" smooth="yes"/>
      <point x="269" y="652"/>
      <point x="286" y="630"/>
    </contour>
  </outline>
</glyph>
<glyph name="dotlessi" format="2">
  <advance width="600"/>
  <unicode hex="0131"/>
  <anchor x="332.0" y="0.0" name="bottom"/>
  <anchor x="546.0" y="0.0" name="bottomright"/>
  <anchor x="332.0" y="516.0" name="top"/>
  <outline>
    <contour>
      <point x="106" y="0" type="line"/>
      <point x="546" y="0" type="line"/>
      <point x="546" y="68" type="line"/>
      <point x="372" y="68" type="line"/>
      <point x="372" y="516" type="line"/>
      <point x="106" y="516" type="line"/>
      <point x="106" y="448" type="line"/>
      <point x="292" y="448" type="line"/>
      <point x="292" y="68" type="line"/>
      <point x="106" y="68" type="line"/>
    </contour>
  </outline>
</glyph>
<glyph name="IJ" format="2">
  <advance width="600"/>
  <unicode hex="0132"/>
  <outline>
    <contour>
      <point x="426" y="698" type="line"/>
      <point x="426" y="206" type="line" smooth="yes"/>
      <point x="426" y="108"/>
      <point x="378" y="62"/>
      <point x="296" y="62" type="curve" smooth="yes"/>
      <point x="209" y="62"/>
      <point x="181" y="114"/>
      <point x="169" y="166" type="curve"/>
      <point x="85" y="145" type="line"/>
      <point x="106" y="45"/>
      <point x="184" y="-12"/>
      <point x="293" y="-12" type="curve" smooth="yes"/>
      <point x="421" y="-12"/>
      <point x="510" y="67"/>
      <point x="510" y="191" type="curve" smooth="yes"/>
      <point x="510" y="698" type="line"/>
    </contour>
    <contour>
      <point x="90" y="290" type="line"/>
      <point x="174" y="290" type="line"/>
      <point x="174" y="698" type="line"/>
      <point x="90" y="698" type="line"/>
    </contour>
  </outline>
</glyph>
<glyph name="ij" format="2">
  <advance width="600"/>
  <unicode hex="0133"/>
  <outline>
    <contour>
      <point x="105" y="0" type="line"/>
      <point x="185" y="0" type="line"/>
      <point x="185" y="516" type="line"/>
      <point x="105" y="516" type="line"/>
    </contour>
    <contour>
      <point x="185" y="-200" type="line"/>
      <point x="381" y="-200" type="line" smooth="yes"/>
      <point x="459" y="-200"/>
      <point x="495" y="-151"/>
      <point x="495" y="-82" type="curve" smooth="yes"/>
      <point x="495" y="516" type="line"/>
      <point x="415" y="516" type="line"/>
      <point x="415" y="-132" type="line"/>
      <point x="185" y="-132" type="line"/>
    </contour>
    <contour>
      <point x="145" y="630" type="curve" smooth="yes"/>
      <point x="191" y="630"/>
      <point x="208" y="652"/>
      <point x="208" y="681" type="curve" smooth="yes"/>
      <point x="208" y="697" type="line" smooth="yes"/>
      <point x="208" y="726"/>
      <point x="191" y="748"/>
      <point x="145" y="748" type="curve" smooth="yes"/>
      <point x="99" y="748"/>
      <point x="82" y="726"/>
      <point x="82" y="697" type="curve" smooth="yes"/>
      <point x="82" y="681" type="line" smooth="yes"/>
      <point x="82" y="652"/>
      <point x="99" y="630"/>
    </contour>
    <contour>
      <point x="455" y="630" type="curve" smooth="yes"/>
      <point x="501" y="630"/>
      <point x="518" y="652"/>
      <point x="518" y="681" type="curve" smooth="yes"/>
      <point x="518" y="697" type="line" smooth="yes"/>
      <point x="518" y="726"/>
      <point x="501" y="748"/>
      <point x="455" y="748" type="curve" smooth="yes"/>
      <point x="409" y="748"/>
      <point x="392" y="726"/>
      <point x="392" y="697" type="curve" smooth="yes"/>
      <point x="392" y="681" type="line" smooth="yes"/>
      <point x="392" y="652"/>
      <point x="409" y="630"/>
    </contour>
  </outline>
</glyph>
<glyph name="kgreenlandic" format="2">
  <advance width="600"/>
  <unicode hex="0138"/>
  <anchor x="323.0" y="0.0" name="bottom"/>
  <outline>
    <contour>
      <point x="479" y="0" type="line"/>
      <point x="578" y="0" type="line"/>
      <point x="339" y="306" type="line"/>
      <point x="553" y="516" type="line"/>
      <point x="455" y="516" type="line"/>
      <point x="285" y="348" type="line"/>
      <point x="190" y="255" type="line"/>
      <point x="186" y="255" type="line"/>
      <point x="186" y="516" type="line"/>
      <point x="106" y="516" type="line"/>
      <point x="106" y="0" type="line"/>
      <point x="186" y="0" type="line"/>
      <point x="186" y="165" type="line"/>
      <point x="283" y="253" type="line"/>
    </contour>
  </outline>
</glyph>
<glyph name="Lslash" format="2">
  <advance width="600"/>
  <unicode hex="0141"/>
  <outline>
    <contour>
      <point x="535" y="73" type="line"/>
      <point x="204" y="73" type="line"/>
      <point x="204" y="295" type="line"/>
      <point x="415" y="364" type="line"/>
      <point x="415" y="433" type="line"/>
      <point x="204" y="364" type="line"/>
      <point x="204" y="698" type="line"/>
      <point x="120" y="698" type="line"/>
      <point x="120" y="340" type="line"/>
      <point x="40" y="314" type="line"/>
      <point x="40" y="245" type="line"/>
      <point x="120" y="271" type="line"/>
      <point x="120" y="0" type="line"/>
      <point x="535" y="0" type="line"/>
    </contour>
  </outline>
</glyph>
<glyph name="lslash" format="2">
  <advance width="600"/>
  <unicode hex="0142"/>
  <outline>
    <contour>
      <point x="80" y="0" type="line"/>
      <point x="520" y="0" type="line"/>
      <point x="520" y="68" type="line"/>
      <point x="340" y="68" type="line"/>
      <point x="340" y="311" type="line"/>
      <point x="493" y="361" type="line"/>
      <point x="493" y="428" type="line"/>
      <point x="340" y="378" type="line"/>
      <point x="340" y="740" type="line"/>
      <point x="80" y="740" type="line"/>
      <point x="80" y="672" type="line"/>
      <point x="260" y="672" type="line"/>
      <point x="260" y="355" type="line"/>
      <point x="107" y="305" type="line"/>
      <point x="107" y="238" type="line"/>
      <point x="260" y="288" type="line"/>
      <point x="260" y="68" type="line"/>
      <point x="80" y="68" type="line"/>
    </contour>
  </outline>
</glyph>
<glyph name="napostrophe" format="2">
  <advance width="600"/>
  <unicode hex="0149"/>
  <outline>
    <contour>
      <point x="98" y="0" type="line"/>
      <point x="178" y="0" type="line"/>
      <point x="178" y="358" type="line"/>
      <point x="178" y="426"/>
      <point x="242" y="457"/>
      <point x="306" y="457" type="curve" smooth="yes"/>
      <point x="385" y="457"/>
      <point x="428" y="411"/>
      <point x="428" y="317" type="curve" smooth="yes"/>
      <point x="428" y="0" type="line"/>
      <point x="508" y="0" type="line"/>
      <point x="508" y="331" type="line" smooth="yes"/>
      <point x="508" y="456"/>
      <point x="437" y="528"/>
      <point x="329" y="528" type="curve" smooth="yes"/>
      <point x="244" y="528"/>
      <point x="204" y="483"/>
      <point x="182" y="432" type="curve"/>
      <point x="178" y="432" type="line"/>
      <point x="178" y="516" type="line"/>
      <point x="98" y="516" type="line"/>
    </contour>
    <contour>
      <point x="0" y="555" type="line"/>
      <point x="53" y="555" type="line"/>
      <point x="105" y="740" type="line"/>
      <point x="12" y="740" type="line"/>
    </contour>
  </outline>
</glyph>
<glyph name="Eng" format="2">
  <advance width="600"/>
  <unicode hex="014A"/>
  <anchor x="300.0" y="698.0" name="top"/>
  <outline>
    <contour>
      <point x="156" y="0" type="line"/>
      <point x="156" y="591" type="line"/>
      <point x="163" y="591" type="line"/>
      <point x="401" y="0" type="line"/>
      <point x="444" y="0" type="line"/>
      <point x="444" y="-132" type="line"/>
      <point x="157" y="-132" type="line"/>
      <point x="157" y="-200" type="line"/>
      <point x="406" y="-200" type="line" smooth="yes"/>
      <point x="484" y="-200"/>
      <point x="520" y="-151"/>
      <point x="520" y="-82" type="curve" smooth="yes"/>
      <point x="520" y="698" type="line"/>
      <point x="444" y="698" type="line"/>
      <point x="444" y="113" type="line"/>
      <point x="437" y="113" type="line"/>
      <point x="199" y="698" type="line"/>
      <point x="80" y="698" type="line"/>
      <point x="80" y="0" type="line"/>
    </contour>
  </outline>
</glyph>
<glyph name="eng" format="2">
  <advance width="600"/>
  <unicode hex="014B"/>
  <anchor x="303.0" y="516.0" name="top"/>
  <outline>
    <contour>
      <point x="178" y="-200" type="line"/>
      <point x="394" y="-200" type="line" smooth="yes"/>
      <point x="472" y="-200"/>
      <point x="508" y="-151"/>
      <point x="508" y="-82" type="curve" smooth="yes"/>
      <point x="508" y="331" type="line" smooth="yes"/>
      <point x="508" y="456"/>
      <point x="437" y="528"/>
      <point x="329" y="528" type="curve" smooth="yes"/>
      <point x="244" y="528"/>
      <point x="204" y="483"/>
      <point x="182" y="432" type="curve"/>
      <point x="178" y="432" type="line"/>
      <point x="178" y="516" type="line"/>
      <point x="98" y="516" type="line"/>
      <point x="98" y="0" type="line"/>
      <point x="178" y="0" type="line"/>
      <point x="178" y="358" type="line"/>
      <point x="178" y="426"/>
      <point x="242" y="457"/>
      <point x="306" y="457" type="curve" smooth="yes"/>
      <point x="385" y="457"/>
      <point x="428" y="411"/>
      <point x="428" y="317" type="curve" smooth="yes"/>
      <point x="428" y="-132" type="line"/>
      <point x="178" y="-132" type="line"/>
    </contour>
  </outline>
</glyph>
<glyph name="OE" format="2">
  <advance width="600"/>
  <unicode hex="0152"/>
  <outline>
    <contour>
      <point x="560" y="0" type="line"/>
      <point x="560" y="69" type="line"/>
      <point x="392" y="69" type="line"/>
      <point x="392" y="319" type="line"/>
      <point x="548" y="319" type="line"/>
      <point x="548" y="388" type="line"/>
      <point x="392" y="388" type="line"/>
      <point x="392" y="629" type="line"/>
      <point x="560" y="629" type="line"/>
      <point x="560" y="698" type="line"/>
      <point x="289" y="698" type="line" smooth="yes"/>
      <point x="120" y="698"/>
      <point x="37" y="578"/>
      <point x="37" y="349" type="curve" smooth="yes"/>
      <point x="37" y="120"/>
      <point x="120" y="0"/>
      <point x="289" y="0" type="curve" smooth="yes"/>
    </contour>
    <contour>
      <point x="293" y="69" type="line" smooth="yes"/>
      <point x="181" y="69"/>
      <point x="122" y="152"/>
      <point x="122" y="295" type="curve" smooth="yes"/>
      <point x="122" y="403" type="line" smooth="yes"/>
      <point x="122" y="546"/>
      <point x="181" y="629"/>
      <point x="293" y="629" type="curve" smooth="yes"/>
      <point x="312" y="629" type="line"/>
      <point x="312" y="69" type="line"/>
    </contour>
  </outline>
</glyph>
<glyph name="oe" format="2">
  <advance width="600"/>
  <unicode hex="0153"/>
  <guideline x="298.0" y="0.0" angle="90.0" identifier="skHZU6kmXC"/>
  <outline>
    <contour>
      <point x="176" y="48" type="curve" smooth="yes"/>
      <point x="123" y="48"/>
      <point x="91" y="90"/>
      <point x="91" y="205" type="curve" smooth="yes"/>
      <point x="91" y="311" type="line" smooth="yes"/>
      <point x="91" y="426"/>
      <point x="123" y="468"/>
      <point x="176" y="468" type="curve" smooth="yes"/>
      <point x="229" y="468"/>
      <point x="261" y="426"/>
      <point x="261" y="311" type="curve" smooth="yes"/>
      <point x="261" y="205" type="line" smooth="yes"/>
      <point x="261" y="90"/>
      <point x="229" y="48"/>
    </contour>
    <contour>
      <point x="334" y="295" type="line"/>
      <point x="334" y="329" type="line" smooth="yes"/>
      <point x="334" y="424"/>
      <point x="367" y="470"/>
      <point x="425" y="470" type="curve" smooth="yes"/>
      <point x="483" y="470"/>
      <point x="516" y="424"/>
      <point x="516" y="329" type="curve" smooth="yes"/>
      <point x="516" y="295" type="line"/>
    </contour>
    <contour>
      <point x="427" y="-12" type="curve" smooth="yes"/>
      <point x="508" y="-12"/>
      <point x="555" y="53"/>
      <point x="574" y="114" type="curve"/>
      <point x="516" y="141" type="line"/>
      <point x="501" y="96"/>
      <point x="478" y="52"/>
      <point x="429" y="52" type="curve" smooth="yes"/>
      <point x="368" y="52"/>
      <point x="334" y="118"/>
      <point x="334" y="213" type="curve" smooth="yes"/>
      <point x="334" y="238" type="line"/>
      <point x="582" y="238" type="line"/>
      <point x="582" y="292" type="line" smooth="yes"/>
      <point x="582" y="447"/>
      <point x="531" y="528"/>
      <point x="432" y="528" type="curve" smooth="yes"/>
      <point x="377" y="528"/>
      <point x="329" y="503"/>
      <point x="300" y="434" type="curve"/>
      <point x="297" y="434" type="line"/>
      <point x="273" y="496"/>
      <point x="228" y="528"/>
      <point x="170" y="528" type="curve" smooth="yes"/>
      <point x="64" y="528"/>
      <point x="14" y="422"/>
      <point x="14" y="258" type="curve" smooth="yes"/>
      <point x="14" y="94"/>
      <point x="64" y="-12"/>
      <point x="170" y="-12" type="curve" smooth="yes"/>
      <point x="227" y="-12"/>
      <point x="267" y="18"/>
      <point x="293" y="73" type="curve"/>
      <point x="296" y="73" type="line"/>
      <point x="326" y="19"/>
      <point x="371" y="-12"/>
    </contour>
  </outline>
</glyph>
<glyph name="Tcedilla" format="2">
  <advance width="600"/>
  <unicode hex="0162"/>
  <anchor x="300.0" y="698.0" name="top"/>
  <outline>
    <contour>
      <point x="312" y="-207" type="curve" smooth="yes"/>
      <point x="371" y="-207"/>
      <point x="423" y="-181"/>
      <point x="423" y="-124" type="curve" smooth="yes"/>
      <point x="423" y="-81"/>
      <point x="394" y="-58"/>
      <point x="355" y="-58" type="curve" smooth="yes"/>
      <point x="343" y="-58"/>
      <point x="329" y="-60"/>
      <point x="316" y="-64" type="curve"/>
      <point x="313" y="-61" type="line"/>
      <point x="325" y="0" type="line"/>
      <point x="342" y="0" type="line"/>
      <point x="342" y="625" type="line"/>
      <point x="575" y="625" type="line"/>
      <point x="575" y="698" type="line"/>
      <point x="25" y="698" type="line"/>
      <point x="25" y="625" type="line"/>
      <point x="258" y="625" type="line"/>
      <point x="258" y="0" type="line"/>
      <point x="275" y="0" type="line"/>
      <point x="260" y="-77" type="line"/>
      <point x="288" y="-81" type="line" smooth="yes"/>
      <point x="344" y="-89"/>
      <point x="356" y="-104"/>
      <point x="356" y="-122" type="curve" smooth="yes"/>
      <point x="356" y="-143"/>
      <point x="337" y="-153"/>
      <point x="312" y="-153" type="curve" smooth="yes"/>
      <point x="283" y="-153"/>
      <point x="263" y="-140"/>
      <point x="251" y="-125" type="curve"/>
      <point x="213" y="-166" type="line"/>
      <point x="227" y="-185"/>
      <point x="258" y="-207"/>
    </contour>
  </outline>
</glyph>
<glyph name="tcedilla" format="2">
  <advance width="600"/>
  <unicode hex="0163"/>
  <anchor x="387.0" y="760.0" name="topright"/>
  <outline>
    <contour>
      <point x="387" y="-207" type="curve" smooth="yes"/>
      <point x="446" y="-207"/>
      <point x="498" y="-181"/>
      <point x="498" y="-124" type="curve" smooth="yes"/>
      <point x="498" y="-81"/>
      <point x="469" y="-58"/>
      <point x="430" y="-58" type="curve" smooth="yes"/>
      <point x="418" y="-58"/>
      <point x="404" y="-60"/>
      <point x="391" y="-64" type="curve"/>
      <point x="388" y="-61" type="line"/>
      <point x="400" y="0" type="line"/>
      <point x="526" y="0" type="line"/>
      <point x="526" y="68" type="line"/>
      <point x="291" y="68" type="line"/>
      <point x="291" y="448" type="line"/>
      <point x="526" y="448" type="line"/>
      <point x="526" y="516" type="line"/>
      <point x="291" y="516" type="line"/>
      <point x="291" y="698" type="line"/>
      <point x="214" y="698" type="line"/>
      <point x="214" y="563" type="line" smooth="yes"/>
      <point x="214" y="528"/>
      <point x="201" y="516"/>
      <point x="167" y="516" type="curve" smooth="yes"/>
      <point x="39" y="516" type="line"/>
      <point x="39" y="448" type="line"/>
      <point x="211" y="448" type="line"/>
      <point x="211" y="118" type="line" smooth="yes"/>
      <point x="211" y="49"/>
      <point x="247" y="0"/>
      <point x="325" y="0" type="curve" smooth="yes"/>
      <point x="350" y="0" type="line"/>
      <point x="335" y="-77" type="line"/>
      <point x="363" y="-81" type="line" smooth="yes"/>
      <point x="419" y="-89"/>
      <point x="431" y="-104"/>
      <point x="431" y="-122" type="curve" smooth="yes"/>
      <point x="431" y="-143"/>
      <point x="412" y="-153"/>
      <point x="387" y="-153" type="curve" smooth="yes"/>
      <point x="358" y="-153"/>
      <point x="338" y="-140"/>
      <point x="326" y="-125" type="curve"/>
      <point x="288" y="-166" type="line"/>
      <point x="302" y="-185"/>
      <point x="333" y="-207"/>
    </contour>
  </outline>
</glyph>
<glyph name="Tbar" format="2">
  <advance width="600"/>
  <unicode hex="0166"/>
  <anchor x="300.0" y="0.0" name="bottom"/>
  <anchor x="300.0" y="698.0" name="top"/>
  <outline>
    <contour>
      <point x="515" y="336" type="line"/>
      <point x="515" y="400" type="line"/>
      <point x="342" y="400" type="line"/>
      <point x="342" y="625" type="line"/>
      <point x="575" y="625" type="line"/>
      <point x="575" y="698" type="line"/>
      <point x="25" y="698" type="line"/>
      <point x="25" y="625" type="line"/>
      <point x="258" y="625" type="line"/>
      <point x="258" y="400" type="line"/>
      <point x="85" y="400" type="line"/>
      <point x="85" y="336" type="line"/>
      <point x="258" y="336" type="line"/>
      <point x="258" y="0" type="line"/>
      <point x="342" y="0" type="line"/>
      <point x="342" y="336" type="line"/>
    </contour>
  </outline>
</glyph>
<glyph name="tbar" format="2">
  <advance width="600"/>
  <unicode hex="0167"/>
  <anchor x="375.0" y="0.0" name="bottom"/>
  <anchor x="387.0" y="760.0" name="topright"/>
  <outline>
    <contour>
      <point x="524" y="68" type="line"/>
      <point x="291" y="68" type="line"/>
      <point x="291" y="247" type="line"/>
      <point x="464" y="247" type="line"/>
      <point x="464" y="309" type="line"/>
      <point x="291" y="309" type="line"/>
      <point x="291" y="448" type="line"/>
      <point x="526" y="448" type="line"/>
      <point x="526" y="516" type="line"/>
      <point x="291" y="516" type="line"/>
      <point x="291" y="698" type="line"/>
      <point x="214" y="698" type="line"/>
      <point x="214" y="563" type="line" smooth="yes"/>
      <point x="214" y="528"/>
      <point x="201" y="516"/>
      <point x="167" y="516" type="curve" smooth="yes"/>
      <point x="39" y="516" type="line"/>
      <point x="39" y="448" type="line"/>
      <point x="211" y="448" type="line"/>
      <point x="211" y="309" type="line"/>
      <point x="102" y="309" type="line"/>
      <point x="102" y="247" type="line"/>
      <point x="211" y="247" type="line"/>
      <point x="211" y="118" type="line" smooth="yes"/>
      <point x="211" y="49"/>
      <point x="247" y="0"/>
      <point x="325" y="0" type="curve" smooth="yes"/>
      <point x="524" y="0" type="line"/>
    </contour>
  </outline>
</glyph>
<glyph name="Uogonek" format="2">
  <advance width="600"/>
  <unicode hex="0172"/>
  <anchor x="300.0" y="0.0" name="bottom"/>
  <anchor x="300.0" y="698.0" name="top"/>
  <outline>
    <contour>
      <point x="80" y="698" type="line"/>
      <point x="80" y="299" type="line" smooth="yes"/>
      <point x="80" y="95"/>
      <point x="110" y="-12"/>
      <point x="295" y="-12" type="curve" smooth="yes"/>
      <point x="313" y="-12"/>
      <point x="329" y="-11"/>
      <point x="345" y="-7" type="curve"/>
      <point x="347" y="-11" type="line"/>
      <point x="272" y="-45"/>
      <point x="232" y="-82"/>
      <point x="232" y="-128" type="curve" smooth="yes"/>
      <point x="232" y="-179"/>
      <point x="280" y="-207"/>
      <point x="341" y="-207" type="curve" smooth="yes"/>
      <point x="391" y="-207"/>
      <point x="421" y="-188"/>
      <point x="434" y="-166" type="curve"/>
      <point x="394" y="-125" type="line"/>
      <point x="381" y="-141"/>
      <point x="364" y="-151"/>
      <point x="342" y="-151" type="curve" smooth="yes"/>
      <point x="320" y="-151"/>
      <point x="300" y="-140"/>
      <point x="300" y="-116" type="curve" smooth="yes"/>
      <point x="300" y="-72"/>
      <point x="369" y="-32"/>
      <point x="413" y="0" type="curve" smooth="yes"/>
      <point x="510" y="71"/>
      <point x="520" y="146"/>
      <point x="520" y="299" type="curve" smooth="yes"/>
      <point x="520" y="698" type="line"/>
      <point x="436" y="698" type="line"/>
      <point x="436" y="279" type="line" smooth="yes"/>
      <point x="436" y="144"/>
      <point x="431" y="61"/>
      <point x="300" y="61" type="curve" smooth="yes"/>
      <point x="169" y="61"/>
      <point x="164" y="144"/>
      <point x="164" y="279" type="curve" smooth="yes"/>
      <point x="164" y="698" type="line"/>
    </contour>
  </outline>
</glyph>
<glyph name="uogonek" format="2">
  <advance width="600"/>
  <unicode hex="0173"/>
  <anchor x="297.0" y="0.0" name="bottom"/>
  <anchor x="297.0" y="516.0" name="top"/>
  <outline>
    <contour>
      <point x="502" y="516" type="line"/>
      <point x="422" y="516" type="line"/>
      <point x="422" y="158" type="line" smooth="yes"/>
      <point x="422" y="90"/>
      <point x="358" y="59"/>
      <point x="294" y="59" type="curve" smooth="yes"/>
      <point x="215" y="59"/>
      <point x="172" y="105"/>
      <point x="172" y="199" type="curve" smooth="yes"/>
      <point x="172" y="516" type="line"/>
      <point x="92" y="516" type="line"/>
      <point x="92" y="185" type="line" smooth="yes"/>
      <point x="92" y="60"/>
      <point x="163" y="-12"/>
      <point x="271" y="-12" type="curve" smooth="yes"/>
      <point x="356" y="-12"/>
      <point x="396" y="33"/>
      <point x="418" y="84" type="curve"/>
      <point x="422" y="84" type="line"/>
      <point x="422" y="0" type="line"/>
      <point x="435" y="0" type="line"/>
      <point x="436" y="-3" type="line"/>
      <point x="361" y="-39"/>
      <point x="321" y="-79"/>
      <point x="321" y="-127" type="curve" smooth="yes"/>
      <point x="321" y="-180"/>
      <point x="369" y="-207"/>
      <point x="430" y="-207" type="curve" smooth="yes"/>
      <point x="480" y="-207"/>
      <point x="510" y="-188"/>
      <point x="523" y="-166" type="curve"/>
      <point x="483" y="-125" type="line"/>
      <point x="470" y="-141"/>
      <point x="453" y="-151"/>
      <point x="431" y="-151" type="curve" smooth="yes"/>
      <point x="410" y="-151"/>
      <point x="389" y="-142"/>
      <point x="389" y="-114" type="curve" smooth="yes"/>
      <point x="389" y="-94"/>
      <point x="399" y="-65"/>
      <point x="502" y="0" type="curve"/>
    </contour>
  </outline>
</glyph>
<glyph name="longs" format="2">
  <advance width="600"/>
  <unicode hex="017F"/>
  <outline>
    <contour>
      <point x="83" y="0" type="line"/>
      <point x="521" y="0" type="line"/>
      <point x="521" y="68" type="line"/>
      <point x="337" y="68" type="line"/>
      <point x="337" y="672" type="line"/>
      <point x="544" y="672" type="line"/>
      <point x="544" y="740" type="line"/>
      <point x="371" y="740" type="line" smooth="yes"/>
      <point x="293" y="740"/>
      <point x="257" y="691"/>
      <point x="257" y="622" type="curve" smooth="yes"/>
      <point x="257" y="516" type="line"/>
      <point x="73" y="516" type="line"/>
      <point x="73" y="448" type="line"/>
      <point x="257" y="448" type="line"/>
      <point x="257" y="68" type="line"/>
      <point x="83" y="68" type="line"/>
    </contour>
  </outline>
</glyph>
<glyph name="Schwa" format="2">
  <advance width="600"/>
  <unicode hex="018F"/>
  <outline>
    <contour>
      <point x="300" y="-12" type="curve" smooth="yes"/>
      <point x="470" y="-12"/>
      <point x="544" y="121"/>
      <point x="544" y="350" type="curve" smooth="yes"/>
      <point x="544" y="574"/>
      <point x="474" y="710"/>
      <point x="295" y="710" type="curve" smooth="yes"/>
      <point x="174" y="710"/>
      <point x="94" y="647"/>
      <point x="63" y="532" type="curve"/>
      <point x="133" y="499" type="line"/>
      <point x="170" y="618"/>
      <point x="233" y="637"/>
      <point x="289" y="637" type="curve" smooth="yes"/>
      <point x="412" y="637"/>
      <point x="455" y="544"/>
      <point x="455" y="404" type="curve" smooth="yes"/>
      <point x="455" y="371" type="line"/>
      <point x="56" y="371" type="line"/>
      <point x="56" y="349" type="line" smooth="yes"/>
      <point x="56" y="121"/>
      <point x="130" y="-12"/>
    </contour>
    <contour>
      <point x="299" y="61" type="curve" smooth="yes"/>
      <point x="188" y="61"/>
      <point x="143" y="152"/>
      <point x="143" y="292" type="curve" smooth="yes"/>
      <point x="143" y="302" type="line"/>
      <point x="455" y="302" type="line"/>
      <point x="455" y="292" type="line" smooth="yes"/>
      <point x="455" y="152"/>
      <point x="410" y="61"/>
    </contour>
  </outline>
</glyph>
<glyph name="florin" format="2">
  <advance width="600"/>
  <unicode hex="0192"/>
  <outline>
    <contour>
      <point x="-43" y="-200" type="line"/>
      <point x="139" y="-200" type="line" smooth="yes"/>
      <point x="217" y="-200"/>
      <point x="255" y="-156"/>
      <point x="267" y="-87" type="curve" smooth="yes"/>
      <point x="343" y="370" type="line"/>
      <point x="528" y="370" type="line"/>
      <point x="539" y="438" type="line"/>
      <point x="354" y="438" type="line"/>
      <point x="386" y="629" type="line"/>
      <point x="598" y="629" type="line"/>
      <point x="610" y="698" type="line"/>
      <point x="427" y="698" type="line" smooth="yes"/>
      <point x="349" y="698"/>
      <point x="311" y="654"/>
      <point x="299" y="585" type="curve" smooth="yes"/>
      <point x="275" y="438" type="line"/>
      <point x="89" y="438" type="line"/>
      <point x="78" y="370" type="line"/>
      <point x="263" y="370" type="line"/>
      <point x="180" y="-132" type="line"/>
      <point x="-31" y="-132" type="line"/>
    </contour>
  </outline>
</glyph>
<glyph name="Ohorn" format="2">
  <advance width="600"/>
  <unicode hex="01A0"/>
  <anchor x="300.0" y="0.0" name="bottom"/>
  <anchor x="300.0" y="698.0" name="top"/>
  <outline>
    <contour>
      <point x="549" y="810" type="line"/>
      <point x="478" y="810" type="line"/>
      <point x="478" y="698" type="line"/>
      <point x="380" y="698" type="line"/>
      <point x="356" y="706"/>
      <point x="329" y="710"/>
      <point x="300" y="710" type="curve" smooth="yes"/>
      <point x="130" y="710"/>
      <point x="56" y="577"/>
      <point x="56" y="349" type="curve" smooth="yes"/>
      <point x="56" y="121"/>
      <point x="130" y="-12"/>
      <point x="300" y="-12" type="curve" smooth="yes"/>
      <point x="470" y="-12"/>
      <point x="544" y="121"/>
      <point x="544" y="349" type="curve" smooth="yes"/>
      <point x="544" y="488"/>
      <point x="519" y="589"/>
      <point x="458" y="647" type="curve"/>
      <point x="486" y="647" type="line" smooth="yes"/>
      <point x="536" y="647"/>
      <point x="549" y="675"/>
      <point x="549" y="710" type="curve" smooth="yes"/>
    </contour>
    <contour>
      <point x="300" y="61" type="curve" smooth="yes"/>
      <point x="189" y="61"/>
      <point x="145" y="152"/>
      <point x="145" y="292" type="curve" smooth="yes"/>
      <point x="145" y="406" type="line" smooth="yes"/>
      <point x="145" y="546"/>
      <point x="189" y="637"/>
      <point x="300" y="637" type="curve" smooth="yes"/>
      <point x="411" y="637"/>
      <point x="455" y="546"/>
      <point x="455" y="406" type="curve" smooth="yes"/>
      <point x="455" y="292" type="line" smooth="yes"/>
      <point x="455" y="152"/>
      <point x="411" y="61"/>
    </contour>
  </outline>
</glyph>
<glyph name="ohorn" format="2">
  <advance width="600"/>
  <unicode hex="01A1"/>
  <anchor x="300.0" y="0.0" name="bottom"/>
  <anchor x="300.0" y="516.0" name="top"/>
  <outline>
    <contour>
      <point x="469" y="628" type="line"/>
      <point x="469" y="516" type="line"/>
      <point x="379" y="516" type="line"/>
      <point x="355" y="524"/>
      <point x="328" y="528"/>
      <point x="300" y="528" type="curve" smooth="yes"/>
      <point x="155" y="528"/>
      <point x="66" y="422"/>
      <point x="66" y="258" type="curve" smooth="yes"/>
      <point x="66" y="94"/>
      <point x="155" y="-12"/>
      <point x="300" y="-12" type="curve" smooth="yes"/>
      <point x="445" y="-12"/>
      <point x="534" y="94"/>
      <point x="534" y="258" type="curve" smooth="yes"/>
      <point x="534" y="348"/>
      <point x="506" y="420"/>
      <point x="455" y="467" type="curve"/>
      <point x="477" y="467" type="line" smooth="yes"/>
      <point x="527" y="467"/>
      <point x="540" y="495"/>
      <point x="540" y="528" type="curve" smooth="yes"/>
      <point x="540" y="628" type="line"/>
    </contour>
    <contour>
      <point x="300" y="57" type="curve" smooth="yes"/>
      <point x="211" y="57"/>
      <point x="151" y="110"/>
      <point x="151" y="221" type="curve" smooth="yes"/>
      <point x="151" y="295" type="line" smooth="yes"/>
      <point x="151" y="406"/>
      <point x="211" y="459"/>
      <point x="300" y="459" type="curve" smooth="yes"/>
      <point x="389" y="459"/>
      <point x="449" y="406"/>
      <point x="449" y="295" type="curve" smooth="yes"/>
      <point x="449" y="221" type="line" smooth="yes"/>
      <point x="449" y="110"/>
      <point x="389" y="57"/>
    </contour>
  </outline>
</glyph>
<glyph name="Uhorn" format="2">
  <advance width="600"/>
  <unicode hex="01AF"/>
  <anchor x="300.0" y="0.0" name="bottom"/>
  <anchor x="300.0" y="698.0" name="top"/>
  <outline>
    <contour>
      <point x="80" y="698" type="line"/>
      <point x="80" y="299" type="line" smooth="yes"/>
      <point x="80" y="92"/>
      <point x="110" y="-12"/>
      <point x="300" y="-12" type="curve" smooth="yes"/>
      <point x="490" y="-12"/>
      <point x="520" y="92"/>
      <point x="520" y="299" type="curve" smooth="yes"/>
      <point x="520" y="645" type="line"/>
      <point x="537" y="645" type="line" smooth="yes"/>
      <point x="587" y="645"/>
      <point x="600" y="673"/>
      <point x="600" y="708" type="curve" smooth="yes"/>
      <point x="600" y="810" type="line"/>
      <point x="529" y="810" type="line"/>
      <point x="529" y="698" type="line"/>
      <point x="436" y="698" type="line"/>
      <point x="436" y="279" type="line" smooth="yes"/>
      <point x="436" y="144"/>
      <point x="431" y="61"/>
      <point x="300" y="61" type="curve" smooth="yes"/>
      <point x="169" y="61"/>
      <point x="164" y="144"/>
      <point x="164" y="279" type="curve" smooth="yes"/>
      <point x="164" y="698" type="line"/>
    </contour>
  </outline>
</glyph>
<glyph name="uhorn" format="2">
  <advance width="600"/>
  <unicode hex="01B0"/>
  <anchor x="297.0" y="0.0" name="bottom"/>
  <anchor x="297.0" y="516.0" name="top"/>
  <outline>
    <contour>
      <point x="587" y="628" type="line"/>
      <point x="516" y="628" type="line"/>
      <point x="516" y="516" type="line"/>
      <point x="422" y="516" type="line"/>
      <point x="422" y="158" type="line" smooth="yes"/>
      <point x="422" y="90"/>
      <point x="358" y="59"/>
      <point x="294" y="59" type="curve" smooth="yes"/>
      <point x="215" y="59"/>
      <point x="172" y="105"/>
      <point x="172" y="199" type="curve" smooth="yes"/>
      <point x="172" y="516" type="line"/>
      <point x="92" y="516" type="line"/>
      <point x="92" y="185" type="line" smooth="yes"/>
      <point x="92" y="60"/>
      <point x="163" y="-12"/>
      <point x="271" y="-12" type="curve" smooth="yes"/>
      <point x="356" y="-12"/>
      <point x="396" y="33"/>
      <point x="418" y="84" type="curve"/>
      <point x="422" y="84" type="line"/>
      <point x="422" y="0" type="line"/>
      <point x="502" y="0" type="line"/>
      <point x="502" y="463" type="line"/>
      <point x="524" y="463" type="line" smooth="yes"/>
      <point x="574" y="463"/>
      <point x="587" y="491"/>
      <point x="587" y="526" type="curve" smooth="yes"/>
    </contour>
  </outline>
</glyph>
<glyph name="dotlessj" format="2">
  <advance width="600"/>
  <unicode hex="0237"/>
  <anchor x="392.0" y="516.0" name="top"/>
  <outline>
    <contour>
      <point x="102" y="-200" type="line"/>
      <point x="318" y="-200" type="line" smooth="yes"/>
      <point x="396" y="-200"/>
      <point x="432" y="-151"/>
      <point x="432" y="-82" type="curve" smooth="yes"/>
      <point x="432" y="516" type="line"/>
      <point x="93" y="516" type="line"/>
      <point x="93" y="448" type="line"/>
      <point x="352" y="448" type="line"/>
      <point x="352" y="-132" type="line"/>
      <point x="102" y="-132" type="line"/>
    </contour>
  </outline>
</glyph>
<glyph name="commaturnedtop" format="2">
  <advance width="600"/>
  <unicode hex="02BB"/>
  <anchor x="300.0" y="516.0" name="_top"/>
  <outline>
    <contour>
      <point x="243" y="587" type="line"/>
      <point x="352" y="587" type="line"/>
      <point x="380" y="776" type="line"/>
      <point x="319" y="776" type="line"/>
    </contour>
  </outline>
</glyph>
<glyph name="caronslovak" format="2">
  <advance width="600"/>
  <unicode hex="02BC"/>
  <anchor x="190.0" y="740.0" name="_topright"/>
  <outline>
    <contour>
      <point x="300" y="740" type="line"/>
      <point x="197" y="740" type="line"/>
      <point x="190" y="551" type="line"/>
      <point x="251" y="551" type="line"/>
    </contour>
  </outline>
</glyph>
<glyph name="circumflex" format="2">
  <advance width="600"/>
  <unicode hex="02C6"/>
  <anchor x="300.0" y="516.0" name="_top"/>
  <outline>
    <contour>
      <point x="250" y="765" type="line"/>
      <point x="139" y="622" type="line"/>
      <point x="182" y="591" type="line"/>
      <point x="299" y="708" type="line"/>
      <point x="416" y="591" type="line"/>
      <point x="461" y="622" type="line"/>
      <point x="350" y="765" type="line"/>
    </contour>
  </outline>
</glyph>
<glyph name="breve" format="2">
  <advance width="600"/>
  <unicode hex="02D8"/>
  <anchor x="300.0" y="516.0" name="_top"/>
  <outline>
    <contour>
      <point x="300" y="595" type="curve" smooth="yes"/>
      <point x="407" y="595"/>
      <point x="442" y="685"/>
      <point x="461" y="746" type="curve"/>
      <point x="410" y="768" type="line"/>
      <point x="389" y="734" type="line" smooth="yes"/>
      <point x="358" y="684"/>
      <point x="344" y="660"/>
      <point x="300" y="660" type="curve" smooth="yes"/>
      <point x="256" y="660"/>
      <point x="242" y="684"/>
      <point x="211" y="734" type="curve" smooth="yes"/>
      <point x="190" y="768" type="line"/>
      <point x="139" y="746" type="line"/>
      <point x="158" y="685"/>
      <point x="193" y="595"/>
    </contour>
  </outline>
</glyph>
<glyph name="ring" format="2">
  <advance width="600"/>
  <unicode hex="02DA"/>
  <anchor x="300.0" y="516.0" name="_top"/>
  <outline>
    <contour>
      <point x="300" y="576" type="curve" smooth="yes"/>
      <point x="365" y="576"/>
      <point x="416" y="625"/>
      <point x="416" y="691" type="curve" smooth="yes"/>
      <point x="416" y="757"/>
      <point x="365" y="806"/>
      <point x="300" y="806" type="curve" smooth="yes"/>
      <point x="235" y="806"/>
      <point x="184" y="757"/>
      <point x="184" y="691" type="curve" smooth="yes"/>
      <point x="184" y="625"/>
      <point x="235" y="576"/>
    </contour>
    <contour>
      <point x="300" y="625" type="curve" smooth="yes"/>
      <point x="264" y="625"/>
      <point x="242" y="645"/>
      <point x="242" y="680" type="curve" smooth="yes"/>
      <point x="242" y="702" type="line" smooth="yes"/>
      <point x="242" y="737"/>
      <point x="264" y="757"/>
      <point x="300" y="757" type="curve" smooth="yes"/>
      <point x="336" y="757"/>
      <point x="358" y="737"/>
      <point x="358" y="702" type="curve" smooth="yes"/>
      <point x="358" y="680" type="line" smooth="yes"/>
      <point x="358" y="645"/>
      <point x="336" y="625"/>
    </contour>
  </outline>
</glyph>
<glyph name="hungarumlaut" format="2">
  <advance width="600"/>
  <unicode hex="02DD"/>
  <anchor x="300.0" y="516.0" name="_top"/>
  <outline>
    <contour>
      <point x="333" y="745" type="line"/>
      <point x="264" y="778" type="line"/>
      <point x="179" y="608" type="line"/>
      <point x="227" y="586" type="line"/>
    </contour>
    <contour>
      <point x="493" y="745" type="line"/>
      <point x="424" y="778" type="line"/>
      <point x="339" y="608" type="line"/>
      <point x="387" y="586" type="line"/>
    </contour>
  </outline>
</glyph>
<glyph name="hookcomb" format="2">
  <unicode hex="0309"/>
  <anchor x="0.0" y="516.0" name="_top"/>
  <outline>
    <contour>
      <point x="-84" y="704" type="line"/>
      <point x="34" y="704" type="line"/>
      <point x="-24" y="600" type="line"/>
      <point x="22" y="577" type="line"/>
      <point x="46" y="607" type="line" smooth="yes"/>
      <point x="77" y="646"/>
      <point x="95" y="681"/>
      <point x="95" y="710" type="curve" smooth="yes"/>
      <point x="95" y="740"/>
      <point x="76" y="765"/>
      <point x="25" y="765" type="curve" smooth="yes"/>
      <point x="-84" y="765" type="line"/>
    </contour>
  </outline>
</glyph>
<glyph name="dotbelowcomb" format="2">
  <unicode hex="0323"/>
  <anchor x="0.0" y="0.0" name="_bottom"/>
  <outline>
    <contour>
      <point x="0" y="-172" type="curve" smooth="yes"/>
      <point x="41" y="-172"/>
      <point x="57" y="-152"/>
      <point x="57" y="-126" type="curve" smooth="yes"/>
      <point x="57" y="-112" type="line" smooth="yes"/>
      <point x="57" y="-86"/>
      <point x="41" y="-66"/>
      <point x="0" y="-66" type="curve" smooth="yes"/>
      <point x="-41" y="-66"/>
      <point x="-57" y="-86"/>
      <point x="-57" y="-112" type="curve" smooth="yes"/>
      <point x="-57" y="-126" type="line" smooth="yes"/>
      <point x="-57" y="-152"/>
      <point x="-41" y="-172"/>
    </contour>
  </outline>
</glyph>
<glyph name="commabelowcomb" format="2">
  <unicode hex="0326"/>
  <anchor x="0.0" y="0.0" name="_bottom"/>
  <outline>
    <contour>
      <point x="-80" y="-251" type="line"/>
      <point x="-19" y="-251" type="line"/>
      <point x="57" y="-62" type="line"/>
      <point x="-52" y="-62" type="line"/>
    </contour>
  </outline>
</glyph>
<glyph name="circumflexbelowcomb" format="2">
  <unicode hex="032D"/>
  <anchor x="0.0" y="0.0" name="_bottom"/>
  <outline>
    <contour>
      <point x="-50" y="-53" type="line"/>
      <point x="-161" y="-196" type="line"/>
      <point x="-118" y="-227" type="line"/>
      <point x="-1" y="-110" type="line"/>
      <point x="116" y="-227" type="line"/>
      <point x="161" y="-196" type="line"/>
      <point x="50" y="-53" type="line"/>
    </contour>
  </outline>
</glyph>
<glyph name="brevebelowcomb" format="2">
  <unicode hex="032E"/>
  <anchor x="0.0" y="0.0" name="_bottom"/>
  <outline>
    <contour>
      <point x="0" y="-218" type="curve" smooth="yes"/>
      <point x="107" y="-218"/>
      <point x="142" y="-128"/>
      <point x="161" y="-67" type="curve"/>
      <point x="110" y="-45" type="line"/>
      <point x="89" y="-79" type="line" smooth="yes"/>
      <point x="58" y="-129"/>
      <point x="44" y="-153"/>
      <point x="0" y="-153" type="curve" smooth="yes"/>
      <point x="-44" y="-153"/>
      <point x="-58" y="-129"/>
      <point x="-89" y="-79" type="curve" smooth="yes"/>
      <point x="-110" y="-45" type="line"/>
      <point x="-161" y="-67" type="line"/>
      <point x="-142" y="-128"/>
      <point x="-107" y="-218"/>
    </contour>
  </outline>
</glyph>
<glyph name="macronbelowcomb" format="2">
  <unicode hex="0331"/>
  <anchor x="0.0" y="0.0" name="_bottom"/>
  <outline>
    <contour>
      <point x="-140" y="-159" type="line"/>
      <point x="140" y="-159" type="line"/>
      <point x="140" y="-91" type="line"/>
      <point x="-140" y="-91" type="line"/>
    </contour>
  </outline>
</glyph>
<glyph name="pi" format="2">
  <advance width="600"/>
  <unicode hex="03C0"/>
  <outline>
    <contour>
      <point x="112" y="0" type="line"/>
      <point x="192" y="0" type="line"/>
      <point x="192" y="448" type="line"/>
      <point x="393" y="448" type="line"/>
      <point x="393" y="118" type="line" smooth="yes"/>
      <point x="393" y="49"/>
      <point x="429" y="0"/>
      <point x="507" y="0" type="curve" smooth="yes"/>
      <point x="565" y="0" type="line"/>
      <point x="565" y="68" type="line"/>
      <point x="473" y="68" type="line"/>
      <point x="473" y="448" type="line"/>
      <point x="565" y="448" type="line"/>
      <point x="565" y="516" type="line"/>
      <point x="20" y="516" type="line"/>
      <point x="20" y="448" type="line"/>
      <point x="112" y="448" type="line"/>
    </contour>
  </outline>
</glyph>
<glyph name="uni0402" format="2">
  <advance width="600"/>
  <unicode hex="0402"/>
  <guideline x="254.0" y="0.0" angle="90.0" identifier="EzvCUbVkqO"/>
  <outline>
    <contour>
      <point x="254" y="-164" type="line"/>
      <point x="438" y="-164" type="line" smooth="yes"/>
      <point x="516" y="-164"/>
      <point x="552" y="-115"/>
      <point x="552" y="-46" type="curve" smooth="yes"/>
      <point x="552" y="230" type="line" smooth="yes"/>
      <point x="552" y="362"/>
      <point x="499" y="438"/>
      <point x="364" y="438" type="curve" smooth="yes"/>
      <point x="330" y="438"/>
      <point x="289" y="429"/>
      <point x="259" y="419" type="curve"/>
      <point x="254" y="419" type="line"/>
      <point x="254" y="625" type="line"/>
      <point x="414" y="625" type="line"/>
      <point x="414" y="698" type="line"/>
      <point x="10" y="698" type="line"/>
      <point x="10" y="625" type="line"/>
      <point x="170" y="625" type="line"/>
      <point x="170" y="0" type="line"/>
      <point x="254" y="0" type="line"/>
      <point x="254" y="345" type="line"/>
      <point x="282" y="357"/>
      <point x="323" y="365"/>
      <point x="361" y="365" type="curve" smooth="yes"/>
      <point x="437" y="365"/>
      <point x="468" y="322"/>
      <point x="468" y="230" type="curve" smooth="yes"/>
      <point x="468" y="-91" type="line"/>
      <point x="254" y="-91" type="line"/>
    </contour>
  </outline>
</glyph>
<glyph name="uni0404" format="2">
  <advance width="600"/>
  <unicode hex="0404"/>
  <outline>
    <contour>
      <point x="387" y="317" type="line"/>
      <point x="387" y="390" type="line"/>
      <point x="156" y="390" type="line"/>
      <point x="156" y="406" type="line" smooth="yes"/>
      <point x="156" y="546"/>
      <point x="209" y="637"/>
      <point x="323" y="637" type="curve" smooth="yes"/>
      <point x="411" y="637"/>
      <point x="444" y="586"/>
      <point x="469" y="524" type="curve"/>
      <point x="541" y="557" type="line"/>
      <point x="507" y="633"/>
      <point x="454" y="710"/>
      <point x="323" y="710" type="curve" smooth="yes"/>
      <point x="150" y="710"/>
      <point x="67" y="581"/>
      <point x="67" y="349" type="curve" smooth="yes"/>
      <point x="67" y="117"/>
      <point x="150" y="-12"/>
      <point x="323" y="-12" type="curve" smooth="yes"/>
      <point x="454" y="-12"/>
      <point x="507" y="65"/>
      <point x="541" y="141" type="curve"/>
      <point x="469" y="174" type="line"/>
      <point x="444" y="112"/>
      <point x="411" y="61"/>
      <point x="323" y="61" type="curve" smooth="yes"/>
      <point x="209" y="61"/>
      <point x="156" y="152"/>
      <point x="156" y="292" type="curve" smooth="yes"/>
      <point x="156" y="317" type="line"/>
    </contour>
  </outline>
</glyph>
<glyph name="uni0409" format="2">
  <advance width="600"/>
  <unicode hex="0409"/>
  <guideline x="552.0" y="0.0" angle="90.0" identifier="MdTanbHT2V"/>
  <outline>
    <contour>
      <point x="305" y="0" type="line"/>
      <point x="403" y="0" type="line" smooth="yes"/>
      <point x="528" y="0"/>
      <point x="598" y="75"/>
      <point x="598" y="209" type="curve" smooth="yes"/>
      <point x="598" y="343"/>
      <point x="528" y="418"/>
      <point x="403" y="418" type="curve" smooth="yes"/>
      <point x="387" y="418" type="line"/>
      <point x="387" y="698" type="line"/>
      <point x="113" y="698" type="line"/>
      <point x="113" y="543" type="line" smooth="yes"/>
      <point x="113" y="188"/>
      <point x="96" y="124"/>
      <point x="45" y="73" type="curve"/>
      <point x="-2" y="73" type="line"/>
      <point x="-2" y="0" type="line"/>
      <point x="9" y="0" type="line" smooth="yes"/>
      <point x="57" y="0"/>
      <point x="88" y="10"/>
      <point x="118" y="40" type="curve" smooth="yes"/>
      <point x="170" y="92"/>
      <point x="193" y="182"/>
      <point x="193" y="537" type="curve" smooth="yes"/>
      <point x="193" y="625" type="line"/>
      <point x="305" y="625" type="line"/>
    </contour>
    <contour>
      <point x="387" y="73" type="line"/>
      <point x="387" y="345" type="line"/>
      <point x="403" y="345" type="line" smooth="yes"/>
      <point x="469" y="345"/>
      <point x="511" y="310"/>
      <point x="511" y="235" type="curve" smooth="yes"/>
      <point x="511" y="183" type="line" smooth="yes"/>
      <point x="511" y="108"/>
      <point x="469" y="73"/>
      <point x="403" y="73" type="curve" smooth="yes"/>
    </contour>
  </outline>
</glyph>
<glyph name="uni040A" format="2">
  <advance width="600"/>
  <unicode hex="040A"/>
  <outline>
    <contour>
      <point x="285" y="0" type="line"/>
      <point x="403" y="0" type="line" smooth="yes"/>
      <point x="528" y="0"/>
      <point x="598" y="75"/>
      <point x="598" y="209" type="curve" smooth="yes"/>
      <point x="598" y="343"/>
      <point x="528" y="418"/>
      <point x="403" y="418" type="curve" smooth="yes"/>
      <point x="367" y="418" type="line"/>
      <point x="367" y="698" type="line"/>
      <point x="285" y="698" type="line"/>
      <point x="285" y="390" type="line"/>
      <point x="130" y="390" type="line"/>
      <point x="130" y="698" type="line"/>
      <point x="48" y="698" type="line"/>
      <point x="48" y="0" type="line"/>
      <point x="130" y="0" type="line"/>
      <point x="130" y="317" type="line"/>
      <point x="285" y="317" type="line"/>
    </contour>
    <contour>
      <point x="367" y="73" type="line"/>
      <point x="367" y="345" type="line"/>
      <point x="403" y="345" type="line" smooth="yes"/>
      <point x="469" y="345"/>
      <point x="511" y="310"/>
      <point x="511" y="235" type="curve" smooth="yes"/>
      <point x="511" y="183" type="line" smooth="yes"/>
      <point x="511" y="108"/>
      <point x="469" y="73"/>
      <point x="403" y="73" type="curve" smooth="yes"/>
    </contour>
  </outline>
</glyph>
<glyph name="uni040B" format="2">
  <advance width="600"/>
  <unicode hex="040B"/>
  <outline>
    <contour>
      <point x="170" y="0" type="line"/>
      <point x="254" y="0" type="line"/>
      <point x="254" y="345" type="line"/>
      <point x="282" y="357"/>
      <point x="323" y="365"/>
      <point x="361" y="365" type="curve" smooth="yes"/>
      <point x="437" y="365"/>
      <point x="468" y="322"/>
      <point x="468" y="230" type="curve" smooth="yes"/>
      <point x="468" y="0" type="line"/>
      <point x="552" y="0" type="line"/>
      <point x="552" y="230" type="line" smooth="yes"/>
      <point x="552" y="362"/>
      <point x="499" y="438"/>
      <point x="364" y="438" type="curve" smooth="yes"/>
      <point x="330" y="438"/>
      <point x="289" y="429"/>
      <point x="259" y="419" type="curve"/>
      <point x="254" y="419" type="line"/>
      <point x="254" y="625" type="line"/>
      <point x="414" y="625" type="line"/>
      <point x="414" y="698" type="line"/>
      <point x="10" y="698" type="line"/>
      <point x="10" y="625" type="line"/>
      <point x="170" y="625" type="line"/>
    </contour>
  </outline>
</glyph>
<glyph name="uni040F" format="2">
  <advance width="600"/>
  <unicode hex="040F"/>
  <outline>
    <contour>
      <point x="262" y="-150" type="line"/>
      <point x="339" y="-150" type="line"/>
      <point x="339" y="0" type="line"/>
      <point x="517" y="0" type="line"/>
      <point x="517" y="698" type="line"/>
      <point x="433" y="698" type="line"/>
      <point x="433" y="73" type="line"/>
      <point x="167" y="73" type="line"/>
      <point x="167" y="698" type="line"/>
      <point x="83" y="698" type="line"/>
      <point x="83" y="0" type="line"/>
      <point x="262" y="0" type="line"/>
    </contour>
  </outline>
</glyph>
<glyph name="uni0411" format="2">
  <advance width="600"/>
  <unicode hex="0411"/>
  <outline>
    <contour>
      <point x="85" y="0" type="line"/>
      <point x="341" y="0" type="line" smooth="yes"/>
      <point x="466" y="0"/>
      <point x="536" y="75"/>
      <point x="536" y="209" type="curve" smooth="yes"/>
      <point x="536" y="343"/>
      <point x="466" y="418"/>
      <point x="341" y="418" type="curve" smooth="yes"/>
      <point x="169" y="418" type="line"/>
      <point x="169" y="625" type="line"/>
      <point x="479" y="625" type="line"/>
      <point x="479" y="698" type="line"/>
      <point x="85" y="698" type="line"/>
    </contour>
    <contour>
      <point x="169" y="73" type="line"/>
      <point x="169" y="345" type="line"/>
      <point x="339" y="345" type="line" smooth="yes"/>
      <point x="405" y="345"/>
      <point x="447" y="310"/>
      <point x="447" y="235" type="curve" smooth="yes"/>
      <point x="447" y="183" type="line" smooth="yes"/>
      <point x="447" y="108"/>
      <point x="405" y="73"/>
      <point x="339" y="73" type="curve" smooth="yes"/>
    </contour>
  </outline>
</glyph>
<glyph name="uni0413" format="2">
  <advance width="600"/>
  <unicode hex="0413"/>
  <anchor x="327.0" y="698.0" name="top"/>
  <outline>
    <contour>
      <point x="132" y="0" type="line"/>
      <point x="216" y="0" type="line"/>
      <point x="216" y="625" type="line"/>
      <point x="523" y="625" type="line"/>
      <point x="523" y="698" type="line"/>
      <point x="132" y="698" type="line"/>
    </contour>
  </outline>
</glyph>
<glyph name="uni0414" format="2">
  <advance width="600"/>
  <unicode hex="0414"/>
  <outline>
    <contour>
      <point x="14" y="-150" type="line"/>
      <point x="91" y="-150" type="line"/>
      <point x="91" y="0" type="line"/>
      <point x="499" y="0" type="line"/>
      <point x="499" y="-150" type="line"/>
      <point x="576" y="-150" type="line"/>
      <point x="576" y="73" type="line"/>
      <point x="491" y="73" type="line"/>
      <point x="491" y="698" type="line"/>
      <point x="165" y="698" type="line"/>
      <point x="165" y="493" type="line" smooth="yes"/>
      <point x="165" y="286"/>
      <point x="134" y="159"/>
      <point x="74" y="73" type="curve"/>
      <point x="14" y="73" type="line"/>
    </contour>
    <contour>
      <point x="407" y="73" type="line"/>
      <point x="170" y="73" type="line"/>
      <point x="216" y="147"/>
      <point x="247" y="275"/>
      <point x="247" y="487" type="curve" smooth="yes"/>
      <point x="247" y="625" type="line"/>
      <point x="407" y="625" type="line"/>
    </contour>
  </outline>
</glyph>
<glyph name="uni0416" format="2">
  <advance width="600"/>
  <unicode hex="0416"/>
  <guideline x="417.0" y="0.0" angle="90.0" identifier="0fgr3LP6Ky"/>
  <anchor x="300.0" y="698.0" name="top"/>
  <outline>
    <contour>
      <point x="259" y="0" type="line"/>
      <point x="341" y="0" type="line"/>
      <point x="341" y="318" type="line"/>
      <point x="410" y="318" type="line"/>
      <point x="511" y="0" type="line"/>
      <point x="598" y="0" type="line"/>
      <point x="515" y="265" type="line" smooth="yes"/>
      <point x="495" y="329"/>
      <point x="473" y="346"/>
      <point x="443" y="352" type="curve"/>
      <point x="443" y="357" type="line"/>
      <point x="471" y="363"/>
      <point x="490" y="382"/>
      <point x="507" y="440" type="curve" smooth="yes"/>
      <point x="582" y="698" type="line"/>
      <point x="501" y="698" type="line"/>
      <point x="410" y="390" type="line"/>
      <point x="341" y="390" type="line"/>
      <point x="341" y="698" type="line"/>
      <point x="259" y="698" type="line"/>
      <point x="259" y="390" type="line"/>
      <point x="190" y="390" type="line"/>
      <point x="100" y="698" type="line"/>
      <point x="18" y="698" type="line"/>
      <point x="92" y="439" type="line" smooth="yes"/>
      <point x="108" y="382"/>
      <point x="129" y="363"/>
      <point x="157" y="357" type="curve"/>
      <point x="157" y="352" type="line"/>
      <point x="127" y="346"/>
      <point x="107" y="330"/>
      <point x="86" y="265" type="curve" smooth="yes"/>
      <point x="2" y="0" type="line"/>
      <point x="88" y="0" type="line"/>
      <point x="190" y="318" type="line"/>
      <point x="259" y="318" type="line"/>
    </contour>
  </outline>
</glyph>
<glyph name="uni0417" format="2">
  <advance width="600"/>
  <unicode hex="0417"/>
  <guideline x="276.0" y="0.0" angle="90.0" identifier="V04o5ATuLa"/>
  <anchor x="284.0" y="698.0" name="top"/>
  <outline>
    <contour>
      <point x="281" y="-12" type="curve" smooth="yes"/>
      <point x="431" y="-12"/>
      <point x="521" y="73"/>
      <point x="521" y="196" type="curve" smooth="yes"/>
      <point x="521" y="301"/>
      <point x="454" y="350"/>
      <point x="372" y="360" type="curve"/>
      <point x="372" y="365" type="line"/>
      <point x="448" y="377"/>
      <point x="505" y="429"/>
      <point x="505" y="526" type="curve" smooth="yes"/>
      <point x="505" y="637"/>
      <point x="430" y="710"/>
      <point x="284" y="710" type="curve" smooth="yes"/>
      <point x="181" y="710"/>
      <point x="113" y="671"/>
      <point x="65" y="601" type="curve"/>
      <point x="128" y="560" type="line"/>
      <point x="160" y="608"/>
      <point x="207" y="638"/>
      <point x="284" y="638" type="curve" smooth="yes"/>
      <point x="372" y="638"/>
      <point x="417" y="595"/>
      <point x="417" y="532" type="curve" smooth="yes"/>
      <point x="417" y="511" type="line" smooth="yes"/>
      <point x="417" y="435"/>
      <point x="373" y="397"/>
      <point x="282" y="397" type="curve" smooth="yes"/>
      <point x="190" y="397" type="line"/>
      <point x="190" y="324" type="line"/>
      <point x="288" y="324" type="line" smooth="yes"/>
      <point x="386" y="324"/>
      <point x="432" y="276"/>
      <point x="432" y="208" type="curve" smooth="yes"/>
      <point x="432" y="187" type="line" smooth="yes"/>
      <point x="432" y="106"/>
      <point x="373" y="60"/>
      <point x="281" y="60" type="curve" smooth="yes"/>
      <point x="209" y="60"/>
      <point x="151" y="93"/>
      <point x="101" y="161" type="curve"/>
      <point x="40" y="111" type="line"/>
      <point x="90" y="41"/>
      <point x="167" y="-12"/>
    </contour>
  </outline>
</glyph>
<glyph name="uni0418" format="2">
  <advance width="600"/>
  <unicode hex="0418"/>
  <guideline x="0.0" y="113.0" angle="0.0" identifier="U6FiJCvahO"/>
  <anchor x="300.0" y="698.0" name="top"/>
  <outline>
    <contour>
      <point x="80" y="0" type="line"/>
      <point x="160" y="0" type="line"/>
      <point x="445" y="554" type="line"/>
      <point x="450" y="554" type="line"/>
      <point x="436" y="352" type="line"/>
      <point x="436" y="0" type="line"/>
      <point x="520" y="0" type="line"/>
      <point x="520" y="698" type="line"/>
      <point x="440" y="698" type="line"/>
      <point x="155" y="144" type="line"/>
      <point x="150" y="144" type="line"/>
      <point x="164" y="346" type="line"/>
      <point x="164" y="698" type="line"/>
      <point x="80" y="698" type="line"/>
    </contour>
  </outline>
</glyph>
<glyph name="uni041A" format="2">
  <advance width="600"/>
  <unicode hex="041A"/>
  <anchor x="286.0" y="698.0" name="top"/>
  <outline>
    <contour>
      <point x="80" y="0" type="line"/>
      <point x="164" y="0" type="line"/>
      <point x="164" y="318" type="line"/>
      <point x="287" y="318" type="line"/>
      <point x="395" y="74" type="line" smooth="yes"/>
      <point x="418" y="22"/>
      <point x="448" y="0"/>
      <point x="488" y="0" type="curve" smooth="yes"/>
      <point x="551" y="0" type="line"/>
      <point x="551" y="73" type="line"/>
      <point x="486" y="73" type="line"/>
      <point x="396" y="275" type="line"/>
      <point x="372" y="330"/>
      <point x="356" y="346"/>
      <point x="326" y="352" type="curve"/>
      <point x="326" y="357" type="line"/>
      <point x="350" y="361"/>
      <point x="368" y="375"/>
      <point x="391" y="422" type="curve" smooth="yes"/>
      <point x="524" y="698" type="line"/>
      <point x="435" y="698" type="line"/>
      <point x="287" y="390" type="line"/>
      <point x="164" y="390" type="line"/>
      <point x="164" y="698" type="line"/>
      <point x="80" y="698" type="line"/>
    </contour>
  </outline>
</glyph>
<glyph name="uni041B" format="2">
  <advance width="600"/>
  <unicode hex="041B"/>
  <outline>
    <contour>
      <point x="437" y="0" type="line"/>
      <point x="521" y="0" type="line"/>
      <point x="521" y="698" type="line"/>
      <point x="159" y="698" type="line"/>
      <point x="159" y="505" type="line" smooth="yes"/>
      <point x="159" y="228"/>
      <point x="134" y="133"/>
      <point x="72" y="73" type="curve"/>
      <point x="5" y="73" type="line"/>
      <point x="5" y="0" type="line"/>
      <point x="36" y="0" type="line" smooth="yes"/>
      <point x="84" y="0"/>
      <point x="117" y="12"/>
      <point x="145" y="40" type="curve" smooth="yes"/>
      <point x="206" y="101"/>
      <point x="241" y="210"/>
      <point x="241" y="499" type="curve" smooth="yes"/>
      <point x="241" y="625" type="line"/>
      <point x="437" y="625" type="line"/>
    </contour>
  </outline>
</glyph>
<glyph name="uni041F" format="2">
  <advance width="600"/>
  <unicode hex="041F"/>
  <outline>
    <contour>
      <point x="83" y="0" type="line"/>
      <point x="167" y="0" type="line"/>
      <point x="167" y="625" type="line"/>
      <point x="433" y="625" type="line"/>
      <point x="433" y="0" type="line"/>
      <point x="517" y="0" type="line"/>
      <point x="517" y="698" type="line"/>
      <point x="83" y="698" type="line"/>
    </contour>
  </outline>
</glyph>
<glyph name="uni0423" format="2">
  <advance width="600"/>
  <unicode hex="0423"/>
  <anchor x="300.0" y="698.0" name="top"/>
  <outline>
    <contour>
      <point x="139" y="0" type="line"/>
      <point x="199" y="0" type="line" smooth="yes"/>
      <point x="275" y="0"/>
      <point x="304" y="16"/>
      <point x="334" y="96" type="curve" smooth="yes"/>
      <point x="562" y="698" type="line"/>
      <point x="476" y="698" type="line"/>
      <point x="354" y="369" type="line"/>
      <point x="316" y="258" type="line"/>
      <point x="314" y="258" type="line"/>
      <point x="273" y="370" type="line"/>
      <point x="134" y="698" type="line"/>
      <point x="44" y="698" type="line"/>
      <point x="278" y="163" type="line"/>
      <point x="243" y="73" type="line"/>
      <point x="139" y="73" type="line"/>
    </contour>
  </outline>
</glyph>
<glyph name="uni0424" format="2">
  <advance width="600"/>
  <unicode hex="0424"/>
  <outline>
    <contour>
      <point x="258" y="-29" type="line"/>
      <point x="342" y="-29" type="line"/>
      <point x="342" y="61" type="line"/>
      <point x="506" y="71"/>
      <point x="574" y="194"/>
      <point x="574" y="348" type="curve" smooth="yes"/>
      <point x="574" y="502"/>
      <point x="506" y="625"/>
      <point x="342" y="635" type="curve"/>
      <point x="342" y="725" type="line"/>
      <point x="258" y="725" type="line"/>
      <point x="258" y="635" type="line"/>
      <point x="94" y="625"/>
      <point x="26" y="502"/>
      <point x="26" y="348" type="curve" smooth="yes"/>
      <point x="26" y="194"/>
      <point x="94" y="71"/>
      <point x="258" y="61" type="curve"/>
    </contour>
    <contour>
      <point x="260" y="132" type="line"/>
      <point x="155" y="142"/>
      <point x="113" y="211"/>
      <point x="113" y="307" type="curve" smooth="yes"/>
      <point x="113" y="389" type="line" smooth="yes"/>
      <point x="113" y="485"/>
      <point x="155" y="554"/>
      <point x="260" y="564" type="curve"/>
    </contour>
    <contour>
      <point x="340" y="132" type="curve"/>
      <point x="340" y="564" type="line"/>
      <point x="445" y="554"/>
      <point x="487" y="485"/>
      <point x="487" y="389" type="curve" smooth="yes"/>
      <point x="487" y="307" type="line" smooth="yes"/>
      <point x="487" y="211"/>
      <point x="445" y="142"/>
    </contour>
  </outline>
</glyph>
<glyph name="uni0426" format="2">
  <advance width="600"/>
  <unicode hex="0426"/>
  <outline>
    <contour>
      <point x="497" y="-150" type="line"/>
      <point x="574" y="-150" type="line"/>
      <point x="574" y="73" type="line"/>
      <point x="499" y="73" type="line"/>
      <point x="499" y="698" type="line"/>
      <point x="415" y="698" type="line"/>
      <point x="415" y="73" type="line"/>
      <point x="164" y="73" type="line"/>
      <point x="164" y="698" type="line"/>
      <point x="80" y="698" type="line"/>
      <point x="80" y="0" type="line"/>
      <point x="497" y="0" type="line"/>
    </contour>
  </outline>
</glyph>
<glyph name="uni0427" format="2">
  <advance width="600"/>
  <unicode hex="0427"/>
  <anchor x="286.0" y="698.0" name="top"/>
  <outline>
    <contour>
      <point x="428" y="0" type="line"/>
      <point x="512" y="0" type="line"/>
      <point x="512" y="698" type="line"/>
      <point x="428" y="698" type="line"/>
      <point x="428" y="349" type="line"/>
      <point x="386" y="333"/>
      <point x="346" y="325"/>
      <point x="286" y="325" type="curve" smooth="yes"/>
      <point x="179" y="325"/>
      <point x="144" y="372"/>
      <point x="144" y="500" type="curve" smooth="yes"/>
      <point x="144" y="698" type="line"/>
      <point x="60" y="698" type="line"/>
      <point x="60" y="500" type="line" smooth="yes"/>
      <point x="60" y="332"/>
      <point x="117" y="252"/>
      <point x="283" y="252" type="curve" smooth="yes"/>
      <point x="339" y="252"/>
      <point x="387" y="261"/>
      <point x="423" y="275" type="curve"/>
      <point x="428" y="275" type="line"/>
    </contour>
  </outline>
</glyph>
<glyph name="uni0428" format="2">
  <advance width="600"/>
  <unicode hex="0428"/>
  <outline>
    <contour>
      <point x="48" y="0" type="line"/>
      <point x="552" y="0" type="line"/>
      <point x="552" y="698" type="line"/>
      <point x="470" y="698" type="line"/>
      <point x="470" y="73" type="line"/>
      <point x="341" y="73" type="line"/>
      <point x="341" y="698" type="line"/>
      <point x="259" y="698" type="line"/>
      <point x="259" y="73" type="line"/>
      <point x="130" y="73" type="line"/>
      <point x="130" y="698" type="line"/>
      <point x="48" y="698" type="line"/>
    </contour>
  </outline>
</glyph>
<glyph name="uni0429" format="2">
  <advance width="600"/>
  <unicode hex="0429"/>
  <guideline x="0.0" y="-150.0" angle="0.0" identifier="5nvLBs6DOv"/>
  <outline>
    <contour>
      <point x="520" y="-150" type="line"/>
      <point x="595" y="-150" type="line"/>
      <point x="595" y="73" type="line"/>
      <point x="520" y="73" type="line"/>
      <point x="520" y="698" type="line"/>
      <point x="438" y="698" type="line"/>
      <point x="438" y="73" type="line"/>
      <point x="325" y="73" type="line"/>
      <point x="325" y="698" type="line"/>
      <point x="243" y="698" type="line"/>
      <point x="243" y="73" type="line"/>
      <point x="130" y="73" type="line"/>
      <point x="130" y="698" type="line"/>
      <point x="48" y="698" type="line"/>
      <point x="48" y="0" type="line"/>
      <point x="520" y="0" type="line"/>
    </contour>
  </outline>
</glyph>
<glyph name="uni042A" format="2">
  <advance width="600"/>
  <unicode hex="042A"/>
  <outline>
    <contour>
      <point x="170" y="0" type="line"/>
      <point x="385" y="0" type="line" smooth="yes"/>
      <point x="510" y="0"/>
      <point x="580" y="75"/>
      <point x="580" y="209" type="curve" smooth="yes"/>
      <point x="580" y="343"/>
      <point x="510" y="418"/>
      <point x="385" y="418" type="curve" smooth="yes"/>
      <point x="254" y="418" type="line"/>
      <point x="254" y="698" type="line"/>
      <point x="10" y="698" type="line"/>
      <point x="10" y="625" type="line"/>
      <point x="170" y="625" type="line"/>
    </contour>
    <contour>
      <point x="254" y="73" type="line"/>
      <point x="254" y="345" type="line"/>
      <point x="383" y="345" type="line" smooth="yes"/>
      <point x="449" y="345"/>
      <point x="491" y="310"/>
      <point x="491" y="235" type="curve" smooth="yes"/>
      <point x="491" y="183" type="line" smooth="yes"/>
      <point x="491" y="108"/>
      <point x="449" y="73"/>
      <point x="383" y="73" type="curve" smooth="yes"/>
    </contour>
  </outline>
</glyph>
<glyph name="uni042B" format="2">
  <advance width="600"/>
  <unicode hex="042B"/>
  <anchor x="300.0" y="698.0" name="top"/>
  <outline>
    <contour>
      <point x="48" y="0" type="line"/>
      <point x="200" y="0" type="line" smooth="yes"/>
      <point x="325" y="0"/>
      <point x="395" y="75"/>
      <point x="395" y="209" type="curve" smooth="yes"/>
      <point x="395" y="343"/>
      <point x="325" y="418"/>
      <point x="200" y="418" type="curve" smooth="yes"/>
      <point x="130" y="418" type="line"/>
      <point x="130" y="698" type="line"/>
      <point x="48" y="698" type="line"/>
    </contour>
    <contour>
      <point x="130" y="73" type="line"/>
      <point x="130" y="345" type="line"/>
      <point x="200" y="345" type="line" smooth="yes"/>
      <point x="266" y="345"/>
      <point x="308" y="310"/>
      <point x="308" y="235" type="curve" smooth="yes"/>
      <point x="308" y="183" type="line" smooth="yes"/>
      <point x="308" y="108"/>
      <point x="266" y="73"/>
      <point x="200" y="73" type="curve" smooth="yes"/>
    </contour>
    <contour>
      <point x="470" y="0" type="line"/>
      <point x="552" y="0" type="line"/>
      <point x="552" y="698" type="line"/>
      <point x="470" y="698" type="line"/>
    </contour>
  </outline>
</glyph>
<glyph name="uni042C" format="2">
  <advance width="600"/>
  <unicode hex="042C"/>
  <outline>
    <contour>
      <point x="92" y="0" type="line"/>
      <point x="347" y="0" type="line" smooth="yes"/>
      <point x="472" y="0"/>
      <point x="542" y="75"/>
      <point x="542" y="209" type="curve" smooth="yes"/>
      <point x="542" y="343"/>
      <point x="472" y="418"/>
      <point x="347" y="418" type="curve" smooth="yes"/>
      <point x="176" y="418" type="line"/>
      <point x="176" y="698" type="line"/>
      <point x="92" y="698" type="line"/>
    </contour>
    <contour>
      <point x="176" y="73" type="line"/>
      <point x="176" y="345" type="line"/>
      <point x="345" y="345" type="line" smooth="yes"/>
      <point x="411" y="345"/>
      <point x="453" y="310"/>
      <point x="453" y="235" type="curve" smooth="yes"/>
      <point x="453" y="183" type="line" smooth="yes"/>
      <point x="453" y="108"/>
      <point x="411" y="73"/>
      <point x="345" y="73" type="curve" smooth="yes"/>
    </contour>
  </outline>
</glyph>
<glyph name="uni042F" format="2">
  <advance width="600"/>
  <unicode hex="042F"/>
  <outline>
    <contour>
      <point x="39" y="0" type="line"/>
      <point x="102" y="0" type="line" smooth="yes"/>
      <point x="140" y="0"/>
      <point x="168" y="17"/>
      <point x="194" y="71" type="curve" smooth="yes"/>
      <point x="304" y="300" type="line"/>
      <point x="430" y="300" type="line"/>
      <point x="430" y="0" type="line"/>
      <point x="514" y="0" type="line"/>
      <point x="514" y="698" type="line"/>
      <point x="269" y="698" type="line" smooth="yes"/>
      <point x="144" y="698"/>
      <point x="74" y="621"/>
      <point x="74" y="500" type="curve" smooth="yes"/>
      <point x="74" y="390"/>
      <point x="134" y="319"/>
      <point x="256" y="313" type="curve"/>
      <point x="256" y="308" type="line"/>
      <point x="224" y="302"/>
      <point x="205" y="286"/>
      <point x="185" y="244" type="curve" smooth="yes"/>
      <point x="103" y="73" type="line"/>
      <point x="39" y="73" type="line"/>
    </contour>
    <contour>
      <point x="430" y="372" type="line"/>
      <point x="271" y="372" type="line" smooth="yes"/>
      <point x="205" y="372"/>
      <point x="163" y="407"/>
      <point x="163" y="482" type="curve" smooth="yes"/>
      <point x="163" y="515" type="line" smooth="yes"/>
      <point x="163" y="590"/>
      <point x="205" y="625"/>
      <point x="271" y="625" type="curve" smooth="yes"/>
      <point x="430" y="625" type="line"/>
    </contour>
  </outline>
</glyph>
<glyph name="uni0432" format="2">
  <advance width="600"/>
  <unicode hex="0432"/>
  <outline>
    <contour>
      <point x="107" y="0" type="line"/>
      <point x="373" y="0" type="line" smooth="yes"/>
      <point x="470" y="0"/>
      <point x="523" y="71"/>
      <point x="523" y="154" type="curve" smooth="yes"/>
      <point x="523" y="218"/>
      <point x="484" y="266"/>
      <point x="404" y="272" type="curve"/>
      <point x="404" y="276" type="line"/>
      <point x="470" y="284"/>
      <point x="505" y="321"/>
      <point x="505" y="385" type="curve" smooth="yes"/>
      <point x="505" y="464"/>
      <point x="454" y="516"/>
      <point x="370" y="516" type="curve" smooth="yes"/>
      <point x="107" y="516" type="line"/>
    </contour>
    <contour>
      <point x="187" y="64" type="line"/>
      <point x="187" y="236" type="line"/>
      <point x="359" y="236" type="line" smooth="yes"/>
      <point x="407" y="236"/>
      <point x="438" y="209"/>
      <point x="438" y="162" type="curve" smooth="yes"/>
      <point x="438" y="139" type="line" smooth="yes"/>
      <point x="438" y="92"/>
      <point x="407" y="64"/>
      <point x="353" y="64" type="curve" smooth="yes"/>
    </contour>
    <contour>
      <point x="187" y="299" type="line"/>
      <point x="187" y="452" type="line"/>
      <point x="349" y="452" type="line" smooth="yes"/>
      <point x="393" y="452"/>
      <point x="420" y="427"/>
      <point x="420" y="386" type="curve" smooth="yes"/>
      <point x="420" y="364" type="line" smooth="yes"/>
      <point x="420" y="323"/>
      <point x="393" y="299"/>
      <point x="349" y="299" type="curve" smooth="yes"/>
    </contour>
  </outline>
</glyph>
<glyph name="uni0433" format="2">
  <advance width="600"/>
  <unicode hex="0433"/>
  <anchor x="320.0" y="516.0" name="top"/>
  <outline>
    <contour>
      <point x="135" y="0" type="line"/>
      <point x="215" y="0" type="line"/>
      <point x="215" y="448" type="line"/>
      <point x="505" y="448" type="line"/>
      <point x="505" y="516" type="line"/>
      <point x="135" y="516" type="line"/>
    </contour>
  </outline>
</glyph>
<glyph name="uni0434" format="2">
  <advance width="600"/>
  <unicode hex="0434"/>
  <outline>
    <contour>
      <point x="22" y="-140" type="line"/>
      <point x="95" y="-140" type="line"/>
      <point x="95" y="0" type="line"/>
      <point x="494" y="0" type="line"/>
      <point x="494" y="-140" type="line"/>
      <point x="567" y="-140" type="line"/>
      <point x="567" y="68" type="line"/>
      <point x="482" y="68" type="line"/>
      <point x="482" y="516" type="line"/>
      <point x="149" y="516" type="line"/>
      <point x="149" y="352" type="line" smooth="yes"/>
      <point x="149" y="227"/>
      <point x="122" y="136"/>
      <point x="80" y="68" type="curve"/>
      <point x="22" y="68" type="line"/>
    </contour>
    <contour>
      <point x="167" y="68" type="line"/>
      <point x="207" y="140"/>
      <point x="227" y="224"/>
      <point x="227" y="348" type="curve" smooth="yes"/>
      <point x="227" y="448" type="line"/>
      <point x="402" y="448" type="line"/>
      <point x="402" y="68" type="line"/>
    </contour>
  </outline>
</glyph>
<glyph name="uni0436" format="2">
  <advance width="600"/>
  <unicode hex="0436"/>
  <guideline x="425.0" y="0.0" angle="90.0" identifier="ROU6qu91x0"/>
  <anchor x="300.0" y="516.0" name="top"/>
  <outline>
    <contour>
      <point x="263" y="0" type="line"/>
      <point x="337" y="0" type="line"/>
      <point x="337" y="233" type="line"/>
      <point x="425" y="233" type="line"/>
      <point x="489" y="0" type="line"/>
      <point x="570" y="0" type="line"/>
      <point x="514" y="203" type="line" smooth="yes"/>
      <point x="504" y="241"/>
      <point x="485" y="260"/>
      <point x="457" y="264" type="curve"/>
      <point x="457" y="268" type="line"/>
      <point x="483" y="274"/>
      <point x="497" y="292"/>
      <point x="508" y="327" type="curve" smooth="yes"/>
      <point x="564" y="516" type="line"/>
      <point x="489" y="516" type="line"/>
      <point x="425" y="299" type="line"/>
      <point x="337" y="299" type="line"/>
      <point x="337" y="516" type="line"/>
      <point x="263" y="516" type="line"/>
      <point x="263" y="299" type="line"/>
      <point x="175" y="299" type="line"/>
      <point x="112" y="516" type="line"/>
      <point x="36" y="516" type="line"/>
      <point x="91" y="327" type="line" smooth="yes"/>
      <point x="101" y="292"/>
      <point x="117" y="274"/>
      <point x="143" y="268" type="curve"/>
      <point x="143" y="264" type="line"/>
      <point x="115" y="260"/>
      <point x="98" y="241"/>
      <point x="87" y="203" type="curve" smooth="yes"/>
      <point x="30" y="0" type="line"/>
      <point x="110" y="0" type="line"/>
      <point x="175" y="233" type="line"/>
      <point x="263" y="233" type="line"/>
    </contour>
  </outline>
</glyph>
<glyph name="uni0438" format="2">
  <advance width="600"/>
  <unicode hex="0438"/>
  <anchor x="296.0" y="516.0" name="top"/>
  <outline>
    <contour>
      <point x="95" y="0" type="line"/>
      <point x="170" y="0" type="line"/>
      <point x="429" y="395" type="line"/>
      <point x="433" y="395" type="line"/>
      <point x="425" y="263" type="line"/>
      <point x="425" y="0" type="line"/>
      <point x="505" y="0" type="line"/>
      <point x="505" y="516" type="line"/>
      <point x="430" y="516" type="line"/>
      <point x="171" y="121" type="line"/>
      <point x="167" y="121" type="line"/>
      <point x="175" y="253" type="line"/>
      <point x="175" y="516" type="line"/>
      <point x="95" y="516" type="line"/>
    </contour>
  </outline>
</glyph>
<glyph name="uni043A" format="2">
  <advance width="600"/>
  <unicode hex="043A"/>
  <anchor x="296.0" y="516.0" name="top"/>
  <outline>
    <contour>
      <point x="107" y="0" type="line"/>
      <point x="187" y="0" type="line"/>
      <point x="187" y="232" type="line"/>
      <point x="297" y="232" type="line"/>
      <point x="396" y="60" type="line" smooth="yes"/>
      <point x="421" y="17"/>
      <point x="445" y="0"/>
      <point x="479" y="0" type="curve" smooth="yes"/>
      <point x="537" y="0" type="line"/>
      <point x="537" y="68" type="line"/>
      <point x="479" y="68" type="line"/>
      <point x="395" y="214" type="line" smooth="yes"/>
      <point x="375" y="248"/>
      <point x="358" y="260"/>
      <point x="332" y="264" type="curve"/>
      <point x="332" y="268" type="line"/>
      <point x="356" y="274"/>
      <point x="370" y="285"/>
      <point x="393" y="320" type="curve" smooth="yes"/>
      <point x="519" y="516" type="line"/>
      <point x="436" y="516" type="line"/>
      <point x="297" y="300" type="line"/>
      <point x="187" y="300" type="line"/>
      <point x="187" y="516" type="line"/>
      <point x="107" y="516" type="line"/>
    </contour>
  </outline>
</glyph>
<glyph name="uni043C" format="2">
  <advance width="600"/>
  <unicode hex="043C"/>
  <outline>
    <contour>
      <point x="72" y="0" type="line"/>
      <point x="149" y="0" type="line"/>
      <point x="149" y="323" type="line"/>
      <point x="146" y="415" type="line"/>
      <point x="152" y="415" type="line"/>
      <point x="300" y="88" type="line"/>
      <point x="448" y="415" type="line"/>
      <point x="454" y="415" type="line"/>
      <point x="451" y="323" type="line"/>
      <point x="451" y="0" type="line"/>
      <point x="528" y="0" type="line"/>
      <point x="528" y="516" type="line"/>
      <point x="426" y="516" type="line"/>
      <point x="307" y="253" type="line"/>
      <point x="301" y="253" type="line"/>
      <point x="182" y="516" type="line"/>
      <point x="72" y="516" type="line"/>
    </contour>
  </outline>
</glyph>
<glyph name="uni043D" format="2">
  <advance width="600"/>
  <unicode hex="043D"/>
  <outline>
    <contour>
      <point x="95" y="0" type="line"/>
      <point x="175" y="0" type="line"/>
      <point x="175" y="232" type="line"/>
      <point x="425" y="232" type="line"/>
      <point x="425" y="0" type="line"/>
      <point x="505" y="0" type="line"/>
      <point x="505" y="516" type="line"/>
      <point x="425" y="516" type="line"/>
      <point x="425" y="300" type="line"/>
      <point x="175" y="300" type="line"/>
      <point x="175" y="516" type="line"/>
      <point x="95" y="516" type="line"/>
    </contour>
  </outline>
</glyph>
<glyph name="uni043F" format="2">
  <advance width="600"/>
  <unicode hex="043F"/>
  <outline>
    <contour>
      <point x="97" y="0" type="line"/>
      <point x="177" y="0" type="line"/>
      <point x="177" y="448" type="line"/>
      <point x="423" y="448" type="line"/>
      <point x="423" y="0" type="line"/>
      <point x="503" y="0" type="line"/>
      <point x="503" y="516" type="line"/>
      <point x="97" y="516" type="line"/>
    </contour>
  </outline>
</glyph>
<glyph name="uni0442" format="2">
  <advance width="600"/>
  <unicode hex="0442"/>
  <outline>
    <contour>
      <point x="260" y="0" type="line"/>
      <point x="340" y="0" type="line"/>
      <point x="340" y="448" type="line"/>
      <point x="530" y="448" type="line"/>
      <point x="530" y="516" type="line"/>
      <point x="70" y="516" type="line"/>
      <point x="70" y="448" type="line"/>
      <point x="260" y="448" type="line"/>
    </contour>
  </outline>
</glyph>
<glyph name="uni0446" format="2">
  <advance width="600"/>
  <unicode hex="0446"/>
  <outline>
    <contour>
      <point x="497" y="-140" type="line"/>
      <point x="570" y="-140" type="line"/>
      <point x="570" y="68" type="line"/>
      <point x="485" y="68" type="line"/>
      <point x="485" y="516" type="line"/>
      <point x="405" y="516" type="line"/>
      <point x="405" y="68" type="line"/>
      <point x="164" y="68" type="line"/>
      <point x="164" y="516" type="line"/>
      <point x="84" y="516" type="line"/>
      <point x="84" y="0" type="line"/>
      <point x="497" y="0" type="line"/>
    </contour>
  </outline>
</glyph>
<glyph name="uni0447" format="2">
  <advance width="600"/>
  <unicode hex="0447"/>
  <anchor x="285.0" y="516.0" name="top"/>
  <outline>
    <contour>
      <point x="410" y="0" type="line"/>
      <point x="490" y="0" type="line"/>
      <point x="490" y="516" type="line"/>
      <point x="410" y="516" type="line"/>
      <point x="410" y="310" type="line" smooth="yes"/>
      <point x="410" y="268"/>
      <point x="354" y="247"/>
      <point x="275" y="247" type="curve" smooth="yes"/>
      <point x="194" y="247"/>
      <point x="160" y="278"/>
      <point x="160" y="341" type="curve" smooth="yes"/>
      <point x="160" y="516" type="line"/>
      <point x="80" y="516" type="line"/>
      <point x="80" y="334" type="line" smooth="yes"/>
      <point x="80" y="228"/>
      <point x="140" y="175"/>
      <point x="251" y="175" type="curve" smooth="yes"/>
      <point x="324" y="175"/>
      <point x="368" y="196"/>
      <point x="405" y="237" type="curve"/>
      <point x="410" y="237" type="line"/>
    </contour>
  </outline>
</glyph>
<glyph name="uni0448" format="2">
  <advance width="600"/>
  <unicode hex="0448"/>
  <outline>
    <contour>
      <point x="54" y="0" type="line"/>
      <point x="546" y="0" type="line"/>
      <point x="546" y="516" type="line"/>
      <point x="472" y="516" type="line"/>
      <point x="472" y="66" type="line"/>
      <point x="337" y="66" type="line"/>
      <point x="337" y="516" type="line"/>
      <point x="263" y="516" type="line"/>
      <point x="263" y="66" type="line"/>
      <point x="128" y="66" type="line"/>
      <point x="128" y="516" type="line"/>
      <point x="54" y="516" type="line"/>
    </contour>
  </outline>
</glyph>
<glyph name="uni0449" format="2">
  <advance width="600"/>
  <unicode hex="0449"/>
  <outline>
    <contour>
      <point x="530" y="-140" type="line"/>
      <point x="600" y="-140" type="line"/>
      <point x="600" y="68" type="line"/>
      <point x="546" y="68" type="line"/>
      <point x="546" y="516" type="line"/>
      <point x="472" y="516" type="line"/>
      <point x="472" y="66" type="line"/>
      <point x="337" y="66" type="line"/>
      <point x="337" y="516" type="line"/>
      <point x="263" y="516" type="line"/>
      <point x="263" y="66" type="line"/>
      <point x="128" y="66" type="line"/>
      <point x="128" y="516" type="line"/>
      <point x="54" y="516" type="line"/>
      <point x="54" y="0" type="line"/>
      <point x="530" y="0" type="line"/>
    </contour>
  </outline>
</glyph>
<glyph name="uni044A" format="2">
  <advance width="600"/>
  <unicode hex="044A"/>
  <guideline x="-743.0" y="0.0" angle="90.0" identifier="spZnOympZk"/>
  <outline>
    <contour>
      <point x="161" y="0" type="line"/>
      <point x="388" y="0" type="line" smooth="yes"/>
      <point x="493" y="0"/>
      <point x="557" y="61"/>
      <point x="557" y="164" type="curve" smooth="yes"/>
      <point x="557" y="266"/>
      <point x="491" y="329"/>
      <point x="387" y="329" type="curve" smooth="yes"/>
      <point x="241" y="329" type="line"/>
      <point x="241" y="516" type="line"/>
      <point x="11" y="516" type="line"/>
      <point x="11" y="448" type="line"/>
      <point x="161" y="448" type="line"/>
    </contour>
    <contour>
      <point x="241" y="68" type="line"/>
      <point x="241" y="261" type="line"/>
      <point x="376" y="261" type="line" smooth="yes"/>
      <point x="436" y="261"/>
      <point x="472" y="239"/>
      <point x="472" y="186" type="curve" smooth="yes"/>
      <point x="472" y="144" type="line" smooth="yes"/>
      <point x="472" y="91"/>
      <point x="436" y="68"/>
      <point x="376" y="68" type="curve" smooth="yes"/>
    </contour>
  </outline>
</glyph>
<glyph name="uni044B" format="2">
  <advance width="600"/>
  <unicode hex="044B"/>
  <anchor x="300.0" y="516.0" name="top"/>
  <outline>
    <contour>
      <point x="54" y="0" type="line"/>
      <point x="222" y="0" type="line" smooth="yes"/>
      <point x="327" y="0"/>
      <point x="391" y="61"/>
      <point x="391" y="164" type="curve" smooth="yes"/>
      <point x="391" y="266"/>
      <point x="325" y="329"/>
      <point x="221" y="329" type="curve" smooth="yes"/>
      <point x="134" y="329" type="line"/>
      <point x="134" y="516" type="line"/>
      <point x="54" y="516" type="line"/>
    </contour>
    <contour>
      <point x="134" y="68" type="line"/>
      <point x="134" y="261" type="line"/>
      <point x="210" y="261" type="line" smooth="yes"/>
      <point x="270" y="261"/>
      <point x="306" y="239"/>
      <point x="306" y="186" type="curve" smooth="yes"/>
      <point x="306" y="144" type="line" smooth="yes"/>
      <point x="306" y="91"/>
      <point x="270" y="68"/>
      <point x="210" y="68" type="curve" smooth="yes"/>
    </contour>
    <contour>
      <point x="466" y="0" type="line"/>
      <point x="546" y="0" type="line"/>
      <point x="546" y="516" type="line"/>
      <point x="466" y="516" type="line"/>
    </contour>
  </outline>
</glyph>
<glyph name="uni044E" format="2">
  <advance width="600"/>
  <unicode hex="044E"/>
  <outline>
    <contour>
      <point x="389" y="-12" type="curve" smooth="yes"/>
      <point x="495" y="-12"/>
      <point x="554" y="40"/>
      <point x="554" y="258" type="curve" smooth="yes"/>
      <point x="554" y="476"/>
      <point x="495" y="528"/>
      <point x="389" y="528" type="curve" smooth="yes"/>
      <point x="289" y="528"/>
      <point x="232" y="482"/>
      <point x="225" y="297" type="curve"/>
      <point x="128" y="297" type="line"/>
      <point x="128" y="516" type="line"/>
      <point x="54" y="516" type="line"/>
      <point x="54" y="0" type="line"/>
      <point x="128" y="0" type="line"/>
      <point x="128" y="234" type="line"/>
      <point x="224" y="234" type="line"/>
      <point x="229" y="36"/>
      <point x="287" y="-12"/>
    </contour>
    <contour>
      <point x="389" y="54" type="curve" smooth="yes"/>
      <point x="331" y="54"/>
      <point x="301" y="85"/>
      <point x="301" y="211" type="curve" smooth="yes"/>
      <point x="301" y="305" type="line" smooth="yes"/>
      <point x="301" y="431"/>
      <point x="331" y="462"/>
      <point x="389" y="462" type="curve" smooth="yes"/>
      <point x="447" y="462"/>
      <point x="477" y="431"/>
      <point x="477" y="305" type="curve" smooth="yes"/>
      <point x="477" y="211" type="line" smooth="yes"/>
      <point x="477" y="85"/>
      <point x="447" y="54"/>
    </contour>
  </outline>
</glyph>
